OxygenSans-Regular.ufo
<glyph name="exclam" format="1">
  <advance width="573.2"/>
  <unicode hex="0021"/>
  <outline>
    <contour>
      <point x="288.0" y="-11.8" type="curve" smooth="yes"/>
      <point x="369.0" y="-11.8"/>
      <point x="409.2" y="47.2"/>
      <point x="409.2" y="108.2" type="curve" smooth="yes"/>
      <point x="409.2" y="168.4"/>
      <point x="369.0" y="228.0"/>
      <point x="288.0" y="228.0" type="curve" smooth="yes"/>
      <point x="207.2" y="228.0"/>
      <point x="167.6" y="168.4"/>
      <point x="167.6" y="108.2" type="curve" smooth="yes"/>
      <point x="167.6" y="48.4"/>
      <point x="207.2" y="-11.8"/>
    </contour>
    <contour>
      <point x="252.0" y="421.0" type="line"/>
      <point x="325.6" y="421.0" type="line"/>
      <point x="379.0" y="1324.0" type="line"/>
      <point x="379.0" y="1460.8" type="line"/>
      <point x="192.4" y="1460.8" type="line"/>
      <point x="192.4" y="1324.0" type="line"/>
    </contour>
  </outline>
</glyph>
<glyph name="quotedbl" format="1">
  <advance width="658.8"/>
  <unicode hex="0022"/>
  <outline>
    <contour>
      <point x="434.4" y="984.8" type="line"/>
      <point x="531.6" y="984.8" type="line"/>
      <point x="560.6" y="1461.4" type="line"/>
      <point x="401.0" y="1461.4" type="line"/>
    </contour>
    <contour>
      <point x="151.8" y="984.8" type="line"/>
      <point x="249.0" y="984.8" type="line"/>
      <point x="277.4" y="1461.4" type="line"/>
      <point x="118.4" y="1461.4" type="line"/>
    </contour>
  </outline>
</glyph>
<glyph name="numbersign" format="1">
  <advance width="1194.4"/>
  <unicode hex="0023"/>
  <outline>
    <contour>
      <point x="702.2" y="516.8" type="line"/>
      <point x="461.0" y="516.8" type="line"/>
      <point x="543.4" y="936.0" type="line"/>
      <point x="784.2" y="936.0" type="line"/>
    </contour>
    <contour>
      <point x="598.8" y="-16.8" type="line"/>
      <point x="719.2" y="-16.8" type="line"/>
      <point x="805.0" y="422.4" type="line"/>
      <point x="981.6" y="422.4" type="line"/>
      <point x="996.6" y="516.8" type="line"/>
      <point x="824.0" y="516.8" type="line"/>
      <point x="906.0" y="936.0" type="line"/>
      <point x="1068.4" y="936.0" type="line"/>
      <point x="1083.4" y="1030.4" type="line"/>
      <point x="924.2" y="1030.4" type="line"/>
      <point x="1000.2" y="1419.4" type="line"/>
      <point x="879.0" y="1419.4" type="line"/>
      <point x="802.8" y="1030.4" type="line"/>
      <point x="561.6" y="1030.4" type="line"/>
      <point x="637.6" y="1419.4" type="line"/>
      <point x="516.0" y="1419.4" type="line"/>
      <point x="439.8" y="1030.4" type="line"/>
      <point x="266.2" y="1030.4" type="line"/>
      <point x="253.0" y="936.0" type="line"/>
      <point x="421.6" y="936.0" type="line"/>
      <point x="340.2" y="516.8" type="line"/>
      <point x="179.4" y="516.8" type="line"/>
      <point x="166.2" y="422.4" type="line"/>
      <point x="321.6" y="422.4" type="line"/>
      <point x="236.2" y="-16.8" type="line"/>
      <point x="356.6" y="-16.8" type="line"/>
      <point x="442.4" y="422.4" type="line"/>
      <point x="683.6" y="422.4" type="line"/>
    </contour>
  </outline>
</glyph>
<glyph name="percent" format="1">
  <advance width="1781.8"/>
  <unicode hex="0025"/>
  <outline>
    <contour>
      <point x="1402.2" y="-13.4" type="curve" smooth="yes"/>
      <point x="1175.6" y="-13.4"/>
      <point x="1061.8" y="149.4"/>
      <point x="1061.8" y="358.8" type="curve" smooth="yes"/>
      <point x="1061.8" y="569.2"/>
      <point x="1179.2" y="730.0"/>
      <point x="1402.2" y="730.0" type="curve" smooth="yes"/>
      <point x="1629.8" y="730.0"/>
      <point x="1744.0" y="572.2"/>
      <point x="1744.0" y="358.8" type="curve" smooth="yes"/>
      <point x="1744.0" y="149.4"/>
      <point x="1626.8" y="-13.4"/>
    </contour>
    <contour>
      <point x="1403.4" y="86.0" type="curve" smooth="yes"/>
      <point x="1555.8" y="86.0"/>
      <point x="1621.2" y="206.6"/>
      <point x="1621.2" y="360.2" type="curve" smooth="yes"/>
      <point x="1621.2" y="519.0"/>
      <point x="1554.8" y="631.4"/>
      <point x="1403.4" y="631.4" type="curve" smooth="yes"/>
      <point x="1250.4" y="631.4"/>
      <point x="1183.6" y="513.4"/>
      <point x="1183.6" y="360.2" type="curve" smooth="yes"/>
      <point x="1183.6" y="202.4"/>
      <point x="1251.0" y="86.0"/>
    </contour>
    <contour>
      <point x="414.2" y="804.0" type="curve" smooth="yes"/>
      <point x="566.6" y="804.0"/>
      <point x="632.0" y="924.6"/>
      <point x="632.0" y="1078.2" type="curve" smooth="yes"/>
      <point x="632.0" y="1237.0"/>
      <point x="565.6" y="1349.4"/>
      <point x="414.2" y="1349.4" type="curve" smooth="yes"/>
      <point x="261.2" y="1349.4"/>
      <point x="194.4" y="1231.4"/>
      <point x="194.4" y="1078.2" type="curve" smooth="yes"/>
      <point x="194.4" y="920.4"/>
      <point x="261.8" y="804.0"/>
    </contour>
    <contour>
      <point x="413.0" y="704.6" type="curve" smooth="yes"/>
      <point x="186.4" y="704.6"/>
      <point x="72.6" y="867.4"/>
      <point x="72.6" y="1076.8" type="curve" smooth="yes"/>
      <point x="72.6" y="1287.2"/>
      <point x="190.0" y="1448.0"/>
      <point x="413.0" y="1448.0" type="curve" smooth="yes"/>
      <point x="640.6" y="1448.0"/>
      <point x="754.8" y="1290.2"/>
      <point x="754.8" y="1076.8" type="curve" smooth="yes"/>
      <point x="754.8" y="867.4"/>
      <point x="637.6" y="704.6"/>
    </contour>
    <contour>
      <point x="426.4" y="0.0" type="line"/>
      <point x="1255.0" y="1437.4" type="line"/>
      <point x="1385.2" y="1437.4" type="line"/>
      <point x="565.2" y="0.0" type="line"/>
    </contour>
  </outline>
</glyph>
<glyph name="ampersand" format="1">
  <advance width="1424.4"/>
  <unicode hex="0026"/>
  <outline>
    <contour>
      <point x="652.4" y="-18.2" type="curve" smooth="yes"/>
      <point x="848.0" y="-18.2"/>
      <point x="927.2" y="18.0"/>
      <point x="1052.4" y="111.2" type="curve"/>
      <point x="1180.2" y="-17.6" type="line"/>
      <point x="1334.8" y="45.2" type="line"/>
      <point x="1165.2" y="219.0" type="line"/>
      <point x="1232.0" y="288.6"/>
      <point x="1310.6" y="410.6"/>
      <point x="1348.4" y="495.4" type="curve"/>
      <point x="1225.4" y="576.4" type="line"/>
      <point x="1190.0" y="497.4"/>
      <point x="1121.2" y="382.8"/>
      <point x="1067.6" y="326.2" type="curve"/>
      <point x="671.8" y="766.4" type="line"/>
      <point x="857.0" y="855.2"/>
      <point x="1014.0" y="984.6"/>
      <point x="1014.0" y="1154.2" type="curve" smooth="yes"/>
      <point x="1014.0" y="1353.8"/>
      <point x="861.0" y="1456.0"/>
      <point x="662.8" y="1456.0" type="curve" smooth="yes"/>
      <point x="445.8" y="1456.0"/>
      <point x="281.8" y="1333.6"/>
      <point x="281.8" y="1140.4" type="curve" smooth="yes"/>
      <point x="281.8" y="1014.2"/>
      <point x="343.0" y="903.4"/>
      <point x="444.6" y="794.0" type="curve"/>
      <point x="287.8" y="703.0"/>
      <point x="154.4" y="584.6"/>
      <point x="154.4" y="375.0" type="curve" smooth="yes"/>
      <point x="154.4" y="126.8"/>
      <point x="339.8" y="-18.2"/>
    </contour>
    <contour>
      <point x="662.4" y="120.6" type="curve" smooth="yes"/>
      <point x="456.6" y="120.6"/>
      <point x="328.0" y="214.4"/>
      <point x="328.0" y="383.8" type="curve" smooth="yes"/>
      <point x="328.0" y="519.4"/>
      <point x="411.6" y="621.2"/>
      <point x="533.2" y="691.8" type="curve"/>
      <point x="956.0" y="220.2" type="line"/>
      <point x="870.6" y="151.6"/>
      <point x="797.4" y="120.6"/>
    </contour>
    <contour>
      <point x="587.0" y="865.4" type="curve"/>
      <point x="481.4" y="966.0"/>
      <point x="443.2" y="1057.0"/>
      <point x="443.2" y="1152.4" type="curve" smooth="yes"/>
      <point x="443.2" y="1264.0"/>
      <point x="546.2" y="1327.2"/>
      <point x="665.6" y="1327.2" type="curve" smooth="yes"/>
      <point x="787.4" y="1327.2"/>
      <point x="851.8" y="1267.4"/>
      <point x="851.8" y="1154.8" type="curve" smooth="yes"/>
      <point x="851.8" y="1031.6"/>
      <point x="721.2" y="930.4"/>
    </contour>
  </outline>
</glyph>
<glyph name="quotesingle" format="1">
  <advance width="366.4"/>
  <unicode hex="0027"/>
  <outline>
    <contour>
      <point x="133.6" y="939.2" type="line"/>
      <point x="241.8" y="939.2" type="line"/>
      <point x="260.6" y="1432.6" type="line"/>
      <point x="113.8" y="1432.6" type="line"/>
    </contour>
  </outline>
</glyph>
<glyph name="parenleft" format="1">
  <advance width="705.4"/>
  <unicode hex="0028"/>
  <outline>
    <contour>
      <point x="453.0" y="-217.2" type="curve"/>
      <point x="619.6" y="-217.2" type="line"/>
      <point x="441.6" y="65.4"/>
      <point x="366.4" y="371.8"/>
      <point x="366.4" y="688.2" type="curve" smooth="yes"/>
      <point x="366.4" y="994.4"/>
      <point x="453.4" y="1282.0"/>
      <point x="621.2" y="1538.8" type="curve"/>
      <point x="451.4" y="1538.8" type="line"/>
      <point x="289.6" y="1306.0"/>
      <point x="191.4" y="1008.0"/>
      <point x="191.4" y="684.4" type="curve" smooth="yes"/>
      <point x="191.4" y="335.0"/>
      <point x="289.6" y="11.0"/>
    </contour>
  </outline>
</glyph>
<glyph name="parenright" format="1">
  <advance width="709.8"/>
  <unicode hex="0029"/>
  <outline>
    <contour>
      <point x="110.6" y="-217.2" type="curve"/>
      <point x="278.6" y="-217.2" type="line"/>
      <point x="436.8" y="-0.6"/>
      <point x="539.2" y="341.0"/>
      <point x="539.2" y="691.6" type="curve" smooth="yes"/>
      <point x="539.2" y="1014.0"/>
      <point x="446.4" y="1294.4"/>
      <point x="279.4" y="1538.8" type="curve"/>
      <point x="110.4" y="1538.8" type="line"/>
      <point x="292.6" y="1247.2"/>
      <point x="364.2" y="991.2"/>
      <point x="364.2" y="693.4" type="curve" smooth="yes"/>
      <point x="364.2" y="368.6"/>
      <point x="274.2" y="30.6"/>
    </contour>
  </outline>
</glyph>
<glyph name="asterisk" format="1">
  <advance width="1158.8"/>
  <unicode hex="002A"/>
  <outline>
    <contour>
      <point x="390.6" y="550.8" type="line"/>
      <point x="243.8" y="641.2" type="line"/>
      <point x="483.6" y="963.4" type="line"/>
      <point x="132.0" y="1044.0" type="line"/>
      <point x="178.6" y="1208.6" type="line"/>
      <point x="525.6" y="1062.6" type="line"/>
      <point x="490.6" y="1460.2" type="line"/>
      <point x="666.8" y="1460.2" type="line"/>
      <point x="631.0" y="1062.6" type="line"/>
      <point x="980.4" y="1208.6" type="line"/>
      <point x="1027.4" y="1044.0" type="line"/>
      <point x="670.2" y="963.4" type="line"/>
      <point x="710.2" y="909.8"/>
      <point x="831.8" y="748.6"/>
      <point x="915.8" y="641.2" type="curve"/>
      <point x="864.2" y="608.8"/>
      <point x="821.4" y="583.0"/>
      <point x="769.8" y="550.6" type="curve"/>
      <point x="574.4" y="900.0" type="line"/>
    </contour>
  </outline>
</glyph>
<glyph name="plus" format="1">
  <advance width="1093.8"/>
  <unicode hex="002B"/>
  <outline>
    <contour>
      <point x="495.0" y="166.6" type="line"/>
      <point x="631.4" y="166.6" type="line"/>
      <point x="631.4" y="565.4" type="line"/>
      <point x="1005.6" y="565.4" type="line"/>
      <point x="1005.6" y="691.0" type="line"/>
      <point x="631.8" y="691.0" type="line"/>
      <point x="631.8" y="1083.8" type="line"/>
      <point x="495.8" y="1083.8" type="line"/>
      <point x="495.8" y="691.0" type="line"/>
      <point x="116.0" y="691.0" type="line"/>
      <point x="116.0" y="565.4" type="line"/>
      <point x="495.0" y="565.4" type="line"/>
    </contour>
  </outline>
</glyph>
<glyph name="comma" format="1">
  <advance width="487.8"/>
  <unicode hex="002C"/>
  <outline>
    <contour>
      <point x="133.6" y="-269.0" type="curve"/>
      <point x="243.4" y="-269.0" type="line"/>
      <point x="243.4" y="-269.0"/>
      <point x="356.8" y="159.2"/>
      <point x="356.8" y="183.8" type="curve"/>
      <point x="359.2" y="225.8" type="line"/>
      <point x="181.6" y="225.8" type="line"/>
      <point x="181.6" y="163.4"/>
      <point x="133.6" y="-269.0"/>
    </contour>
  </outline>
</glyph>
<glyph name="hyphen" format="1">
  <advance width="701.2"/>
  <unicode hex="002D"/>
  <outline>
    <contour>
      <point x="103.6" y="480.0" type="line"/>
      <point x="583.8" y="480.0" type="line"/>
      <point x="583.8" y="615.2" type="line"/>
      <point x="103.6" y="615.2" type="line"/>
    </contour>
  </outline>
</glyph>
<glyph name="period" format="1">
  <advance width="497.4"/>
  <unicode hex="002E"/>
  <outline>
    <contour>
      <point x="261.4" y="-9.0" type="curve" smooth="yes"/>
      <point x="337.0" y="-9.0"/>
      <point x="375.4" y="47.8"/>
      <point x="375.4" y="105.8" type="curve" smooth="yes"/>
      <point x="375.4" y="164.2"/>
      <point x="337.0" y="221.8"/>
      <point x="261.4" y="221.8" type="curve" smooth="yes"/>
      <point x="184.2" y="221.8"/>
      <point x="146.0" y="164.2"/>
      <point x="146.0" y="105.8" type="curve" smooth="yes"/>
      <point x="146.0" y="48.0"/>
      <point x="185.8" y="-9.0"/>
    </contour>
  </outline>
</glyph>
<glyph name="slash" format="1">
  <advance width="951.2"/>
  <unicode hex="002F"/>
  <outline>
    <contour>
      <point x="93.8" y="-191.0" type="line"/>
      <point x="227.2" y="-191.0" type="line"/>
      <point x="886.2" y="1411.6" type="line"/>
      <point x="750.0" y="1411.6" type="line"/>
    </contour>
  </outline>
</glyph>
<glyph name="zero" format="1">
  <advance width="1221.6"/>
  <unicode hex="0030"/>
  <outline>
    <contour>
      <point x="626.8" y="118.6" type="curve" smooth="yes"/>
      <point x="426.2" y="118.6"/>
      <point x="310.8" y="325.2"/>
      <point x="310.8" y="719.2" type="curve"/>
      <point x="310.4" y="1095.0"/>
      <point x="425.8" y="1306.8"/>
      <point x="626.8" y="1306.8" type="curve" smooth="yes"/>
      <point x="827.4" y="1306.8"/>
      <point x="935.2" y="1118.8"/>
      <point x="935.2" y="719.2" type="curve" smooth="yes"/>
      <point x="935.2" y="325.0"/>
      <point x="827.4" y="118.6"/>
    </contour>
    <contour>
      <point x="626.8" y="-27.4" type="curve" smooth="yes"/>
      <point x="976.0" y="-27.4"/>
      <point x="1115.4" y="289.6"/>
      <point x="1115.4" y="713.4" type="curve" smooth="yes"/>
      <point x="1115.4" y="1157.8"/>
      <point x="961.6" y="1453.6"/>
      <point x="626.8" y="1453.6" type="curve" smooth="yes"/>
      <point x="292.2" y="1453.6"/>
      <point x="130.2" y="1157.8"/>
      <point x="130.2" y="713.4" type="curve" smooth="yes"/>
      <point x="130.2" y="289.6"/>
      <point x="278.0" y="-27.4"/>
    </contour>
  </outline>
</glyph>
<glyph name="one" format="1">
  <advance width="1202.0"/>
  <unicode hex="0031"/>
  <outline>
    <contour>
      <point x="236.8" y="0.0" type="line"/>
      <point x="1073.0" y="0.0" type="line"/>
      <point x="1073.0" y="140.4" type="line"/>
      <point x="696.8" y="140.4" type="line"/>
      <point x="764.2" y="72.6" type="line"/>
      <point x="764.2" y="1437.4" type="line"/>
      <point x="599.4" y="1437.4" type="line"/>
      <point x="522.8" y="1383.2"/>
      <point x="354.0" y="1330.2"/>
      <point x="265.2" y="1310.6" type="curve"/>
      <point x="265.2" y="1166.8" type="line"/>
      <point x="369.8" y="1181.4"/>
      <point x="552.2" y="1238.4"/>
      <point x="625.0" y="1298.6" type="curve"/>
      <point x="583.4" y="1323.2" type="line"/>
      <point x="583.4" y="73.8" type="line"/>
      <point x="649.6" y="140.4" type="line"/>
      <point x="236.8" y="140.4" type="line"/>
    </contour>
  </outline>
</glyph>
<glyph name="two" format="1">
  <advance width="1202.0"/>
  <unicode hex="0032"/>
  <outline>
    <contour>
      <point x="165.6" y="0.0" type="line"/>
      <point x="1012.2" y="0.0" type="line"/>
      <point x="1022.4" y="140.4" type="line"/>
      <point x="272.2" y="140.4" type="line"/>
      <point x="296.6" y="78.6" type="line"/>
      <point x="761.6" y="564.6" type="line"/>
      <point x="946.0" y="758.0"/>
      <point x="1018.4" y="863.0"/>
      <point x="1018.4" y="1061.8" type="curve" smooth="yes"/>
      <point x="1018.4" y="1365.6"/>
      <point x="750.6" y="1455.6"/>
      <point x="571.6" y="1455.6" type="curve" smooth="yes"/>
      <point x="415.2" y="1455.6"/>
      <point x="256.0" y="1401.8"/>
      <point x="164.0" y="1338.0" type="curve"/>
      <point x="217.8" y="1201.8" type="line"/>
      <point x="307.4" y="1258.8"/>
      <point x="438.0" y="1301.6"/>
      <point x="558.0" y="1301.6" type="curve" smooth="yes"/>
      <point x="677.2" y="1301.6"/>
      <point x="840.0" y="1254.8"/>
      <point x="840.0" y="1046.2" type="curve" smooth="yes"/>
      <point x="840.0" y="893.0"/>
      <point x="765.2" y="805.6"/>
      <point x="648.2" y="682.2" type="curve" smooth="yes"/>
      <point x="143.4" y="143.2" type="line"/>
    </contour>
  </outline>
</glyph>
<glyph name="three" format="1">
  <advance width="1202.0"/>
  <unicode hex="0033"/>
  <outline>
    <contour>
      <point x="576.0" y="-21.8" type="curve" smooth="yes"/>
      <point x="866.2" y="-21.8"/>
      <point x="1066.2" y="128.0"/>
      <point x="1066.2" y="389.2" type="curve" smooth="yes"/>
      <point x="1066.2" y="592.4"/>
      <point x="945.8" y="723.2"/>
      <point x="767.6" y="761.4" type="curve"/>
      <point x="930.4" y="805.4"/>
      <point x="1029.2" y="905.8"/>
      <point x="1029.2" y="1091.8" type="curve" smooth="yes"/>
      <point x="1029.2" y="1320.8"/>
      <point x="822.6" y="1456.0"/>
      <point x="571.4" y="1456.0" type="curve" smooth="yes"/>
      <point x="416.4" y="1456.0"/>
      <point x="281.4" y="1417.8"/>
      <point x="166.6" y="1347.0" type="curve"/>
      <point x="223.0" y="1216.6" type="line"/>
      <point x="316.0" y="1275.6"/>
      <point x="441.6" y="1312.8"/>
      <point x="562.8" y="1312.8" type="curve" smooth="yes"/>
      <point x="729.6" y="1312.8"/>
      <point x="853.2" y="1230.0"/>
      <point x="853.2" y="1080.2" type="curve" smooth="yes"/>
      <point x="853.2" y="868.8"/>
      <point x="654.8" y="835.0"/>
      <point x="451.6" y="829.2" type="curve"/>
      <point x="404.8" y="829.2" type="line"/>
      <point x="404.8" y="684.6" type="line"/>
      <point x="450.4" y="684.6" type="line"/>
      <point x="695.8" y="679.6"/>
      <point x="886.0" y="637.0"/>
      <point x="886.0" y="391.4" type="curve" smooth="yes"/>
      <point x="886.0" y="209.0"/>
      <point x="755.0" y="127.0"/>
      <point x="563.0" y="127.0" type="curve" smooth="yes"/>
      <point x="433.4" y="127.0"/>
      <point x="310.8" y="169.6"/>
      <point x="231.2" y="218.2" type="curve"/>
      <point x="172.4" y="91.8" type="line"/>
      <point x="257.6" y="36.6"/>
      <point x="400.4" y="-21.8"/>
    </contour>
  </outline>
</glyph>
<glyph name="four" format="1">
  <advance width="1202.0"/>
  <unicode hex="0034"/>
  <outline>
    <contour>
      <point x="769.2" y="0.0" type="line"/>
      <point x="942.2" y="0.0" type="line"/>
      <point x="942.2" y="359.6" type="line"/>
      <point x="1108.0" y="359.6" type="line"/>
      <point x="1120.0" y="499.6" type="line"/>
      <point x="942.2" y="499.6" type="line"/>
      <point x="942.2" y="1437.4" type="line"/>
      <point x="750.2" y="1437.4" type="line"/>
      <point x="112.4" y="511.6" type="line"/>
      <point x="112.4" y="359.6" type="line"/>
      <point x="769.2" y="359.6" type="line"/>
    </contour>
    <contour>
      <point x="292.6" y="499.2" type="line"/>
      <point x="768.6" y="1218.6" type="line"/>
      <point x="768.6" y="499.2" type="line"/>
    </contour>
  </outline>
</glyph>
<glyph name="five" format="1">
  <advance width="1202.0"/>
  <unicode hex="0035"/>
  <outline>
    <contour>
      <point x="568.0" y="-19.6" type="curve" smooth="yes"/>
      <point x="862.4" y="-19.6"/>
      <point x="1081.0" y="152.6"/>
      <point x="1081.0" y="457.4" type="curve" smooth="yes"/>
      <point x="1081.0" y="702.8"/>
      <point x="923.4" y="898.6"/>
      <point x="647.4" y="898.6" type="curve" smooth="yes"/>
      <point x="534.4" y="898.6"/>
      <point x="452.8" y="867.4"/>
      <point x="386.8" y="822.8" type="curve"/>
      <point x="420.2" y="1293.2" type="line"/>
      <point x="1007.4" y="1293.2" type="line"/>
      <point x="1021.2" y="1437.4" type="line"/>
      <point x="263.2" y="1437.4" type="line"/>
      <point x="218.0" y="669.2" type="line"/>
      <point x="360.6" y="650.8" type="line"/>
      <point x="422.4" y="717.2"/>
      <point x="519.0" y="756.0"/>
      <point x="613.0" y="756.0" type="curve" smooth="yes"/>
      <point x="811.2" y="756.0"/>
      <point x="897.0" y="622.6"/>
      <point x="897.0" y="455.6" type="curve" smooth="yes"/>
      <point x="897.0" y="245.8"/>
      <point x="753.6" y="125.4"/>
      <point x="549.6" y="125.4" type="curve" smooth="yes"/>
      <point x="419.4" y="125.4"/>
      <point x="290.0" y="185.2"/>
      <point x="217.6" y="230.8" type="curve"/>
      <point x="155.8" y="101.6" type="line"/>
      <point x="238.8" y="48.6"/>
      <point x="402.0" y="-19.6"/>
    </contour>
  </outline>
</glyph>
<glyph name="six" format="1">
  <advance width="1202.0"/>
  <unicode hex="0036"/>
  <outline>
    <contour>
      <point x="625.4" y="-19.0" type="curve" smooth="yes"/>
      <point x="913.2" y="-19.0"/>
      <point x="1100.8" y="175.8"/>
      <point x="1100.8" y="430.2" type="curve" smooth="yes"/>
      <point x="1100.8" y="689.8"/>
      <point x="895.4" y="862.0"/>
      <point x="658.2" y="862.0" type="curve" smooth="yes"/>
      <point x="442.8" y="862.0"/>
      <point x="325.0" y="688.0"/>
      <point x="310.4" y="670.6" type="curve"/>
      <point x="340.6" y="641.4" type="line"/>
      <point x="340.6" y="641.4"/>
      <point x="497.8" y="846.4"/>
      <point x="571.6" y="955.0" type="curve"/>
      <point x="908.6" y="1437.4" type="line"/>
      <point x="700.6" y="1437.4" type="line"/>
      <point x="364.8" y="956.0" type="line"/>
      <point x="237.8" y="774.2"/>
      <point x="149.8" y="643.0"/>
      <point x="149.8" y="434.0" type="curve" smooth="yes"/>
      <point x="149.8" y="190.4"/>
      <point x="323.0" y="-19.0"/>
    </contour>
    <contour>
      <point x="620.2" y="121.8" type="curve" smooth="yes"/>
      <point x="423.8" y="121.8"/>
      <point x="325.4" y="258.4"/>
      <point x="325.4" y="423.0" type="curve" smooth="yes"/>
      <point x="325.4" y="647.2"/>
      <point x="489.8" y="723.4"/>
      <point x="626.2" y="723.4" type="curve" smooth="yes"/>
      <point x="818.6" y="723.4"/>
      <point x="923.4" y="601.2"/>
      <point x="923.4" y="428.6" type="curve" smooth="yes"/>
      <point x="923.4" y="262.2"/>
      <point x="816.8" y="121.8"/>
    </contour>
  </outline>
</glyph>
<glyph name="seven" format="1">
  <advance width="1202.0"/>
  <unicode hex="0037"/>
  <outline>
    <contour>
      <point x="354.4" y="0.6" type="line"/>
      <point x="538.4" y="0.6" type="line"/>
      <point x="1040.0" y="1309.4" type="line"/>
      <point x="1040.0" y="1437.4" type="line"/>
      <point x="185.8" y="1437.4" type="line"/>
      <point x="202.6" y="1289.8" type="line"/>
      <point x="846.8" y="1289.8" type="line"/>
    </contour>
  </outline>
</glyph>
<glyph name="eight" format="1">
  <advance width="1202.0"/>
  <unicode hex="0038"/>
  <outline>
    <contour>
      <point x="602.2" y="-19.0" type="curve" smooth="yes"/>
      <point x="860.0" y="-19.0"/>
      <point x="1076.6" y="107.2"/>
      <point x="1076.6" y="360.8" type="curve" smooth="yes"/>
      <point x="1076.6" y="544.8"/>
      <point x="960.0" y="695.0"/>
      <point x="785.0" y="755.2" type="curve"/>
      <point x="938.0" y="813.8"/>
      <point x="1046.2" y="923.8"/>
      <point x="1046.2" y="1097.8" type="curve" smooth="yes"/>
      <point x="1046.2" y="1327.4"/>
      <point x="857.4" y="1456.0"/>
      <point x="602.4" y="1456.0" type="curve" smooth="yes"/>
      <point x="347.0" y="1456.0"/>
      <point x="155.4" y="1327.4"/>
      <point x="155.4" y="1097.8" type="curve" smooth="yes"/>
      <point x="155.4" y="923.4"/>
      <point x="273.0" y="805.8"/>
      <point x="422.4" y="753.4" type="curve"/>
      <point x="238.8" y="687.0"/>
      <point x="125.4" y="557.6"/>
      <point x="125.4" y="361.2" type="curve" smooth="yes"/>
      <point x="125.4" y="107.4"/>
      <point x="345.4" y="-19.0"/>
    </contour>
    <contour>
      <point x="602.2" y="119.0" type="curve" smooth="yes"/>
      <point x="403.4" y="119.0"/>
      <point x="297.2" y="212.2"/>
      <point x="297.2" y="377.4" type="curve" smooth="yes"/>
      <point x="297.2" y="547.4"/>
      <point x="428.4" y="647.2"/>
      <point x="602.2" y="686.0" type="curve"/>
      <point x="776.8" y="647.2"/>
      <point x="903.6" y="541.6"/>
      <point x="903.6" y="377.8" type="curve" smooth="yes"/>
      <point x="903.6" y="206.2"/>
      <point x="806.2" y="119.0"/>
    </contour>
    <contour>
      <point x="602.2" y="809.6" type="curve"/>
      <point x="423.8" y="849.2"/>
      <point x="329.6" y="949.0"/>
      <point x="329.6" y="1101.0" type="curve" smooth="yes"/>
      <point x="329.6" y="1238.0"/>
      <point x="440.2" y="1323.6"/>
      <point x="602.2" y="1323.6" type="curve" smooth="yes"/>
      <point x="765.4" y="1323.6"/>
      <point x="871.8" y="1238.0"/>
      <point x="871.8" y="1101.0" type="curve" smooth="yes"/>
      <point x="871.8" y="949.0"/>
      <point x="782.0" y="849.2"/>
    </contour>
  </outline>
</glyph>
<glyph name="nine" format="1">
  <advance width="1202.0"/>
  <unicode hex="0039"/>
  <outline>
    <contour>
      <point x="292.2" y="0.0" type="line"/>
      <point x="507.2" y="0.0" type="line"/>
      <point x="507.2" y="0.0"/>
      <point x="861.8" y="474.6"/>
      <point x="870.6" y="486.2" type="curve" smooth="yes"/>
      <point x="998.4" y="660.8"/>
      <point x="1095.2" y="795.2"/>
      <point x="1095.2" y="1002.6" type="curve" smooth="yes"/>
      <point x="1095.2" y="1247.0"/>
      <point x="921.6" y="1456.0"/>
      <point x="619.2" y="1456.0" type="curve" smooth="yes"/>
      <point x="331.0" y="1456.0"/>
      <point x="143.2" y="1261.2"/>
      <point x="143.2" y="1005.6" type="curve" smooth="yes"/>
      <point x="143.2" y="744.4"/>
      <point x="348.8" y="573.0"/>
      <point x="586.0" y="573.0" type="curve" smooth="yes"/>
      <point x="793.8" y="573.0"/>
      <point x="921.6" y="744.4"/>
      <point x="935.0" y="764.2" type="curve"/>
      <point x="903.6" y="790.8" type="line"/>
      <point x="903.6" y="790.8"/>
      <point x="747.2" y="598.4"/>
      <point x="668.6" y="493.4" type="curve"/>
    </contour>
    <contour>
      <point x="618.2" y="712.8" type="curve" smooth="yes"/>
      <point x="425.8" y="712.8"/>
      <point x="320.8" y="834.2"/>
      <point x="320.8" y="1008.0" type="curve" smooth="yes"/>
      <point x="320.8" y="1175.2"/>
      <point x="428.6" y="1314.0"/>
      <point x="625.2" y="1314.0" type="curve" smooth="yes"/>
      <point x="821.6" y="1314.0"/>
      <point x="920.0" y="1178.8"/>
      <point x="920.0" y="1013.8" type="curve" smooth="yes"/>
      <point x="920.0" y="788.0"/>
      <point x="754.2" y="712.8"/>
    </contour>
  </outline>
</glyph>
<glyph name="colon" format="1">
  <advance width="551.0"/>
  <unicode hex="003A"/>
  <outline>
    <contour>
      <point x="181.2" y="0.0" type="line"/>
      <point x="374.8" y="0.0" type="line"/>
      <point x="374.8" y="214.8" type="line"/>
      <point x="181.2" y="214.8" type="line"/>
    </contour>
    <contour>
      <point x="181.2" y="846.4" type="line"/>
      <point x="374.8" y="846.4" type="line"/>
      <point x="374.8" y="1059.8" type="line"/>
      <point x="181.2" y="1059.8" type="line"/>
    </contour>
  </outline>
</glyph>
<glyph name="semicolon" format="1">
  <advance width="542.4"/>
  <unicode hex="003B"/>
  <outline>
    <contour>
      <point x="187.6" y="846.4" type="line"/>
      <point x="381.2" y="846.4" type="line"/>
      <point x="381.2" y="1059.8" type="line"/>
      <point x="187.6" y="1059.8" type="line"/>
    </contour>
    <contour>
      <point x="159.0" y="-299.8" type="line"/>
      <point x="264.0" y="-299.8" type="line"/>
      <point x="385.4" y="189.8" type="line"/>
      <point x="212.8" y="189.8" type="line"/>
    </contour>
  </outline>
</glyph>
<glyph name="less" format="1">
  <advance width="1166.8"/>
  <unicode hex="003C"/>
  <outline>
    <contour>
      <point x="1034.4" y="141.0" type="line"/>
      <point x="1034.4" y="141.0"/>
      <point x="1035.2" y="293.4"/>
      <point x="1034.8" y="293.8" type="curve" smooth="yes"/>
      <point x="290.2" y="636.0" type="line"/>
      <point x="1036.8" y="1003.0" type="line"/>
      <point x="1036.8" y="1154.4" type="line"/>
      <point x="108.8" y="678.2" type="line"/>
      <point x="108.8" y="585.2" type="line"/>
    </contour>
  </outline>
</glyph>
<glyph name="equal" format="1">
  <advance width="1161.8"/>
  <unicode hex="003D"/>
  <outline>
    <contour>
      <point x="92.0" y="516.0" type="line"/>
      <point x="1056.0" y="516.0" type="line"/>
      <point x="1056.0" y="659.0" type="line"/>
      <point x="92.0" y="659.0" type="line"/>
    </contour>
    <contour>
      <point x="92" y="803" type="line"/>
      <point x="1056" y="803" type="line"/>
      <point x="1056" y="946" type="line"/>
      <point x="92" y="946" type="line"/>
    </contour>
  </outline>
</glyph>
<glyph name="greater" format="1">
  <advance width="1174.6"/>
  <unicode hex="003E"/>
  <outline>
    <contour>
      <point x="145.4" y="146.4" type="line"/>
      <point x="1073.4" y="584.0" type="line"/>
      <point x="1073.4" y="676.8" type="line"/>
      <point x="147.2" y="1159.6" type="line"/>
      <point x="147.2" y="1008.8" type="line"/>
      <point x="885.0" y="636.0" type="line"/>
      <point x="145.4" y="300.0" type="line"/>
    </contour>
  </outline>
</glyph>
<glyph name="question" format="1">
  <advance width="935.4"/>
  <unicode hex="003F"/>
  <outline>
    <contour>
      <point x="454.4" y="417.6" type="line"/>
      <point x="574.6" y="748.4"/>
      <point x="803.0" y="897.4"/>
      <point x="803.0" y="1161.4" type="curve" smooth="yes"/>
      <point x="803.0" y="1362.2"/>
      <point x="637.6" y="1473.0"/>
      <point x="458.6" y="1473.0" type="curve" smooth="yes"/>
      <point x="322.4" y="1473.0"/>
      <point x="218.8" y="1434.4"/>
      <point x="137.4" y="1379.2" type="curve"/>
      <point x="179.2" y="1249.2" type="line"/>
      <point x="225.8" y="1278.4"/>
      <point x="324.0" y="1333.2"/>
      <point x="439.0" y="1333.2" type="curve" smooth="yes"/>
      <point x="568.4" y="1333.2"/>
      <point x="646.6" y="1269.8"/>
      <point x="647.0" y="1141.4" type="curve"/>
      <point x="647.0" y="922.0"/>
      <point x="386.4" y="668.0"/>
      <point x="372.4" y="417.6" type="curve"/>
    </contour>
    <contour>
      <point x="416.0" y="-11.8" type="curve" smooth="yes"/>
      <point x="495.8" y="-11.8"/>
      <point x="535.4" y="47.2"/>
      <point x="535.4" y="108.2" type="curve" smooth="yes"/>
      <point x="535.4" y="168.4"/>
      <point x="495.8" y="228.0"/>
      <point x="416.0" y="228.0" type="curve" smooth="yes"/>
      <point x="336.0" y="228.0"/>
      <point x="296.2" y="168.4"/>
      <point x="296.2" y="108.2" type="curve" smooth="yes"/>
      <point x="296.2" y="48.0"/>
      <point x="336.4" y="-11.8"/>
    </contour>
  </outline>
</glyph>
<glyph name="at" format="1">
  <advance width="1946.4"/>
  <unicode hex="0040"/>
  <outline>
    <contour>
      <point x="951.6" y="-183.4" type="curve" smooth="yes"/>
      <point x="1145.4" y="-183.4"/>
      <point x="1332.0" y="-138.6"/>
      <point x="1462.6" y="-51.0" type="curve"/>
      <point x="1421.6" y="50.2" type="line"/>
      <point x="1287.0" y="-26.8"/>
      <point x="1121.6" y="-68.6"/>
      <point x="955.0" y="-68.6" type="curve" smooth="yes"/>
      <point x="548.4" y="-68.6"/>
      <point x="293.0" y="202.0"/>
      <point x="293.0" y="611.6" type="curve" smooth="yes"/>
      <point x="293.0" y="1027.2"/>
      <point x="582.0" y="1358.4"/>
      <point x="1015.2" y="1358.4" type="curve" smooth="yes"/>
      <point x="1424.2" y="1358.4"/>
      <point x="1664.4" y="1093.6"/>
      <point x="1664.4" y="759.8" type="curve" smooth="yes"/>
      <point x="1664.4" y="501.6"/>
      <point x="1550.0" y="334.8"/>
      <point x="1411.4" y="334.8" type="curve" smooth="yes"/>
      <point x="1324.4" y="334.8"/>
      <point x="1276.0" y="405.8"/>
      <point x="1276.0" y="496.4" type="curve" smooth="yes"/>
      <point x="1276.0" y="621.4"/>
      <point x="1313.8" y="807.8"/>
      <point x="1342.2" y="1011.2" type="curve"/>
      <point x="1255.2" y="1048.6"/>
      <point x="1128.6" y="1076.8"/>
      <point x="1030.8" y="1076.8" type="curve" smooth="yes"/>
      <point x="746.8" y="1076.8"/>
      <point x="588.2" y="835.8"/>
      <point x="588.2" y="576.6" type="curve" smooth="yes"/>
      <point x="588.2" y="368.6"/>
      <point x="693.8" y="225.8"/>
      <point x="887.2" y="225.8" type="curve" smooth="yes"/>
      <point x="1064.8" y="225.8"/>
      <point x="1169.2" y="399.2"/>
      <point x="1209.8" y="551.6" type="curve"/>
      <point x="1161.8" y="551.6" type="line"/>
      <point x="1174.0" y="344.6"/>
      <point x="1251.8" y="234.4"/>
      <point x="1412.8" y="234.4" type="curve" smooth="yes"/>
      <point x="1586.0" y="234.4"/>
      <point x="1789.2" y="409.8"/>
      <point x="1789.2" y="752.0" type="curve" smooth="yes"/>
      <point x="1789.2" y="1197.4"/>
      <point x="1452.6" y="1475.2"/>
      <point x="1020.0" y="1475.2" type="curve" smooth="yes"/>
      <point x="517.2" y="1475.2"/>
      <point x="154.8" y="1109.4"/>
      <point x="154.8" y="613.4" type="curve" smooth="yes"/>
      <point x="154.8" y="116.4"/>
      <point x="474.2" y="-183.4"/>
    </contour>
    <contour>
      <point x="902.8" y="332.8" type="curve" smooth="yes"/>
      <point x="790.2" y="332.8"/>
      <point x="726.0" y="413.2"/>
      <point x="726.0" y="575.8" type="curve" smooth="yes"/>
      <point x="726.0" y="779.2"/>
      <point x="844.0" y="974.6"/>
      <point x="1036.6" y="974.6" type="curve" smooth="yes"/>
      <point x="1089.4" y="974.6"/>
      <point x="1211.0" y="952.0"/>
      <point x="1250.4" y="938.4" type="curve"/>
      <point x="1196.0" y="1018.4" type="line"/>
      <point x="1192.4" y="980.6"/>
      <point x="1150.0" y="733.4"/>
      <point x="1144.6" y="696.2" type="curve" smooth="yes"/>
      <point x="1115.2" y="496.6"/>
      <point x="1057.2" y="332.8"/>
    </contour>
  </outline>
</glyph>
<glyph name="A" format="1">
  <advance width="1371.2"/>
  <unicode hex="0041"/>
  <outline>
    <contour>
      <point x="49.0" y="0.0" type="line"/>
      <point x="247.8" y="0.0" type="line"/>
      <point x="432.8" y="502.4" type="line"/>
      <point x="360.0" y="449.0" type="line"/>
      <point x="1018.6" y="449.0" type="line"/>
      <point x="943.4" y="499.2" type="line"/>
      <point x="1128.8" y="0.0" type="line"/>
      <point x="1322.2" y="0.0" type="line"/>
      <point x="793.0" y="1437.4" type="line"/>
      <point x="579.0" y="1437.4" type="line"/>
    </contour>
    <contour>
      <point x="438.6" y="525.2" type="line"/>
      <point x="711.0" y="1321.6" type="line"/>
      <point x="663.8" y="1322.8" type="line"/>
      <point x="937.2" y="525.6" type="line"/>
      <point x="979.6" y="582.4" type="line"/>
      <point x="399.6" y="582.4" type="line"/>
    </contour>
  </outline>
</glyph>
<glyph name="B" format="1">
  <advance width="1374.6"/>
  <unicode hex="0042"/>
  <outline>
    <contour>
      <point x="202.4" y="0.0" type="line"/>
      <point x="750.8" y="0.0" type="line" smooth="yes"/>
      <point x="1093.2" y="0.0"/>
      <point x="1263.0" y="155.8"/>
      <point x="1263.0" y="408.4" type="curve" smooth="yes"/>
      <point x="1263.0" y="627.6"/>
      <point x="1116.8" y="743.4"/>
      <point x="893.6" y="782.4" type="curve"/>
      <point x="893.6" y="733.6" type="line"/>
      <point x="1131.6" y="796.6"/>
      <point x="1206.4" y="913.4"/>
      <point x="1206.4" y="1083.4" type="curve" smooth="yes"/>
      <point x="1206.4" y="1331.8"/>
      <point x="1030.2" y="1437.4"/>
      <point x="667.4" y="1437.4" type="curve" smooth="yes"/>
      <point x="202.4" y="1437.4" type="line"/>
    </contour>
    <contour>
      <point x="343.6" y="147.2" type="line"/>
      <point x="396.4" y="92.6" type="line"/>
      <point x="396.4" y="740.8" type="line"/>
      <point x="343.0" y="687.8" type="line"/>
      <point x="671.8" y="687.8" type="line" smooth="yes"/>
      <point x="941.4" y="687.8"/>
      <point x="1069.0" y="619.4"/>
      <point x="1069.0" y="415.2" type="curve" smooth="yes"/>
      <point x="1069.0" y="224.2"/>
      <point x="962.0" y="147.2"/>
      <point x="719.0" y="147.2" type="curve" smooth="yes"/>
    </contour>
    <contour>
      <point x="342.4" y="823.4" type="line"/>
      <point x="396.4" y="778.2" type="line"/>
      <point x="396.4" y="1345.2" type="line"/>
      <point x="344.2" y="1292.6" type="line"/>
      <point x="660.8" y="1292.6" type="line" smooth="yes"/>
      <point x="904.4" y="1292.6"/>
      <point x="1020.4" y="1247.2"/>
      <point x="1020.4" y="1059.4" type="curve" smooth="yes"/>
      <point x="1020.4" y="871.4"/>
      <point x="903.4" y="823.4"/>
      <point x="717.4" y="823.4" type="curve" smooth="yes"/>
    </contour>
  </outline>
</glyph>
<glyph name="C" format="1">
  <advance width="1309.8"/>
  <unicode hex="0043"/>
  <outline>
    <contour>
      <point x="831.0" y="-19.0" type="curve" smooth="yes"/>
      <point x="1015.4" y="-19.0"/>
      <point x="1156.4" y="35.2"/>
      <point x="1219.2" y="66.6" type="curve"/>
      <point x="1175.8" y="211.0" type="line"/>
      <point x="1122.2" y="185.8"/>
      <point x="1000.6" y="136.2"/>
      <point x="851.0" y="136.2" type="curve" smooth="yes"/>
      <point x="533.4" y="136.2"/>
      <point x="329.8" y="355.6"/>
      <point x="329.8" y="718.0" type="curve" smooth="yes"/>
      <point x="329.8" y="1075.2"/>
      <point x="526.2" y="1302.8"/>
      <point x="839.2" y="1302.8" type="curve" smooth="yes"/>
      <point x="956.4" y="1302.8"/>
      <point x="1077.8" y="1269.6"/>
      <point x="1165.6" y="1215.8" type="curve"/>
      <point x="1227.0" y="1343.6" type="line"/>
      <point x="1131.6" y="1410.8"/>
      <point x="990.4" y="1456.0"/>
      <point x="823.2" y="1456.0" type="curve" smooth="yes"/>
      <point x="415.6" y="1456.0"/>
      <point x="135.4" y="1171.8"/>
      <point x="135.4" y="723.4" type="curve" smooth="yes"/>
      <point x="135.4" y="256.4"/>
      <point x="427.8" y="-19.0"/>
    </contour>
  </outline>
</glyph>
<glyph name="D" format="1">
  <advance width="1540.8"/>
  <unicode hex="0044"/>
  <outline>
    <contour>
      <point x="396.4" y="85.6" type="line"/>
      <point x="396.4" y="1351.0" type="line"/>
      <point x="337.4" y="1292.6" type="line"/>
      <point x="614.8" y="1292.6" type="line" smooth="yes"/>
      <point x="994.2" y="1292.6"/>
      <point x="1212.6" y="1130.0"/>
      <point x="1212.6" y="718.0" type="curve" smooth="yes"/>
      <point x="1212.6" y="341.8"/>
      <point x="1020.2" y="147.2"/>
      <point x="641.8" y="147.2" type="curve" smooth="yes"/>
      <point x="337.8" y="147.2" type="line"/>
    </contour>
    <contour>
      <point x="202.4" y="0.0" type="line"/>
      <point x="648.2" y="0.0" type="line" smooth="yes"/>
      <point x="1110.2" y="0.0"/>
      <point x="1406.2" y="249.8"/>
      <point x="1406.2" y="723.0" type="curve" smooth="yes"/>
      <point x="1406.2" y="1219.8"/>
      <point x="1083.8" y="1437.4"/>
      <point x="620.0" y="1437.4" type="curve" smooth="yes"/>
      <point x="202.4" y="1437.4" type="line"/>
    </contour>
  </outline>
</glyph>
<glyph name="E" format="1">
  <advance width="1185.8"/>
  <unicode hex="0045"/>
  <outline>
    <contour>
      <point x="202.4" y="0.0" type="line"/>
      <point x="1083.8" y="0.0" type="line"/>
      <point x="1096.4" y="147.2" type="line"/>
      <point x="338.4" y="147.2" type="line"/>
      <point x="396.4" y="89.4" type="line"/>
      <point x="396.4" y="727.8" type="line"/>
      <point x="338.0" y="672.8" type="line"/>
      <point x="1028.0" y="672.8" type="line"/>
      <point x="1028.0" y="817.6" type="line"/>
      <point x="338.4" y="817.6" type="line"/>
      <point x="396.4" y="761.8" type="line"/>
      <point x="396.4" y="1347.4" type="line"/>
      <point x="339.2" y="1292.6" type="line"/>
      <point x="1085.2" y="1292.6" type="line"/>
      <point x="1092.0" y="1437.4" type="line"/>
      <point x="202.4" y="1437.4" type="line"/>
    </contour>
  </outline>
</glyph>
<glyph name="F" format="1">
  <advance width="1116.0"/>
  <unicode hex="0046"/>
  <outline>
    <contour>
      <point x="202.4" y="0.0" type="line"/>
      <point x="398.8" y="0.0" type="line"/>
      <point x="398.8" y="710.6" type="line"/>
      <point x="327.8" y="650.8" type="line"/>
      <point x="996.2" y="650.8" type="line"/>
      <point x="996.2" y="791.8" type="line"/>
      <point x="322.0" y="791.8" type="line"/>
      <point x="398.8" y="736.2" type="line"/>
      <point x="398.8" y="1356.6" type="line"/>
      <point x="320.0" y="1288.6" type="line"/>
      <point x="1046.8" y="1288.6" type="line"/>
      <point x="1057.0" y="1437.4" type="line"/>
      <point x="202.4" y="1437.4" type="line"/>
    </contour>
  </outline>
</glyph>
<glyph name="G" format="1">
  <advance width="1472.2"/>
  <unicode hex="0047"/>
  <outline>
    <contour>
      <point x="820.2" y="-19.0" type="curve" smooth="yes"/>
      <point x="1015.8" y="-19.0"/>
      <point x="1171.0" y="14.4"/>
      <point x="1318.8" y="72.8" type="curve"/>
      <point x="1318.8" y="739.0" type="line"/>
      <point x="826.6" y="739.0" type="line"/>
      <point x="820.6" y="588.2" type="line"/>
      <point x="1201.6" y="588.2" type="line"/>
      <point x="1142.0" y="647.8" type="line"/>
      <point x="1142.0" y="111.8" type="line"/>
      <point x="1199.0" y="200.2" type="line"/>
      <point x="1139.8" y="174.2"/>
      <point x="1024.0" y="135.8"/>
      <point x="848.0" y="135.8" type="curve" smooth="yes"/>
      <point x="479.8" y="135.8"/>
      <point x="328.8" y="367.4"/>
      <point x="328.8" y="718.8" type="curve" smooth="yes"/>
      <point x="328.8" y="1058.4"/>
      <point x="524.2" y="1303.6"/>
      <point x="853.8" y="1303.6" type="curve" smooth="yes"/>
      <point x="1050.4" y="1303.6"/>
      <point x="1151.6" y="1243.0"/>
      <point x="1233.8" y="1198.6" type="curve"/>
      <point x="1281.2" y="1344.0" type="line"/>
      <point x="1159.0" y="1424.6"/>
      <point x="1018.4" y="1456.0"/>
      <point x="849.4" y="1456.0" type="curve" smooth="yes"/>
      <point x="417.0" y="1456.0"/>
      <point x="134.4" y="1150.8"/>
      <point x="134.4" y="717.0" type="curve" smooth="yes"/>
      <point x="134.4" y="291.2"/>
      <point x="375.0" y="-19.0"/>
    </contour>
  </outline>
</glyph>
<glyph name="H" format="1">
  <advance width="1525.6"/>
  <unicode hex="0048"/>
  <outline>
    <contour>
      <point x="200.6" y="0.0" type="line"/>
      <point x="394.6" y="0.0" type="line"/>
      <point x="394.6" y="721.2" type="line"/>
      <point x="328.4" y="667.4" type="line"/>
      <point x="1201.0" y="667.4" type="line"/>
      <point x="1131.0" y="721.2" type="line"/>
      <point x="1131.0" y="0.0" type="line"/>
      <point x="1325.0" y="0.0" type="line"/>
      <point x="1325.0" y="1437.4" type="line"/>
      <point x="1131.0" y="1437.4" type="line"/>
      <point x="1131.0" y="755.6" type="line"/>
      <point x="1197.0" y="810.0" type="line"/>
      <point x="328.0" y="810.0" type="line"/>
      <point x="394.6" y="755.6" type="line"/>
      <point x="394.6" y="1437.4" type="line"/>
      <point x="200.6" y="1437.4" type="line"/>
    </contour>
  </outline>
</glyph>
<glyph name="I" format="1">
  <advance width="800.0"/>
  <unicode hex="0049"/>
  <outline>
    <contour>
      <point x="116.4" y="1437.4" type="line"/>
      <point x="116.4" y="1319.6" type="line"/>
      <point x="359.0" y="1319.6" type="line"/>
      <point x="304.4" y="1368.4" type="line"/>
      <point x="304.4" y="63.4" type="line"/>
      <point x="361.6" y="117.4" type="line"/>
      <point x="116.4" y="117.4" type="line"/>
      <point x="116.4" y="0.0" type="line"/>
      <point x="684.2" y="0.0" type="line"/>
      <point x="684.2" y="117.4" type="line"/>
      <point x="437.2" y="117.4" type="line"/>
      <point x="498.4" y="64.2" type="line"/>
      <point x="498.4" y="1368.4" type="line"/>
      <point x="439.6" y="1319.6" type="line"/>
      <point x="684.2" y="1319.6" type="line"/>
      <point x="684.2" y="1437.4" type="line"/>
    </contour>
  </outline>
</glyph>
<glyph name="J" format="1">
  <advance width="782.8"/>
  <unicode hex="004A"/>
  <outline>
    <contour>
      <point x="138.2" y="-177.2" type="line"/>
      <point x="451.0" y="-177.2"/>
      <point x="580.8" y="-6.0"/>
      <point x="580.8" y="298.6" type="curve" smooth="yes"/>
      <point x="580.8" y="1437.4" type="line"/>
      <point x="386.4" y="1437.4" type="line"/>
      <point x="386.4" y="276.2" type="line" smooth="yes"/>
      <point x="386.4" y="95.6"/>
      <point x="320.2" y="-21.2"/>
      <point x="121.8" y="-21.2" type="curve" smooth="yes"/>
      <point x="11.0" y="-21.2" type="line"/>
      <point x="11.0" y="-177.2" type="line"/>
    </contour>
  </outline>
</glyph>
<glyph name="K" format="1">
  <advance width="1333.2"/>
  <unicode hex="004B"/>
  <outline>
    <contour>
      <point x="202.4" y="0.0" type="line"/>
      <point x="396.4" y="0.0" type="line"/>
      <point x="396.4" y="647.0" type="line"/>
      <point x="347.2" y="534.2" type="line"/>
      <point x="576.2" y="742.4" type="line"/>
      <point x="491.4" y="748.4" type="line"/>
      <point x="1065.6" y="0.0" type="line"/>
      <point x="1292.0" y="0.0" type="line"/>
      <point x="630.6" y="852.6" type="line"/>
      <point x="630.6" y="752.4" type="line"/>
      <point x="1260.8" y="1437.4" type="line"/>
      <point x="1034.8" y="1437.4" type="line"/>
      <point x="344.4" y="700.8" type="line"/>
      <point x="396.4" y="691.2" type="line"/>
      <point x="396.4" y="1437.4" type="line"/>
      <point x="202.4" y="1437.4" type="line"/>
    </contour>
  </outline>
</glyph>
<glyph name="L" format="1">
  <advance width="1125.0"/>
  <unicode hex="004C"/>
  <outline>
    <contour>
      <point x="202.4" y="0.0" type="line"/>
      <point x="1059.4" y="0.0" type="line"/>
      <point x="1065.0" y="147.2" type="line"/>
      <point x="323.0" y="147.2" type="line"/>
      <point x="396.4" y="72.2" type="line"/>
      <point x="396.4" y="1437.4" type="line"/>
      <point x="202.4" y="1437.4" type="line"/>
    </contour>
  </outline>
</glyph>
<glyph name="M" format="1">
  <advance width="1839.6"/>
  <unicode hex="004D"/>
  <outline>
    <contour>
      <point x="182.0" y="0.0" type="line"/>
      <point x="365.6" y="0.0" type="line"/>
      <point x="379.2" y="845.2" type="line"/>
      <point x="379.2" y="1267.0" type="line"/>
      <point x="343.4" y="1267.0" type="line"/>
      <point x="838.0" y="169.4" type="line"/>
      <point x="999.0" y="169.4" type="line"/>
      <point x="1503.0" y="1267.0" type="line"/>
      <point x="1461.6" y="1267.0" type="line"/>
      <point x="1461.6" y="848.8" type="line"/>
      <point x="1475.2" y="0.0" type="line"/>
      <point x="1657.2" y="0.0" type="line"/>
      <point x="1626.0" y="1437.4" type="line"/>
      <point x="1405.0" y="1437.4" type="line"/>
      <point x="883.0" y="291.4" type="line"/>
      <point x="958.8" y="291.4" type="line"/>
      <point x="439.8" y="1437.4" type="line"/>
      <point x="212.0" y="1437.4" type="line"/>
    </contour>
  </outline>
</glyph>
<glyph name="N" format="1">
  <advance width="1577.4"/>
  <unicode hex="004E"/>
  <outline>
    <contour>
      <point x="202.4" y="0.0" type="line"/>
      <point x="385.0" y="0.0" type="line"/>
      <point x="385.0" y="713.4" type="line"/>
      <point x="367.2" y="1270.8" type="line"/>
      <point x="322.2" y="1257.6" type="line"/>
      <point x="1172.4" y="0.0" type="line"/>
      <point x="1375.0" y="0.0" type="line"/>
      <point x="1375.0" y="1437.4" type="line"/>
      <point x="1193.0" y="1437.4" type="line"/>
      <point x="1193.0" y="660.0" type="line"/>
      <point x="1206.2" y="165.6" type="line"/>
      <point x="1251.0" y="168.6" type="line"/>
      <point x="397.8" y="1437.4" type="line"/>
      <point x="202.4" y="1437.4" type="line"/>
    </contour>
  </outline>
</glyph>
<glyph name="O" format="1">
  <advance width="1651.6"/>
  <unicode hex="004F"/>
  <outline>
    <contour>
      <point x="827.0" y="134.2" type="curve" smooth="yes"/>
      <point x="493.2" y="134.2"/>
      <point x="329.8" y="372.8"/>
      <point x="329.8" y="710.6" type="curve" smooth="yes"/>
      <point x="329.8" y="1062.4"/>
      <point x="502.6" y="1302.0"/>
      <point x="828.2" y="1302.0" type="curve" smooth="yes"/>
      <point x="1154.4" y="1302.0"/>
      <point x="1322.2" y="1060.6"/>
      <point x="1322.2" y="710.6" type="curve" smooth="yes"/>
      <point x="1322.2" y="372.8"/>
      <point x="1160.8" y="134.2"/>
    </contour>
    <contour>
      <point x="828.2" y="-19.0" type="curve" smooth="yes"/>
      <point x="1265.8" y="-19.0"/>
      <point x="1516.2" y="273.6"/>
      <point x="1516.2" y="709.6" type="curve" smooth="yes"/>
      <point x="1516.2" y="1161.6"/>
      <point x="1255.4" y="1456.0"/>
      <point x="828.8" y="1456.0" type="curve" smooth="yes"/>
      <point x="394.4" y="1456.0"/>
      <point x="135.4" y="1164.6"/>
      <point x="135.4" y="711.4" type="curve" smooth="yes"/>
      <point x="135.4" y="268.8"/>
      <point x="385.8" y="-19.0"/>
    </contour>
  </outline>
</glyph>
<glyph name="P" format="1">
  <advance width="1273.6"/>
  <unicode hex="0050"/>
  <outline>
    <contour>
      <point x="202.4" y="0.0" type="line"/>
      <point x="396.4" y="0.0" type="line"/>
      <point x="396.4" y="734.0" type="line"/>
      <point x="334.6" y="676.2" type="line"/>
      <point x="702.6" y="676.2" type="line" smooth="yes"/>
      <point x="1050.6" y="676.2"/>
      <point x="1186.6" y="823.4"/>
      <point x="1186.6" y="1077.4" type="curve" smooth="yes"/>
      <point x="1186.6" y="1346.2"/>
      <point x="983.0" y="1437.4"/>
      <point x="705.6" y="1437.4" type="curve" smooth="yes"/>
      <point x="202.4" y="1437.4" type="line"/>
    </contour>
    <contour>
      <point x="696.0" y="824.6" type="curve" smooth="yes"/>
      <point x="335.2" y="824.6" type="line"/>
      <point x="396.4" y="772.2" type="line"/>
      <point x="396.4" y="1351.0" type="line"/>
      <point x="335.2" y="1292.6" type="line"/>
      <point x="704.8" y="1292.6" type="line" smooth="yes"/>
      <point x="883.4" y="1292.6"/>
      <point x="992.6" y="1240.0"/>
      <point x="992.6" y="1074.4" type="curve" smooth="yes"/>
      <point x="992.6" y="891.8"/>
      <point x="914.2" y="824.6"/>
    </contour>
  </outline>
</glyph>
<glyph name="Q" format="1">
  <advance width="1650.8"/>
  <unicode hex="0051"/>
  <outline>
    <contour>
      <point x="1248.0" y="-438.6" type="curve"/>
      <point x="1359.0" y="-337.4" type="line"/>
      <point x="1264.2" y="-240.8"/>
      <point x="1142.0" y="-68.2"/>
      <point x="1092.0" y="30.6" type="curve"/>
      <point x="933.4" y="-1.4" type="line"/>
      <point x="1020.4" y="-168.4"/>
      <point x="1171.0" y="-371.0"/>
    </contour>
    <component base="O"/>
  </outline>
</glyph>
<glyph name="R" format="1">
  <advance width="1414.8"/>
  <unicode hex="0052"/>
  <outline>
    <contour>
      <point x="202.4" y="0.0" type="line"/>
      <point x="396.4" y="0.0" type="line"/>
      <point x="396.4" y="717.8" type="line"/>
      <point x="335.4" y="671.6" type="line"/>
      <point x="890.0" y="671.6" type="line"/>
      <point x="793.0" y="728.0" type="line"/>
      <point x="915.6" y="442.2" type="line"/>
      <point x="1104.2" y="0.0" type="line"/>
      <point x="1305.8" y="0.0" type="line"/>
      <point x="1082.8" y="498.0" type="line"/>
      <point x="964.8" y="775.4" type="line"/>
      <point x="953.4" y="686.8" type="line"/>
      <point x="1135.2" y="729.0"/>
      <point x="1248.0" y="831.0"/>
      <point x="1248.0" y="1060.8" type="curve" smooth="yes"/>
      <point x="1248.0" y="1326.6"/>
      <point x="1091.6" y="1437.4"/>
      <point x="785.6" y="1437.4" type="curve" smooth="yes"/>
      <point x="202.4" y="1437.4" type="line"/>
    </contour>
    <contour>
      <point x="396.4" y="755.2" type="line"/>
      <point x="396.4" y="1349.4" type="line"/>
      <point x="335.8" y="1292.6" type="line"/>
      <point x="790.0" y="1292.6" type="line" smooth="yes"/>
      <point x="996.2" y="1292.6"/>
      <point x="1057.0" y="1209.0"/>
      <point x="1057.0" y="1058.0" type="curve" smooth="yes"/>
      <point x="1057.0" y="879.6"/>
      <point x="1006.0" y="809.4"/>
      <point x="762.6" y="809.4" type="curve" smooth="yes"/>
      <point x="334.6" y="809.4" type="line"/>
    </contour>
  </outline>
</glyph>
<glyph name="S" format="1">
  <advance width="1213.07704989"/>
  <unicode hex="0053"/>
  <outline>
    <contour>
      <point x="604.4" y="-19.0" type="curve" smooth="yes"/>
      <point x="880.4" y="-19.0"/>
      <point x="1088.4" y="95.6"/>
      <point x="1098.0" y="380.2" type="curve" smooth="yes"/>
      <point x="1106.4" y="625.6"/>
      <point x="958.6" y="713.0"/>
      <point x="744.0" y="792.4" type="curve" smooth="yes"/>
      <point x="515.2" y="878.6" type="line" smooth="yes"/>
      <point x="387.6" y="927.8"/>
      <point x="342.6" y="971.2"/>
      <point x="342.6" y="1087.2" type="curve" smooth="yes"/>
      <point x="342.6" y="1250.2"/>
      <point x="485.6" y="1302.0"/>
      <point x="640.6" y="1302.0" type="curve" smooth="yes"/>
      <point x="798.0" y="1302.0"/>
      <point x="925.6" y="1228.6"/>
      <point x="981.8" y="1199.8" type="curve"/>
      <point x="1049.8" y="1336.2" type="line"/>
      <point x="960.6" y="1398.0"/>
      <point x="808.6" y="1456.0"/>
      <point x="643.6" y="1456.0" type="curve" smooth="yes"/>
      <point x="398.6" y="1456.0"/>
      <point x="163.4" y="1355.8"/>
      <point x="163.4" y="1078.2" type="curve" smooth="yes"/>
      <point x="163.4" y="878.8"/>
      <point x="275.8" y="788.6"/>
      <point x="456.0" y="721.8" type="curve" smooth="yes"/>
      <point x="694.6" y="634.4" type="line" smooth="yes"/>
      <point x="865.0" y="569.8"/>
      <point x="923.6" y="514.0"/>
      <point x="919.4" y="379.4" type="curve" smooth="yes"/>
      <point x="913.4" y="203.6"/>
      <point x="806.2" y="134.2"/>
      <point x="611.4" y="134.2" type="curve" smooth="yes"/>
      <point x="436.4" y="134.2"/>
      <point x="301.8" y="193.4"/>
      <point x="211.2" y="258.6" type="curve"/>
      <point x="147.2" y="116.8" type="line"/>
      <point x="226.0" y="62.8"/>
      <point x="365.4" y="-19.0"/>
    </contour>
  </outline>
</glyph>
<glyph name="T" format="1">
  <advance width="1164.4"/>
  <unicode hex="0054"/>
  <outline>
    <contour>
      <point x="483.2" y="0.0" type="line"/>
      <point x="677.6" y="0.0" type="line"/>
      <point x="677.6" y="1354.2" type="line"/>
      <point x="621.0" y="1287.8" type="line"/>
      <point x="1110.0" y="1287.8" type="line"/>
      <point x="1110.0" y="1437.4" type="line"/>
      <point x="54.4" y="1437.4" type="line"/>
      <point x="54.4" y="1287.8" type="line"/>
      <point x="539.8" y="1287.8" type="line"/>
      <point x="483.2" y="1353.4" type="line"/>
    </contour>
  </outline>
</glyph>
<glyph name="U" format="1">
  <advance width="1491.2"/>
  <unicode hex="0055"/>
  <outline>
    <contour>
      <point x="746.4" y="-19.0" type="curve" smooth="yes"/>
      <point x="1127.8" y="-19.0"/>
      <point x="1325.4" y="207.0"/>
      <point x="1325.4" y="523.6" type="curve" smooth="yes"/>
      <point x="1325.4" y="1437.4" type="line"/>
      <point x="1131.4" y="1437.4" type="line"/>
      <point x="1131.4" y="531.8" type="line" smooth="yes"/>
      <point x="1131.4" y="272.8"/>
      <point x="999.2" y="135.8"/>
      <point x="746.4" y="135.8" type="curve" smooth="yes"/>
      <point x="486.4" y="135.8"/>
      <point x="360.2" y="273.0"/>
      <point x="360.2" y="532.0" type="curve" smooth="yes"/>
      <point x="360.2" y="1437.4" type="line"/>
      <point x="165.8" y="1437.4" type="line"/>
      <point x="165.8" y="525.8" type="line" smooth="yes"/>
      <point x="165.8" y="200.8"/>
      <point x="361.6" y="-19.0"/>
    </contour>
  </outline>
</glyph>
<glyph name="V" format="1">
  <advance width="1382.2"/>
  <unicode hex="0056"/>
  <outline>
    <contour>
      <point x="600.0" y="0.0" type="line"/>
      <point x="782.0" y="0.0" type="line"/>
      <point x="1311.8" y="1437.4" type="line"/>
      <point x="1110.8" y="1437.4" type="line"/>
      <point x="798.6" y="538.6" type="line"/>
      <point x="661.4" y="138.0" type="line"/>
      <point x="724.2" y="138.0" type="line"/>
      <point x="586.0" y="535.2" type="line"/>
      <point x="273.2" y="1437.4" type="line"/>
      <point x="70.4" y="1437.4" type="line"/>
    </contour>
  </outline>
</glyph>
<glyph name="W" format="1">
  <advance width="2056.8"/>
  <unicode hex="0057"/>
  <outline>
    <contour>
      <point x="486.2" y="0.0" type="line"/>
      <point x="670.2" y="0.0" type="line"/>
      <point x="1055.6" y="1253.4" type="line"/>
      <point x="1006.8" y="1253.4" type="line"/>
      <point x="1380.6" y="0.0" type="line"/>
      <point x="1568.2" y="0.0" type="line"/>
      <point x="2002.0" y="1436.8" type="line"/>
      <point x="1814.4" y="1436.8" type="line"/>
      <point x="1452.8" y="177.8" type="line"/>
      <point x="1493.0" y="177.8" type="line"/>
      <point x="1121.2" y="1409.4" type="line"/>
      <point x="936.8" y="1409.4" type="line"/>
      <point x="562.0" y="176.6" type="line"/>
      <point x="603.2" y="176.6" type="line"/>
      <point x="241.0" y="1436.8" type="line"/>
      <point x="54.8" y="1436.8" type="line"/>
    </contour>
  </outline>
</glyph>
<glyph name="X" format="1">
  <advance width="1374.0"/>
  <unicode hex="0058"/>
  <outline>
    <contour>
      <point x="117.2" y="0.0" type="line"/>
      <point x="309.4" y="0.0" type="line"/>
      <point x="701.0" y="606.8" type="line"/>
      <point x="787.0" y="698.4" type="line"/>
      <point x="1257.8" y="1437.4" type="line"/>
      <point x="1063.4" y="1437.4" type="line"/>
      <point x="693.8" y="844.8" type="line"/>
      <point x="598.0" y="746.2" type="line"/>
    </contour>
    <contour>
      <point x="1071.6" y="0.0" type="line"/>
      <point x="1267.0" y="0.0" type="line"/>
      <point x="315.2" y="1437.4" type="line"/>
      <point x="120.6" y="1437.4" type="line"/>
    </contour>
  </outline>
</glyph>
<glyph name="Y" format="1">
  <advance width="1262.8"/>
  <unicode hex="0059"/>
  <outline>
    <contour>
      <point x="549.0" y="0.0" type="line"/>
      <point x="736.4" y="0.0" type="line"/>
      <point x="736.4" y="661.2" type="line"/>
      <point x="691.2" y="495.2" type="line"/>
      <point x="1205.2" y="1437.4" type="line"/>
      <point x="1011.6" y="1437.4" type="line"/>
      <point x="609.8" y="680.4" type="line"/>
      <point x="674.2" y="680.4" type="line"/>
      <point x="252.6" y="1437.4" type="line"/>
      <point x="57.6" y="1437.4" type="line"/>
      <point x="600.0" y="485.2" type="line"/>
      <point x="549.0" y="659.4" type="line"/>
    </contour>
  </outline>
</glyph>
<glyph name="Z" format="1">
  <advance width="1228.4"/>
  <unicode hex="005A"/>
  <outline>
    <contour>
      <point x="148.8" y="0.0" type="line"/>
      <point x="1102.6" y="0.0" type="line"/>
      <point x="1109.2" y="147.2" type="line"/>
      <point x="309.6" y="147.2" type="line"/>
      <point x="337.2" y="84.2" type="line"/>
      <point x="1102.0" y="1305.6" type="line"/>
      <point x="1096.0" y="1437.4" type="line"/>
      <point x="178.4" y="1437.4" type="line"/>
      <point x="178.4" y="1292.6" type="line"/>
      <point x="953.0" y="1292.6" type="line"/>
      <point x="917.2" y="1348.4" type="line"/>
      <point x="148.8" y="132.4" type="line"/>
    </contour>
  </outline>
</glyph>
<glyph name="bracketleft" format="1">
  <advance width="686.4"/>
  <unicode hex="005B"/>
  <outline>
    <contour>
      <point x="193.6" y="-229.4" type="line"/>
      <point x="193.6" y="1471.8" type="line"/>
      <point x="631.4" y="1471.8" type="line"/>
      <point x="631.4" y="1343.4" type="line"/>
      <point x="356.4" y="1343.4" type="line"/>
      <point x="356.4" y="-101.8" type="line"/>
      <point x="631.4" y="-101.8" type="line"/>
      <point x="631.4" y="-229.4" type="line"/>
    </contour>
  </outline>
</glyph>
<glyph name="backslash" format="1">
  <advance width="912.6"/>
  <unicode hex="005C"/>
  <outline>
    <contour>
      <point x="654.8" y="-36.0" type="line"/>
      <point x="122.8" y="1430.6" type="line"/>
      <point x="269.4" y="1430.6" type="line"/>
      <point x="800.0" y="-36.0" type="line"/>
    </contour>
  </outline>
</glyph>
<glyph name="bracketright" format="1">
  <advance width="688.2"/>
  <unicode hex="005D"/>
  <outline>
    <contour>
      <point x="75.0" y="-229.4" type="line"/>
      <point x="75.0" y="-102.2" type="line"/>
      <point x="350.6" y="-102.2" type="line"/>
      <point x="350.6" y="1343.0" type="line"/>
      <point x="75.0" y="1343.0" type="line"/>
      <point x="75.0" y="1471.8" type="line"/>
      <point x="512.2" y="1471.8" type="line"/>
      <point x="512.2" y="-229.4" type="line"/>
    </contour>
  </outline>
</glyph>
<glyph name="asciicircum" format="1">
  <advance width="1229.2"/>
  <unicode hex="005E"/>
  <outline>
    <contour>
      <point x="136.2" y="570.0" type="line"/>
      <point x="564.8" y="1465.6" type="line"/>
      <point x="662.0" y="1465.6" type="line"/>
      <point x="1115.2" y="570.0" type="line"/>
      <point x="974.4" y="570.0" type="line"/>
      <point x="615.0" y="1290.4" type="line"/>
      <point x="275.2" y="570.0" type="line"/>
    </contour>
  </outline>
</glyph>
<glyph name="underscore" format="1">
  <advance width="1051.0"/>
  <unicode hex="005F"/>
  <outline>
    <contour>
      <point x="79.2" y="-248.8" type="line"/>
      <point x="984.0" y="-248.8" type="line"/>
      <point x="984.0" y="-121.2" type="line"/>
      <point x="79.2" y="-121.2" type="line"/>
    </contour>
  </outline>
</glyph>
<glyph name="grave" format="1">
  <advance width="621.0"/>
  <unicode hex="0060"/>
  <outline>
    <contour>
      <point x="399.0" y="1208.8" type="line"/>
      <point x="503.6" y="1208.8" type="line"/>
      <point x="326.0" y="1583.6" type="line"/>
      <point x="120.6" y="1583.6" type="line"/>
    </contour>
  </outline>
</glyph>
<glyph name="a" format="1">
  <advance width="1132.6"/>
  <unicode hex="0061"/>
  <outline>
    <contour>
      <point x="447.8" y="-16.6" type="curve" smooth="yes"/>
      <point x="585.2" y="-16.6"/>
      <point x="742.0" y="33.4"/>
      <point x="847.6" y="189.6" type="curve"/>
      <point x="805.0" y="204.8" type="line"/>
      <point x="838.6" y="0.6" type="line"/>
      <point x="970.2" y="0.6" type="line"/>
      <point x="970.2" y="698.4" type="line" smooth="yes"/>
      <point x="970.2" y="981.6"/>
      <point x="797.6" y="1081.8"/>
      <point x="555.8" y="1081.8" type="curve" smooth="yes"/>
      <point x="432.8" y="1081.8"/>
      <point x="281.8" y="1047.2"/>
      <point x="172.6" y="994.8" type="curve"/>
      <point x="217.6" y="870.6" type="line"/>
      <point x="318.6" y="917.4"/>
      <point x="450.6" y="947.4"/>
      <point x="553.8" y="947.4" type="curve" smooth="yes"/>
      <point x="710.4" y="947.4"/>
      <point x="791.6" y="871.2"/>
      <point x="791.6" y="723.0" type="curve" smooth="yes"/>
      <point x="791.6" y="602.4" type="line"/>
      <point x="827.6" y="639.4" type="line"/>
      <point x="593.6" y="631.8" type="line" smooth="yes"/>
      <point x="268.8" y="623.0"/>
      <point x="116.4" y="514.0"/>
      <point x="116.4" y="285.6" type="curve" smooth="yes"/>
      <point x="116.4" y="86.6"/>
      <point x="258.0" y="-16.6"/>
    </contour>
    <contour>
      <point x="464.8" y="115.4" type="curve" smooth="yes"/>
      <point x="372.0" y="115.4"/>
      <point x="287.6" y="169.4"/>
      <point x="287.6" y="286.6" type="curve" smooth="yes"/>
      <point x="287.6" y="435.4"/>
      <point x="362.8" y="508.2"/>
      <point x="642.8" y="515.0" type="curve" smooth="yes"/>
      <point x="821.6" y="519.8" type="line"/>
      <point x="791.2" y="555.0" type="line"/>
      <point x="791.2" y="236.4" type="line"/>
      <point x="827.2" y="339.2" type="line"/>
      <point x="754.6" y="197.8"/>
      <point x="613.8" y="115.4"/>
    </contour>
  </outline>
</glyph>
<glyph name="b" format="1">
  <advance width="1245.2"/>
  <unicode hex="0062"/>
  <outline>
    <contour>
      <point x="680.6" y="-19.0" type="curve" smooth="yes"/>
      <point x="971.2" y="-19.0"/>
      <point x="1133.8" y="200.6"/>
      <point x="1133.8" y="530.0" type="curve" smooth="yes"/>
      <point x="1133.8" y="857.6"/>
      <point x="983.0" y="1081.6"/>
      <point x="687.6" y="1081.6" type="curve" smooth="yes"/>
      <point x="518.0" y="1081.6"/>
      <point x="382.2" y="978.0"/>
      <point x="317.8" y="848.2" type="curve"/>
      <point x="349.8" y="840.6" type="line"/>
      <point x="352.2" y="1085.6" type="line"/>
      <point x="352.2" y="1467.8" type="line"/>
      <point x="169.6" y="1455.4" type="line"/>
      <point x="169.6" y="0.0" type="line"/>
      <point x="318.8" y="0.0" type="line"/>
      <point x="341.6" y="260.4" type="line"/>
      <point x="295.2" y="251.0" type="line"/>
      <point x="344.0" y="133.8"/>
      <point x="475.8" y="-19.0"/>
    </contour>
    <contour>
      <point x="657.2" y="119.0" type="curve" smooth="yes"/>
      <point x="468.0" y="119.0"/>
      <point x="348.4" y="259.2"/>
      <point x="348.4" y="545.8" type="curve"/>
      <point x="348.6" y="792.0"/>
      <point x="451.4" y="944.0"/>
      <point x="664.6" y="944.0" type="curve" smooth="yes"/>
      <point x="867.6" y="944.0"/>
      <point x="953.0" y="780.6"/>
      <point x="953.0" y="530.0" type="curve" smooth="yes"/>
      <point x="953.0" y="272.2"/>
      <point x="857.8" y="119.0"/>
    </contour>
  </outline>
</glyph>
<glyph name="c" format="1">
  <advance width="997.8"/>
  <unicode hex="0063"/>
  <outline>
    <contour>
      <point x="615.4" y="-19.0" type="curve" smooth="yes"/>
      <point x="764.4" y="-19.0"/>
      <point x="863.4" y="26.8"/>
      <point x="901.0" y="56.2" type="curve"/>
      <point x="869.0" y="179.8" type="line"/>
      <point x="812.0" y="147.4"/>
      <point x="726.2" y="118.6"/>
      <point x="636.4" y="120.6" type="curve" smooth="yes"/>
      <point x="413.0" y="123.4"/>
      <point x="292.2" y="293.2"/>
      <point x="292.2" y="525.8" type="curve" smooth="yes"/>
      <point x="292.2" y="783.4"/>
      <point x="436.4" y="942.0"/>
      <point x="636.6" y="942.0" type="curve" smooth="yes"/>
      <point x="762.6" y="942.0"/>
      <point x="843.0" y="891.2"/>
      <point x="855.8" y="883.6" type="curve"/>
      <point x="905.0" y="1007.6" type="line"/>
      <point x="870.6" y="1031.2"/>
      <point x="771.4" y="1081.6"/>
      <point x="616.6" y="1081.6" type="curve" smooth="yes"/>
      <point x="328.0" y="1081.6"/>
      <point x="112.6" y="863.0"/>
      <point x="112.6" y="527.0" type="curve" smooth="yes"/>
      <point x="112.6" y="202.4"/>
      <point x="310.8" y="-19.0"/>
    </contour>
  </outline>
</glyph>
<glyph name="d" format="1">
  <advance width="1240.2"/>
  <unicode hex="0064"/>
  <outline>
    <contour>
      <point x="566.6" y="-18.6" type="curve" smooth="yes"/>
      <point x="791.2" y="-18.6"/>
      <point x="890.4" y="122.6"/>
      <point x="939.2" y="255.2" type="curve"/>
      <point x="896.8" y="258.2" type="line"/>
      <point x="920.4" y="0.0" type="line"/>
      <point x="1071.6" y="0.0" type="line"/>
      <point x="1071.6" y="1467.8" type="line"/>
      <point x="890.8" y="1455.4" type="line"/>
      <point x="890.8" y="1127.2" type="line"/>
      <point x="902.4" y="821.4" type="line"/>
      <point x="937.0" y="833.2" type="line"/>
      <point x="874.0" y="965.6"/>
      <point x="781.2" y="1081.6"/>
      <point x="564.2" y="1081.6" type="curve" smooth="yes"/>
      <point x="282.0" y="1081.6"/>
      <point x="112.6" y="858.6"/>
      <point x="112.6" y="537.6" type="curve" smooth="yes"/>
      <point x="112.6" y="202.8"/>
      <point x="272.8" y="-18.6"/>
    </contour>
    <contour>
      <point x="587.2" y="119.0" type="curve" smooth="yes"/>
      <point x="381.2" y="119.0"/>
      <point x="293.4" y="283.0"/>
      <point x="293.4" y="534.4" type="curve" smooth="yes"/>
      <point x="293.4" y="795.0"/>
      <point x="398.0" y="943.2"/>
      <point x="596.8" y="943.2" type="curve" smooth="yes"/>
      <point x="786.2" y="943.2"/>
      <point x="897.4" y="802.4"/>
      <point x="897.4" y="518.4" type="curve"/>
      <point x="896.6" y="272.2"/>
      <point x="802.8" y="119.0"/>
    </contour>
  </outline>
</glyph>
<glyph name="e" format="1">
  <advance width="1159.6"/>
  <unicode hex="0065"/>
  <outline>
    <contour>
      <point x="635.4" y="-19.4" type="curve" smooth="yes"/>
      <point x="793.4" y="-19.4"/>
      <point x="917.8" y="14.4"/>
      <point x="1018.8" y="73.6" type="curve"/>
      <point x="982.4" y="196.2" type="line"/>
      <point x="890.4" y="151.6"/>
      <point x="785.8" y="117.8"/>
      <point x="655.0" y="117.8" type="curve" smooth="yes"/>
      <point x="452.0" y="117.8"/>
      <point x="290.6" y="239.2"/>
      <point x="291.0" y="534.6" type="curve"/>
      <point x="246.0" y="497.8" type="line"/>
      <point x="1038.0" y="497.8" type="line"/>
      <point x="1038.0" y="497.8"/>
      <point x="1044.8" y="561.8"/>
      <point x="1044.8" y="586.8" type="curve" smooth="yes"/>
      <point x="1044.8" y="882.8"/>
      <point x="887.2" y="1081.2"/>
      <point x="615.8" y="1081.2" type="curve" smooth="yes"/>
      <point x="338.6" y="1080.8"/>
      <point x="112.6" y="869.8"/>
      <point x="112.6" y="526.2" type="curve" smooth="yes"/>
      <point x="112.6" y="186.6"/>
      <point x="330.2" y="-19.4"/>
    </contour>
    <contour>
      <point x="295.2" y="577.2" type="line"/>
      <point x="302.4" y="806.6"/>
      <point x="445.0" y="947.6"/>
      <point x="620.2" y="947.6" type="curve" smooth="yes"/>
      <point x="794.2" y="947.6"/>
      <point x="881.2" y="819.6"/>
      <point x="882.8" y="572.8" type="curve"/>
      <point x="929.4" y="615.4" type="line"/>
      <point x="246.8" y="615.4" type="line"/>
    </contour>
  </outline>
</glyph>
<glyph name="f" format="1">
  <advance width="763.2"/>
  <unicode hex="0066"/>
  <outline>
    <contour>
      <point x="263.6" y="0.0" type="line"/>
      <point x="444.4" y="0.0" type="line"/>
      <point x="444.4" y="985.0" type="line"/>
      <point x="401.8" y="942.2" type="line"/>
      <point x="695.2" y="942.2" type="line"/>
      <point x="695.2" y="1059.8" type="line"/>
      <point x="398.6" y="1059.8" type="line"/>
      <point x="444.4" y="1023.2" type="line"/>
      <point x="444.4" y="1132.0" type="line" smooth="yes"/>
      <point x="444.4" y="1322.6"/>
      <point x="505.0" y="1346.2"/>
      <point x="603.6" y="1346.2" type="curve" smooth="yes"/>
      <point x="648.6" y="1346.2"/>
      <point x="709.2" y="1337.4"/>
      <point x="722.0" y="1335.4" type="curve"/>
      <point x="735.8" y="1462.2" type="line"/>
      <point x="707.8" y="1467.8"/>
      <point x="642.8" y="1479.2"/>
      <point x="570.6" y="1479.2" type="curve" smooth="yes"/>
      <point x="382.4" y="1479.2"/>
      <point x="263.6" y="1393.2"/>
      <point x="263.6" y="1120.2" type="curve" smooth="yes"/>
      <point x="263.6" y="1022.4" type="line"/>
      <point x="307.6" y="1063.2" type="line"/>
      <point x="82.0" y="1042.0" type="line"/>
      <point x="77.0" y="942.2" type="line"/>
      <point x="299.6" y="942.2" type="line"/>
      <point x="263.6" y="987.8" type="line"/>
    </contour>
  </outline>
</glyph>
<glyph name="g" format="1">
  <advance width="1252.8"/>
  <unicode hex="0067"/>
  <outline>
    <contour>
      <point x="599.8" y="146.2" type="curve" smooth="yes"/>
      <point x="366.4" y="146.2"/>
      <point x="285.4" y="349.0"/>
      <point x="285.4" y="535.2" type="curve" smooth="yes"/>
      <point x="285.4" y="735.2"/>
      <point x="371.8" y="943.2"/>
      <point x="605.2" y="943.2" type="curve" smooth="yes"/>
      <point x="834.4" y="943.2"/>
      <point x="917.0" y="788.0"/>
      <point x="917.0" y="576.8" type="curve" smooth="yes"/>
      <point x="917.0" y="495.8" type="line"/>
      <point x="916.2" y="307.2"/>
      <point x="829.4" y="146.2"/>
    </contour>
    <contour>
      <point x="520.2" y="-461.2" type="curve" smooth="yes"/>
      <point x="934.6" y="-461.2"/>
      <point x="1093.0" y="-221.2"/>
      <point x="1093.0" y="112.6" type="curve" smooth="yes"/>
      <point x="1093.0" y="1059.8" type="line"/>
      <point x="929.4" y="1059.8" type="line"/>
      <point x="913.4" y="844.0" type="line"/>
      <point x="948.0" y="848.0" type="line"/>
      <point x="894.0" y="995.2"/>
      <point x="771.0" y="1081.6"/>
      <point x="590.0" y="1081.6" type="curve" smooth="yes"/>
      <point x="268.0" y="1081.6"/>
      <point x="104.6" y="828.6"/>
      <point x="104.6" y="527.0" type="curve" smooth="yes"/>
      <point x="104.6" y="264.8"/>
      <point x="260.6" y="8.4"/>
      <point x="577.4" y="8.4" type="curve" smooth="yes"/>
      <point x="778.8" y="8.4"/>
      <point x="915.0" y="116.0"/>
      <point x="957.4" y="281.6" type="curve"/>
      <point x="915.8" y="284.4" type="line"/>
      <point x="915.8" y="69.4" type="line" smooth="yes"/>
      <point x="915.8" y="-179.2"/>
      <point x="807.2" y="-320.0"/>
      <point x="511.6" y="-320.0" type="curve" smooth="yes"/>
      <point x="461.6" y="-320.0"/>
      <point x="339.8" y="-312.8"/>
      <point x="272.6" y="-310.2" type="curve"/>
      <point x="272.6" y="-451.4" type="line"/>
      <point x="367.0" y="-453.4"/>
      <point x="451.4" y="-461.2"/>
    </contour>
  </outline>
</glyph>
<glyph name="h" format="1">
  <advance width="1206.8"/>
  <unicode hex="0068"/>
  <outline>
    <contour>
      <point x="169.6" y="0.0" type="line"/>
      <point x="349.2" y="0.0" type="line"/>
      <point x="349.2" y="570.2" type="line" smooth="yes"/>
      <point x="349.2" y="758.8"/>
      <point x="411.0" y="943.2"/>
      <point x="657.0" y="943.2" type="curve" smooth="yes"/>
      <point x="813.4" y="943.2"/>
      <point x="868.6" y="846.0"/>
      <point x="868.6" y="648.0" type="curve" smooth="yes"/>
      <point x="868.6" y="0.0" type="line"/>
      <point x="1048.8" y="0.0" type="line"/>
      <point x="1048.8" y="657.0" type="line" smooth="yes"/>
      <point x="1048.8" y="931.2"/>
      <point x="920.4" y="1081.2"/>
      <point x="689.4" y="1081.2" type="curve" smooth="yes"/>
      <point x="511.4" y="1081.2"/>
      <point x="367.6" y="995.6"/>
      <point x="300.4" y="843.6" type="curve"/>
      <point x="342.2" y="828.6" type="line"/>
      <point x="350.4" y="1123.0" type="line"/>
      <point x="350.4" y="1467.4" type="line"/>
      <point x="169.6" y="1455.0" type="line"/>
    </contour>
  </outline>
</glyph>
<glyph name="i" format="1">
  <advance width="519.6"/>
  <unicode hex="0069"/>
  <outline>
    <contour>
      <point x="173.0" y="0.0" type="line"/>
      <point x="353.8" y="0.0" type="line"/>
      <point x="353.8" y="1059.8" type="line"/>
      <point x="173.0" y="1059.8" type="line"/>
    </contour>
    <contour>
      <point x="173.0" y="1262.4" type="line"/>
      <point x="353.8" y="1262.4" type="line"/>
      <point x="353.8" y="1437.4" type="line"/>
      <point x="173.0" y="1437.4" type="line"/>
    </contour>
  </outline>
</glyph>
<glyph name="j" format="1">
  <advance width="556.6"/>
  <unicode hex="006A"/>
  <outline>
    <contour>
      <point x="20.0" y="-353.0" type="line"/>
      <point x="78.8" y="-353.0" type="line" smooth="yes"/>
      <point x="315.6" y="-353.0"/>
      <point x="395.6" y="-247.8"/>
      <point x="395.6" y="10.8" type="curve" smooth="yes"/>
      <point x="395.6" y="1060.2" type="line"/>
      <point x="214.8" y="1060.2" type="line"/>
      <point x="214.8" y="31.0" type="line" smooth="yes"/>
      <point x="214.8" y="-149.2"/>
      <point x="208.6" y="-208.6"/>
      <point x="57.6" y="-208.6" type="curve" smooth="yes"/>
      <point x="7.6" y="-208.6" type="line"/>
    </contour>
    <contour>
      <point x="214.8" y="1262.4" type="line"/>
      <point x="395.6" y="1262.4" type="line"/>
      <point x="395.6" y="1437.4" type="line"/>
      <point x="214.8" y="1437.4" type="line"/>
    </contour>
  </outline>
</glyph>
<glyph name="k" format="1">
  <advance width="1115.8"/>
  <unicode hex="006B"/>
  <outline>
    <contour>
      <point x="169.6" y="0.0" type="line"/>
      <point x="350.4" y="0.0" type="line"/>
      <point x="350.4" y="429.4" type="line"/>
      <point x="304.2" y="334.2" type="line"/>
      <point x="503.4" y="517.4" type="line"/>
      <point x="436.0" y="517.4" type="line"/>
      <point x="875.4" y="0.0" type="line"/>
      <point x="1088.2" y="0.0" type="line"/>
      <point x="565.4" y="614.8" type="line"/>
      <point x="565.4" y="533.2" type="line"/>
      <point x="1074.0" y="1059.8" type="line"/>
      <point x="853.2" y="1059.8" type="line"/>
      <point x="305.6" y="501.0" type="line"/>
      <point x="343.4" y="501.0" type="line"/>
      <point x="350.4" y="751.4" type="line"/>
      <point x="350.4" y="1467.8" type="line"/>
      <point x="169.6" y="1455.4" type="line"/>
    </contour>
  </outline>
</glyph>
<glyph name="l" format="1">
  <advance width="673.4"/>
  <unicode hex="006C"/>
  <outline>
    <contour>
      <point x="493.0" y="-12.2" type="curve" smooth="yes"/>
      <point x="572.6" y="-12.2"/>
      <point x="640.8" y="5.4"/>
      <point x="653.4" y="7.2" type="curve"/>
      <point x="653.4" y="129.8" type="line"/>
      <point x="647.4" y="129.2"/>
      <point x="587.2" y="120.8"/>
      <point x="525.0" y="120.8" type="curve" smooth="yes"/>
      <point x="406.8" y="120.8"/>
      <point x="350.8" y="157.2"/>
      <point x="350.8" y="299.8" type="curve" smooth="yes"/>
      <point x="350.8" y="1467.8" type="line"/>
      <point x="170.0" y="1455.4" type="line"/>
      <point x="170.0" y="316.2" type="line" smooth="yes"/>
      <point x="170.0" y="62.4"/>
      <point x="298.0" y="-12.2"/>
    </contour>
  </outline>
</glyph>
<glyph name="m" format="1">
  <advance width="1784.0"/>
  <unicode hex="006D"/>
  <outline>
    <contour>
      <point x="169.6" y="0.0" type="line"/>
      <point x="350.4" y="0.0" type="line"/>
      <point x="350.4" y="627.0" type="line" smooth="yes"/>
      <point x="372.6" y="806.4"/>
      <point x="453.4" y="943.6"/>
      <point x="626.6" y="943.6" type="curve" smooth="yes"/>
      <point x="774.8" y="943.6"/>
      <point x="812.8" y="835.8"/>
      <point x="812.8" y="597.8" type="curve" smooth="yes"/>
      <point x="812.8" y="0.0" type="line"/>
      <point x="993.6" y="0.0" type="line"/>
      <point x="993.6" y="555.2" type="line"/>
      <point x="996.0" y="633.4"/>
      <point x="998.4" y="685.6"/>
      <point x="1007.0" y="715.6" type="curve" smooth="yes"/>
      <point x="1044.0" y="867.6"/>
      <point x="1147.2" y="943.6"/>
      <point x="1266.0" y="943.6" type="curve" smooth="yes"/>
      <point x="1446.4" y="943.6"/>
      <point x="1445.6" y="765.2"/>
      <point x="1445.6" y="603.2" type="curve" smooth="yes"/>
      <point x="1445.6" y="0.0" type="line"/>
      <point x="1626.4" y="0.0" type="line"/>
      <point x="1626.4" y="681.6" type="line" smooth="yes"/>
      <point x="1626.4" y="941.4"/>
      <point x="1521.6" y="1081.6"/>
      <point x="1297.8" y="1081.6" type="curve" smooth="yes"/>
      <point x="1121.6" y="1081.6"/>
      <point x="999.2" y="981.4"/>
      <point x="927.4" y="826.6" type="curve"/>
      <point x="970.8" y="826.6" type="line"/>
      <point x="925.6" y="966.6"/>
      <point x="853.2" y="1081.6"/>
      <point x="660.8" y="1081.6" type="curve" smooth="yes"/>
      <point x="485.4" y="1081.6"/>
      <point x="367.2" y="980.6"/>
      <point x="297.8" y="846.6" type="curve"/>
      <point x="345.4" y="837.2" type="line"/>
      <point x="316.0" y="1059.8" type="line"/>
      <point x="169.6" y="1059.8" type="line"/>
    </contour>
  </outline>
</glyph>
<glyph name="n" format="1">
  <advance width="1217.2"/>
  <unicode hex="006E"/>
  <outline>
    <contour>
      <point x="169.6" y="0.0" type="line"/>
      <point x="350.4" y="0.0" type="line"/>
      <point x="350.4" y="580.4" type="line" smooth="yes"/>
      <point x="350.4" y="776.8"/>
      <point x="420.2" y="943.6"/>
      <point x="669.0" y="943.6" type="curve" smooth="yes"/>
      <point x="833.4" y="943.6"/>
      <point x="878.6" y="836.8"/>
      <point x="878.4" y="661.6" type="curve"/>
      <point x="878.4" y="0.0" type="line"/>
      <point x="1059.2" y="0.0" type="line"/>
      <point x="1059.2" y="650.4" type="line" smooth="yes"/>
      <point x="1059.2" y="935.4"/>
      <point x="947.4" y="1081.6"/>
      <point x="703.4" y="1081.6" type="curve" smooth="yes"/>
      <point x="503.6" y="1081.6"/>
      <point x="379.6" y="991.2"/>
      <point x="308.0" y="857.8" type="curve"/>
      <point x="351.6" y="857.8" type="line"/>
      <point x="324.4" y="1059.8" type="line"/>
      <point x="169.6" y="1059.8" type="line"/>
    </contour>
  </outline>
</glyph>
<glyph name="o" format="1">
  <advance width="1229.6"/>
  <unicode hex="006F"/>
  <outline>
    <contour>
      <point x="614.8" y="118.6" type="curve" smooth="yes"/>
      <point x="403.0" y="118.6"/>
      <point x="292.2" y="288.6"/>
      <point x="292.2" y="528.4" type="curve" smooth="yes"/>
      <point x="292.2" y="773.0"/>
      <point x="404.2" y="943.6"/>
      <point x="614.8" y="943.6" type="curve" smooth="yes"/>
      <point x="830.8" y="943.6"/>
      <point x="937.4" y="772.4"/>
      <point x="937.4" y="527.8" type="curve" smooth="yes"/>
      <point x="937.4" y="287.8"/>
      <point x="832.2" y="118.6"/>
    </contour>
    <contour>
      <point x="614.8" y="-19.0" type="curve" smooth="yes"/>
      <point x="916.2" y="-19.0"/>
      <point x="1117.0" y="208.2"/>
      <point x="1117.0" y="529.6" type="curve" smooth="yes"/>
      <point x="1117.0" y="857.8"/>
      <point x="928.0" y="1081.6"/>
      <point x="614.8" y="1081.6" type="curve" smooth="yes"/>
      <point x="302.6" y="1081.6"/>
      <point x="112.6" y="858.4"/>
      <point x="112.6" y="529.6" type="curve" smooth="yes"/>
      <point x="112.6" y="208.4"/>
      <point x="307.8" y="-19.0"/>
    </contour>
  </outline>
</glyph>
<glyph name="p" format="1">
  <advance width="1241.4"/>
  <unicode hex="0070"/>
  <outline>
    <contour>
      <point x="170.4" y="-459.2" type="line"/>
      <point x="350.8" y="-449.2" type="line"/>
      <point x="350.8" y="-58.6" type="line"/>
      <point x="340.6" y="285.0" type="line"/>
      <point x="298.6" y="255.8" type="line"/>
      <point x="346.6" y="129.8"/>
      <point x="471.6" y="-19.0"/>
      <point x="683.8" y="-19.0" type="curve" smooth="yes"/>
      <point x="965.2" y="-19.0"/>
      <point x="1128.8" y="207.8"/>
      <point x="1128.8" y="527.6" type="curve" smooth="yes"/>
      <point x="1128.8" y="852.4"/>
      <point x="975.4" y="1081.6"/>
      <point x="687.2" y="1081.6" type="curve" smooth="yes"/>
      <point x="513.6" y="1081.6"/>
      <point x="375.0" y="981.6"/>
      <point x="305.8" y="821.4" type="curve"/>
      <point x="346.0" y="818.4" type="line"/>
      <point x="321.4" y="1059.8" type="line"/>
      <point x="170.4" y="1059.8" type="line"/>
    </contour>
    <contour>
      <point x="654.4" y="119.0" type="curve" smooth="yes"/>
      <point x="460.2" y="119.0"/>
      <point x="347.6" y="271.4"/>
      <point x="347.6" y="546.4" type="curve"/>
      <point x="348.4" y="789.0"/>
      <point x="445.0" y="943.6"/>
      <point x="660.0" y="943.6" type="curve" smooth="yes"/>
      <point x="862.0" y="943.6"/>
      <point x="948.0" y="778.6"/>
      <point x="948.0" y="529.6" type="curve" smooth="yes"/>
      <point x="948.0" y="276.6"/>
      <point x="853.6" y="119.0"/>
    </contour>
  </outline>
</glyph>
<glyph name="q" format="1">
  <advance width="1266.8"/>
  <unicode hex="0071"/>
  <outline>
    <contour>
      <point x="919.0" y="-459.2" type="line"/>
      <point x="1098.6" y="-449.6" type="line"/>
      <point x="1098.6" y="1059.8" type="line"/>
      <point x="935.8" y="1059.8" type="line"/>
      <point x="912.2" y="831.4" type="line"/>
      <point x="948.6" y="840.4" type="line"/>
      <point x="889.2" y="973.0"/>
      <point x="777.6" y="1081.6"/>
      <point x="577.0" y="1081.6" type="curve" smooth="yes"/>
      <point x="280.2" y="1081.6"/>
      <point x="112.6" y="850.2"/>
      <point x="112.6" y="524.6" type="curve" smooth="yes"/>
      <point x="112.6" y="208.4"/>
      <point x="299.2" y="-19.0"/>
      <point x="575.4" y="-19.0" type="curve" smooth="yes"/>
      <point x="799.2" y="-19.0"/>
      <point x="911.0" y="111.4"/>
      <point x="968.6" y="259.2" type="curve"/>
      <point x="926.0" y="278.4" type="line"/>
      <point x="919.0" y="-58.6" type="line"/>
    </contour>
    <contour>
      <point x="604.2" y="118.2" type="curve" smooth="yes"/>
      <point x="397.6" y="118.2"/>
      <point x="292.2" y="278.2"/>
      <point x="292.2" y="531.6" type="curve" smooth="yes"/>
      <point x="292.2" y="779.6"/>
      <point x="393.8" y="943.2"/>
      <point x="604.2" y="943.2" type="curve" smooth="yes"/>
      <point x="827.0" y="943.2"/>
      <point x="918.0" y="792.4"/>
      <point x="918.0" y="548.2" type="curve"/>
      <point x="918.6" y="273.0"/>
      <point x="837.2" y="118.2"/>
    </contour>
  </outline>
</glyph>
<glyph name="r" format="1">
  <advance width="813.4"/>
  <unicode hex="0072"/>
  <outline>
    <contour>
      <point x="170.0" y="0.0" type="line"/>
      <point x="350.8" y="0.0" type="line"/>
      <point x="350.8" y="596.4" type="line" smooth="yes"/>
      <point x="350.8" y="777.8"/>
      <point x="481.0" y="923.2"/>
      <point x="665.6" y="923.2" type="curve" smooth="yes"/>
      <point x="688.4" y="923.2"/>
      <point x="715.0" y="920.6"/>
      <point x="741.6" y="915.2" type="curve"/>
      <point x="748.0" y="1064.2" type="line"/>
      <point x="724.2" y="1068.4"/>
      <point x="697.4" y="1069.6"/>
      <point x="668.6" y="1069.6" type="curve" smooth="yes"/>
      <point x="536.2" y="1069.6"/>
      <point x="386.2" y="994.4"/>
      <point x="301.8" y="788.0" type="curve"/>
      <point x="343.0" y="781.2" type="line"/>
      <point x="316.0" y="1059.8" type="line"/>
      <point x="170.0" y="1059.8" type="line"/>
    </contour>
  </outline>
</glyph>
<glyph name="s" format="1">
  <advance width="968.0"/>
  <unicode hex="0073"/>
  <outline>
    <contour>
      <point x="489.6" y="-18.6" type="curve" smooth="yes"/>
      <point x="724.0" y="-18.6"/>
      <point x="863.2" y="87.2"/>
      <point x="863.2" y="285.0" type="curve" smooth="yes"/>
      <point x="863.2" y="445.2"/>
      <point x="796.0" y="536.6"/>
      <point x="571.2" y="602.4" type="curve" smooth="yes"/>
      <point x="474.2" y="630.8" type="line" smooth="yes"/>
      <point x="333.0" y="672.6"/>
      <point x="298.2" y="713.4"/>
      <point x="298.2" y="802.4" type="curve" smooth="yes"/>
      <point x="298.2" y="885.4"/>
      <point x="373.4" y="948.0"/>
      <point x="523.2" y="948.0" type="curve" smooth="yes"/>
      <point x="635.6" y="948.0"/>
      <point x="711.8" y="917.8"/>
      <point x="772.4" y="890.6" type="curve"/>
      <point x="816.0" y="1016.8" type="line"/>
      <point x="720.6" y="1061.0"/>
      <point x="631.0" y="1081.6"/>
      <point x="504.2" y="1081.6" type="curve" smooth="yes"/>
      <point x="278.4" y="1081.6"/>
      <point x="138.8" y="960.2"/>
      <point x="138.8" y="787.0" type="curve"/>
      <point x="139.2" y="651.8"/>
      <point x="204.6" y="556.6"/>
      <point x="398.4" y="500.8" type="curve" smooth="yes"/>
      <point x="505.0" y="470.2" type="line" smooth="yes"/>
      <point x="673.2" y="421.0"/>
      <point x="707.6" y="374.6"/>
      <point x="705.2" y="272.8" type="curve" smooth="yes"/>
      <point x="703.2" y="169.0"/>
      <point x="636.2" y="113.8"/>
      <point x="491.4" y="113.8" type="curve" smooth="yes"/>
      <point x="359.4" y="113.8"/>
      <point x="242.8" y="159.8"/>
      <point x="193.0" y="182.0" type="curve"/>
      <point x="148.2" y="57.4" type="line"/>
      <point x="181.8" y="38.6"/>
      <point x="321.8" y="-18.6"/>
    </contour>
  </outline>
</glyph>
<glyph name="t" format="1">
  <advance width="829.0"/>
  <unicode hex="0074"/>
  <outline>
    <contour>
      <point x="552.2" y="-12.2" type="curve" smooth="yes"/>
      <point x="667.8" y="-12.2"/>
      <point x="740.0" y="10.6"/>
      <point x="740.0" y="10.6" type="curve"/>
      <point x="740.0" y="130.2" type="line"/>
      <point x="740.0" y="130.2"/>
      <point x="650.0" y="118.6"/>
      <point x="586.6" y="118.6" type="curve" smooth="yes"/>
      <point x="482.0" y="118.6"/>
      <point x="414.2" y="157.2"/>
      <point x="414.2" y="328.0" type="curve" smooth="yes"/>
      <point x="414.2" y="985.6" type="line"/>
      <point x="378.2" y="947.8" type="line"/>
      <point x="724.2" y="947.8" type="line"/>
      <point x="724.2" y="1059.8" type="line"/>
      <point x="377.8" y="1059.8" type="line"/>
      <point x="414.2" y="1018.4" type="line"/>
      <point x="414.2" y="1328.6" type="line"/>
      <point x="289.8" y="1325.0" type="line"/>
      <point x="235.2" y="1028.0" type="line"/>
      <point x="283.8" y="1062.8" type="line"/>
      <point x="83.0" y="1048.6" type="line"/>
      <point x="77.0" y="948.2" type="line"/>
      <point x="269.4" y="948.2" type="line"/>
      <point x="233.4" y="986.6" type="line"/>
      <point x="233.4" y="330.2" type="line" smooth="yes"/>
      <point x="233.4" y="94.4"/>
      <point x="344.2" y="-12.2"/>
    </contour>
  </outline>
</glyph>
<glyph name="u" format="1">
  <advance width="1216.2"/>
  <unicode hex="0075"/>
  <outline>
    <contour>
      <point x="1048.2" y="1059.8" type="line"/>
      <point x="867.8" y="1059.8" type="line"/>
      <point x="867.8" y="468.6" type="line" smooth="yes"/>
      <point x="867.8" y="272.2"/>
      <point x="798.2" y="116.2"/>
      <point x="562.2" y="116.2" type="curve" smooth="yes"/>
      <point x="392.6" y="116.2"/>
      <point x="339.2" y="223.0"/>
      <point x="339.8" y="398.2" type="curve" smooth="yes"/>
      <point x="339.8" y="1059.8" type="line"/>
      <point x="159.0" y="1059.8" type="line"/>
      <point x="159.0" y="409.4" type="line" smooth="yes"/>
      <point x="159.0" y="120.0"/>
      <point x="275.2" y="-21.8"/>
      <point x="519.2" y="-21.8" type="curve" smooth="yes"/>
      <point x="719.0" y="-21.8"/>
      <point x="844.0" y="47.4"/>
      <point x="917.6" y="221.2" type="curve"/>
      <point x="873.4" y="221.2" type="line"/>
      <point x="901.2" y="0.0" type="line"/>
      <point x="1048.2" y="0.0" type="line"/>
    </contour>
  </outline>
</glyph>
<glyph name="v" format="1">
  <advance width="1089.8"/>
  <unicode hex="0076"/>
  <outline>
    <contour>
      <point x="459.8" y="0.0" type="line"/>
      <point x="640.4" y="0.0" type="line"/>
      <point x="1039.8" y="1059.8" type="line"/>
      <point x="854.8" y="1059.8" type="line"/>
      <point x="645.2" y="460.8" type="line"/>
      <point x="530.6" y="119.2" type="line"/>
      <point x="573.0" y="119.2" type="line"/>
      <point x="453.0" y="458.8" type="line"/>
      <point x="236.6" y="1059.8" type="line"/>
      <point x="50.0" y="1059.8" type="line"/>
    </contour>
  </outline>
</glyph>
<glyph name="w" format="1">
  <advance width="1582.2"/>
  <unicode hex="0077"/>
  <outline>
    <contour>
      <point x="350.8" y="0.0" type="line"/>
      <point x="523.4" y="0.0" type="line"/>
      <point x="810.6" y="956.2" type="line"/>
      <point x="775.6" y="956.2" type="line"/>
      <point x="1076.0" y="0.0" type="line"/>
      <point x="1238.6" y="0.0" type="line"/>
      <point x="1529.0" y="1059.8" type="line"/>
      <point x="1361.6" y="1059.8" type="line"/>
      <point x="1136.8" y="137.8" type="line"/>
      <point x="1173.8" y="137.8" type="line"/>
      <point x="888.2" y="1059.8" type="line"/>
      <point x="698.4" y="1059.8" type="line"/>
      <point x="424.4" y="137.8" type="line"/>
      <point x="458.8" y="137.8" type="line"/>
      <point x="224.6" y="1059.8" type="line"/>
      <point x="53.2" y="1059.8" type="line"/>
    </contour>
  </outline>
</glyph>
<glyph name="x" format="1">
  <advance width="1082.0"/>
  <unicode hex="0078"/>
  <outline>
    <contour>
      <point x="42.0" y="0.0" type="line"/>
      <point x="243.0" y="0.0" type="line"/>
      <point x="561.4" y="439.0" type="line"/>
      <point x="630.4" y="496.4" type="line"/>
      <point x="1032.4" y="1059.8" type="line"/>
      <point x="831.4" y="1059.8" type="line"/>
      <point x="527.6" y="625.8" type="line"/>
      <point x="459.6" y="572.2" type="line"/>
    </contour>
    <contour>
      <point x="835.6" y="0.0" type="line"/>
      <point x="1037.8" y="0.0" type="line"/>
      <point x="268.8" y="1059.8" type="line"/>
      <point x="66.6" y="1059.8" type="line"/>
    </contour>
  </outline>
</glyph>
<glyph name="y" format="1">
  <advance width="1095.8"/>
  <unicode hex="0079"/>
  <outline>
    <contour>
      <point x="496.2" y="-398.0" type="line"/>
      <point x="1050.4" y="1059.8" type="line"/>
      <point x="866.4" y="1059.8" type="line"/>
      <point x="555.6" y="173.2" type="line"/>
      <point x="597.8" y="173.2" type="line"/>
      <point x="256.4" y="1059.8" type="line"/>
      <point x="71.4" y="1059.8" type="line"/>
      <point x="517.0" y="-38.4" type="line"/>
      <point x="517.0" y="90.4" type="line"/>
      <point x="338.0" y="-365.6" type="line"/>
    </contour>
  </outline>
</glyph>
<glyph name="z" format="1">
  <advance width="950.8"/>
  <unicode hex="007A"/>
  <outline>
    <contour>
      <point x="116.8" y="0.0" type="line"/>
      <point x="850.2" y="0.0" type="line"/>
      <point x="850.2" y="130.6" type="line"/>
      <point x="252.8" y="130.6" type="line"/>
      <point x="274.8" y="68.2" type="line"/>
      <point x="839.8" y="936.0" type="line"/>
      <point x="839.8" y="1059.8" type="line"/>
      <point x="138.6" y="1059.8" type="line"/>
      <point x="138.6" y="932.8" type="line"/>
      <point x="712.6" y="932.8" type="line"/>
      <point x="688.6" y="989.2" type="line"/>
      <point x="116.8" y="115.6" type="line"/>
    </contour>
  </outline>
</glyph>
<glyph name="braceleft" format="1">
  <advance width="758.8"/>
  <unicode hex="007B"/>
  <outline>
    <contour>
      <point x="639.8" y="-271.4" type="line"/>
      <point x="400.4" y="-271.4"/>
      <point x="303.6" y="-161.4"/>
      <point x="303.6" y="59.0" type="curve" smooth="yes"/>
      <point x="303.6" y="255.6" type="line" smooth="yes"/>
      <point x="303.6" y="422.6"/>
      <point x="280.6" y="532.0"/>
      <point x="95.4" y="533.8" type="curve"/>
      <point x="95.4" y="673.8" type="line"/>
      <point x="279.8" y="674.2"/>
      <point x="303.6" y="784.4"/>
      <point x="303.6" y="949.8" type="curve" smooth="yes"/>
      <point x="303.6" y="1186.6" type="line" smooth="yes"/>
      <point x="303.6" y="1386.0"/>
      <point x="419.4" y="1486.2"/>
      <point x="639.8" y="1486.8" type="curve"/>
      <point x="639.8" y="1352.4" type="line"/>
      <point x="499.4" y="1350.4"/>
      <point x="457.4" y="1296.2"/>
      <point x="457.4" y="1132.8" type="curve" smooth="yes"/>
      <point x="457.4" y="876.2" type="line"/>
      <point x="456.6" y="729.8"/>
      <point x="409.6" y="651.4"/>
      <point x="279.4" y="600.4" type="curve"/>
      <point x="407.2" y="563.8"/>
      <point x="457.4" y="487.6"/>
      <point x="457.4" y="336.6" type="curve" smooth="yes"/>
      <point x="457.4" y="79.8" type="line" smooth="yes"/>
      <point x="457.4" y="-78.8"/>
      <point x="497.2" y="-138.2"/>
      <point x="639.8" y="-140.2" type="curve"/>
    </contour>
  </outline>
</glyph>
<glyph name="bar" format="1">
  <advance width="375.8"/>
  <unicode hex="007C"/>
  <outline>
    <contour>
      <point x="127.4" y="-352.4" type="line"/>
      <point x="127.4" y="1547.0" type="line"/>
      <point x="263.4" y="1547.0" type="line"/>
      <point x="263.4" y="-352.4" type="line"/>
    </contour>
  </outline>
</glyph>
<glyph name="braceright" format="1">
  <advance width="758.8"/>
  <unicode hex="007D"/>
  <outline>
    <contour>
      <point x="108.6" y="-271.4" type="curve"/>
      <point x="108.6" y="-138.4" type="line"/>
      <point x="249.0" y="-136.4"/>
      <point x="290.2" y="-83.4"/>
      <point x="290.2" y="80.4" type="curve" smooth="yes"/>
      <point x="290.2" y="337.8" type="line" smooth="yes"/>
      <point x="290.2" y="461.0"/>
      <point x="333.8" y="552.2"/>
      <point x="469.0" y="610.6" type="curve"/>
      <point x="338.8" y="651.2"/>
      <point x="291.0" y="762.4"/>
      <point x="290.2" y="877.4" type="curve"/>
      <point x="290.2" y="1133.4" type="line" smooth="yes"/>
      <point x="290.2" y="1292.4"/>
      <point x="251.2" y="1352.8"/>
      <point x="108.6" y="1354.8" type="curve"/>
      <point x="108.6" y="1486.8" type="line"/>
      <point x="347.6" y="1486.8"/>
      <point x="444.0" y="1377.0"/>
      <point x="444.0" y="1154.2" type="curve" smooth="yes"/>
      <point x="444.0" y="953.6" type="line" smooth="yes"/>
      <point x="444.0" y="786.6"/>
      <point x="465.0" y="679.6"/>
      <point x="652.6" y="677.4" type="curve"/>
      <point x="652.6" y="538.0" type="line"/>
      <point x="471.0" y="538.0"/>
      <point x="444.0" y="426.2"/>
      <point x="444.0" y="260.4" type="curve" smooth="yes"/>
      <point x="444.0" y="26.6" type="line" smooth="yes"/>
      <point x="444.0" y="-172.0"/>
      <point x="331.4" y="-270.8"/>
    </contour>
  </outline>
</glyph>
<glyph name="asciitilde" format="1">
  <advance width="1178.6"/>
  <unicode hex="007E"/>
  <outline>
    <contour>
      <point x="153.2" y="486.2" type="curve"/>
      <point x="105.4" y="587.4" type="line"/>
      <point x="150.8" y="694.4"/>
      <point x="237.0" y="779.0"/>
      <point x="367.0" y="779.0" type="curve" smooth="yes"/>
      <point x="446.6" y="779.0"/>
      <point x="507.2" y="756.2"/>
      <point x="604.0" y="713.4" type="curve" smooth="yes"/>
      <point x="697.2" y="673.4"/>
      <point x="774.2" y="637.0"/>
      <point x="832.8" y="637.0" type="curve" smooth="yes"/>
      <point x="913.0" y="637.0"/>
      <point x="990.2" y="704.0"/>
      <point x="1034.0" y="788.0" type="curve"/>
      <point x="1086.6" y="694.2" type="line"/>
      <point x="1037.8" y="576.8"/>
      <point x="954.4" y="499.2"/>
      <point x="829.2" y="499.2" type="curve" smooth="yes"/>
      <point x="757.4" y="499.2"/>
      <point x="685.8" y="526.6"/>
      <point x="603.4" y="563.6" type="curve"/>
      <point x="504.2" y="608.0"/>
      <point x="432.2" y="640.6"/>
      <point x="362.8" y="640.6" type="curve" smooth="yes"/>
      <point x="275.4" y="640.6"/>
      <point x="198.4" y="570.0"/>
    </contour>
  </outline>
</glyph>
<glyph name="cent" format="1">
  <advance width="976.0"/>
  <unicode hex="00A2"/>
  <outline>
    <contour>
      <point x="563.2" y="-154.8" type="line"/>
      <point x="645.8" y="-154.8" type="line"/>
      <point x="645.8" y="1227.8" type="line"/>
      <point x="563.2" y="1227.8" type="line"/>
    </contour>
    <component base="c"/>
  </outline>
</glyph>
<glyph name="sterling" format="1">
  <advance width="1122.4"/>
  <unicode hex="00A3"/>
  <outline>
    <contour>
      <point x="117.6" y="-0.4" type="line"/>
      <point x="106.4" y="133.4" type="line"/>
      <point x="285.4" y="150.6" type="line"/>
      <point x="285.4" y="658.4" type="line"/>
      <point x="104.6" y="658.4" type="line"/>
      <point x="104.6" y="788.0" type="line"/>
      <point x="285.4" y="788.0" type="line"/>
      <point x="285.4" y="892.6" type="line" smooth="yes"/>
      <point x="285.4" y="1188.2"/>
      <point x="349.2" y="1456.6"/>
      <point x="696.0" y="1456.6" type="curve" smooth="yes"/>
      <point x="840.0" y="1456.6"/>
      <point x="954.0" y="1403.4"/>
      <point x="1040.4" y="1330.2" type="curve"/>
      <point x="967.0" y="1214.8" type="line"/>
      <point x="881.8" y="1279.8"/>
      <point x="797.4" y="1315.6"/>
      <point x="697.4" y="1315.6" type="curve" smooth="yes"/>
      <point x="506.0" y="1315.6"/>
      <point x="446.4" y="1176.4"/>
      <point x="446.4" y="963.6" type="curve" smooth="yes"/>
      <point x="446.4" y="788.0" type="line"/>
      <point x="843.6" y="788.0" type="line"/>
      <point x="843.6" y="658.2" type="line"/>
      <point x="446.4" y="658.2" type="line"/>
      <point x="446.4" y="152.6" type="line"/>
      <point x="1054.8" y="152.6" type="line"/>
      <point x="1042.8" y="-0.4" type="line"/>
    </contour>
  </outline>
</glyph>
<glyph name="currency" format="1">
  <advance width="1243.2"/>
  <unicode hex="00A4"/>
  <outline>
    <contour>
      <point x="1066.8" y="224.2" type="line"/>
      <point x="1131.8" y="294.8" type="line"/>
      <point x="955.4" y="466.6" type="line"/>
      <point x="1006.8" y="535.4"/>
      <point x="1032.8" y="616.2"/>
      <point x="1032.8" y="707.2" type="curve" smooth="yes"/>
      <point x="1032.8" y="793.4"/>
      <point x="1006.2" y="876.0"/>
      <point x="954.4" y="948.4" type="curve"/>
      <point x="1132.8" y="1119.2" type="line"/>
      <point x="1066.8" y="1190.0" type="line"/>
      <point x="886.4" y="1020.2" type="line"/>
      <point x="815.8" y="1078.4"/>
      <point x="729.0" y="1111.2"/>
      <point x="632.0" y="1111.2" type="curve" smooth="yes"/>
      <point x="535.8" y="1111.2"/>
      <point x="446.6" y="1079.4"/>
      <point x="376.0" y="1021.6" type="curve"/>
      <point x="198.2" y="1190.0" type="line"/>
      <point x="127.8" y="1121.4" type="line"/>
      <point x="309.0" y="948.4" type="line"/>
      <point x="257.0" y="878.0"/>
      <point x="230.0" y="795.4"/>
      <point x="230.0" y="707.2" type="curve" smooth="yes"/>
      <point x="230.0" y="618.0"/>
      <point x="257.2" y="536.6"/>
      <point x="309.0" y="466.6" type="curve"/>
      <point x="128.8" y="295.2" type="line"/>
      <point x="198.2" y="225.6" type="line"/>
      <point x="375.8" y="393.8" type="line"/>
      <point x="446.6" y="335.4"/>
      <point x="534.0" y="304.8"/>
      <point x="632.0" y="304.8" type="curve" smooth="yes"/>
      <point x="729.2" y="304.8"/>
      <point x="816.0" y="336.6"/>
      <point x="886.4" y="393.6" type="curve"/>
    </contour>
    <contour>
      <point x="632.0" y="402.6" type="curve" smooth="yes"/>
      <point x="452.2" y="402.6"/>
      <point x="334.8" y="541.6"/>
      <point x="334.8" y="707.2" type="curve" smooth="yes"/>
      <point x="334.8" y="872.4"/>
      <point x="452.2" y="1012.8"/>
      <point x="632.0" y="1012.8" type="curve" smooth="yes"/>
      <point x="812.6" y="1012.8"/>
      <point x="930.0" y="872.2"/>
      <point x="930.0" y="707.2" type="curve" smooth="yes"/>
      <point x="930.0" y="542.2"/>
      <point x="813.6" y="402.6"/>
    </contour>
  </outline>
</glyph>
<glyph name="yen" format="1">
  <advance width="1238.4"/>
  <unicode hex="00A5"/>
  <outline>
    <contour>
      <point x="547.0" y="0.0" type="line"/>
      <point x="738.6" y="0.0" type="line"/>
      <point x="738.6" y="274.0" type="line"/>
      <point x="1051.2" y="274.0" type="line"/>
      <point x="1051.2" y="388.0" type="line"/>
      <point x="738.6" y="388.0" type="line"/>
      <point x="738.6" y="564.6" type="line"/>
      <point x="1050.0" y="564.6" type="line"/>
      <point x="1050.0" y="677.0" type="line"/>
      <point x="790.0" y="677.0" type="line"/>
      <point x="1205.6" y="1437.4" type="line"/>
      <point x="1012.0" y="1437.4" type="line"/>
      <point x="642.0" y="732.8" type="line"/>
      <point x="253.0" y="1437.4" type="line"/>
      <point x="58.0" y="1437.4" type="line"/>
      <point x="492.6" y="677.0" type="line"/>
      <point x="228.8" y="677.0" type="line"/>
      <point x="228.8" y="564.6" type="line"/>
      <point x="547.0" y="564.6" type="line"/>
      <point x="547.0" y="388.0" type="line"/>
      <point x="227.6" y="388.0" type="line"/>
      <point x="227.6" y="274.0" type="line"/>
      <point x="547.0" y="274.0" type="line"/>
    </contour>
  </outline>
</glyph>
<glyph name="brokenbar" format="1">
  <advance width="389.2"/>
  <unicode hex="00A6"/>
  <outline>
    <contour>
      <point x="133.8" y="-240.6" type="line"/>
      <point x="133.8" y="444.6" type="line"/>
      <point x="270.4" y="444.6" type="line"/>
      <point x="270.4" y="-240.6" type="line"/>
    </contour>
    <contour>
      <point x="133.8" y="762.0" type="line"/>
      <point x="133.8" y="1444.6" type="line"/>
      <point x="270.4" y="1444.6" type="line"/>
      <point x="270.4" y="762.0" type="line"/>
    </contour>
  </outline>
</glyph>
<glyph name="dieresis" format="1">
  <advance width="731.2"/>
  <unicode hex="00A8"/>
  <outline>
    <contour>
      <point x="116.4" y="1225.0" type="line"/>
      <point x="262.8" y="1225.0" type="line"/>
      <point x="262.8" y="1411.6" type="line"/>
      <point x="116.4" y="1411.6" type="line"/>
    </contour>
    <contour>
      <point x="492.2" y="1225.0" type="line"/>
      <point x="638.8" y="1225.0" type="line"/>
      <point x="638.8" y="1411.6" type="line"/>
      <point x="492.2" y="1411.6" type="line"/>
    </contour>
  </outline>
</glyph>
<glyph name="copyright" format="1">
  <advance width="1753.6"/>
  <unicode hex="00A9"/>
  <outline>
    <contour>
      <point x="890.4" y="236.6" type="curve" smooth="yes"/>
      <point x="993.6" y="236.6"/>
      <point x="1093.0" y="265.0"/>
      <point x="1179.8" y="320.6" type="curve"/>
      <point x="1142.2" y="411.2" type="line"/>
      <point x="1058.2" y="359.8"/>
      <point x="974.6" y="340.6"/>
      <point x="895.4" y="340.6" type="curve" smooth="yes"/>
      <point x="692.8" y="340.6"/>
      <point x="538.0" y="493.6"/>
      <point x="538.0" y="743.0" type="curve" smooth="yes"/>
      <point x="538.0" y="974.4"/>
      <point x="692.4" y="1135.8"/>
      <point x="888.4" y="1135.8" type="curve" smooth="yes"/>
      <point x="961.6" y="1135.8"/>
      <point x="1057.6" y="1111.6"/>
      <point x="1131.2" y="1057.2" type="curve"/>
      <point x="1177.0" y="1150.8" type="line"/>
      <point x="1088.2" y="1211.8"/>
      <point x="987.2" y="1240.8"/>
      <point x="882.8" y="1240.8" type="curve" smooth="yes"/>
      <point x="620.2" y="1240.8"/>
      <point x="408.6" y="1024.2"/>
      <point x="408.6" y="738.2" type="curve" smooth="yes"/>
      <point x="408.6" y="445.4"/>
      <point x="627.0" y="236.6"/>
    </contour>
    <contour>
      <point x="875.2" y="66.8" type="curve" smooth="yes"/>
      <point x="532.2" y="66.8"/>
      <point x="214.4" y="310.6"/>
      <point x="214.4" y="742.4" type="curve" smooth="yes"/>
      <point x="214.4" y="1173.4"/>
      <point x="531.8" y="1415.8"/>
      <point x="874.4" y="1415.8" type="curve" smooth="yes"/>
      <point x="1219.0" y="1415.8"/>
      <point x="1539.6" y="1172.8"/>
      <point x="1539.6" y="742.0" type="curve" smooth="yes"/>
      <point x="1539.6" y="311.2"/>
      <point x="1219.8" y="66.8"/>
    </contour>
    <contour>
      <point x="875.2" y="-24.0" type="curve" smooth="yes"/>
      <point x="1266.0" y="-24.0"/>
      <point x="1649.6" y="245.6"/>
      <point x="1649.6" y="742.4" type="curve" smooth="yes"/>
      <point x="1649.6" y="1238.8"/>
      <point x="1264.8" y="1507.6"/>
      <point x="874.4" y="1507.6" type="curve" smooth="yes"/>
      <point x="485.2" y="1507.6"/>
      <point x="104.0" y="1239.2"/>
      <point x="104.0" y="742.4" type="curve" smooth="yes"/>
      <point x="104.0" y="245.6"/>
      <point x="486.0" y="-24.0"/>
    </contour>
  </outline>
</glyph>
<glyph name="guillemotleft" format="1">
  <advance width="979.8"/>
  <unicode hex="00AB"/>
  <outline>
    <contour>
      <point x="740.8" y="144.6" type="line"/>
      <point x="871.2" y="179.0" type="line"/>
      <point x="614.2" y="542.6" type="line"/>
      <point x="877.0" y="903.6" type="line"/>
      <point x="743.4" y="937.6" type="line"/>
      <point x="453.8" y="539.6" type="line"/>
    </contour>
    <contour>
      <point x="379.6" y="144.6" type="line"/>
      <point x="510.0" y="179.0" type="line"/>
      <point x="253.6" y="542.6" type="line"/>
      <point x="516.8" y="903.6" type="line"/>
      <point x="383.2" y="937.6" type="line"/>
      <point x="92.6" y="539.6" type="line"/>
    </contour>
  </outline>
</glyph>
<glyph name="logicalnot" format="1">
  <advance width="1174.6"/>
  <unicode hex="00AC"/>
  <outline>
    <contour>
      <point x="923.6" y="251.4" type="line"/>
      <point x="1056.4" y="251.4" type="line"/>
      <point x="1056.4" y="793.8" type="line"/>
      <point x="99.2" y="793.8" type="line"/>
      <point x="99.2" y="658.2" type="line"/>
      <point x="923.6" y="658.2" type="line"/>
    </contour>
  </outline>
</glyph>
<glyph name="uni00AD" format="1">
  <advance width="913.6"/>
  <unicode hex="00AD"/>
  <outline>
    <contour>
      <point x="106.6" y="228.0" type="line"/>
      <point x="824.6" y="228.0" type="line"/>
      <point x="824.6" y="372.0" type="line"/>
      <point x="106.6" y="372.0" type="line"/>
    </contour>
  </outline>
</glyph>
<glyph name="registered" format="1">
  <advance width="1750.4"/>
  <unicode hex="00AE"/>
  <outline>
    <contour>
      <point x="571.2" y="287.8" type="line"/>
      <point x="692.6" y="287.8" type="line"/>
      <point x="692.6" y="723.2" type="line"/>
      <point x="901.8" y="723.2" type="line"/>
      <point x="914.6" y="710.4"/>
      <point x="1120.0" y="287.8"/>
      <point x="1120.0" y="287.8" type="curve"/>
      <point x="1254.4" y="287.8" type="line"/>
      <point x="1254.4" y="287.8"/>
      <point x="1044.6" y="709.4"/>
      <point x="1021.8" y="739.8" type="curve"/>
      <point x="1157.4" y="757.2"/>
      <point x="1218.8" y="846.4"/>
      <point x="1218.8" y="984.2" type="curve" smooth="yes"/>
      <point x="1218.8" y="1155.0"/>
      <point x="1128.0" y="1231.0"/>
      <point x="894.8" y="1231.0" type="curve" smooth="yes"/>
      <point x="571.2" y="1231.0" type="line"/>
    </contour>
    <contour>
      <point x="692.8" y="828.8" type="line"/>
      <point x="692.8" y="1125.4" type="line"/>
      <point x="874.6" y="1125.4" type="line" smooth="yes"/>
      <point x="1038.4" y="1125.4"/>
      <point x="1101.0" y="1107.8"/>
      <point x="1101.0" y="980.0" type="curve" smooth="yes"/>
      <point x="1101.0" y="869.8"/>
      <point x="1052.2" y="828.8"/>
      <point x="908.4" y="828.8" type="curve" smooth="yes"/>
    </contour>
    <contour>
      <point x="873.6" y="64.0" type="curve" smooth="yes"/>
      <point x="531.0" y="64.0"/>
      <point x="213.6" y="307.8"/>
      <point x="213.6" y="739.6" type="curve" smooth="yes"/>
      <point x="213.6" y="1170.6"/>
      <point x="530.6" y="1415.8"/>
      <point x="873.2" y="1415.8" type="curve" smooth="yes"/>
      <point x="1217.4" y="1415.8"/>
      <point x="1536.8" y="1170.0"/>
      <point x="1536.8" y="739.2" type="curve" smooth="yes"/>
      <point x="1536.8" y="308.4"/>
      <point x="1217.4" y="64.0"/>
    </contour>
    <contour>
      <point x="873.6" y="-26.8" type="curve" smooth="yes"/>
      <point x="1263.6" y="-26.8"/>
      <point x="1647.2" y="242.8"/>
      <point x="1647.2" y="739.6" type="curve" smooth="yes"/>
      <point x="1647.2" y="1236.0"/>
      <point x="1263.2" y="1507.6"/>
      <point x="873.2" y="1507.6" type="curve" smooth="yes"/>
      <point x="484.0" y="1507.6"/>
      <point x="103.2" y="1236.4"/>
      <point x="103.2" y="739.6" type="curve" smooth="yes"/>
      <point x="103.2" y="242.8"/>
      <point x="484.4" y="-26.8"/>
    </contour>
  </outline>
</glyph>
<glyph name="macron" format="1">
  <advance width="1020.4"/>
  <unicode hex="00AF"/>
  <outline>
    <contour>
      <point x="200.4" y="1269.2" type="line"/>
      <point x="799.6" y="1269.2" type="line"/>
      <point x="799.6" y="1395.4" type="line"/>
      <point x="200.4" y="1395.4" type="line"/>
    </contour>
  </outline>
</glyph>
<glyph name="degree" format="1">
  <advance width="800.6"/>
  <unicode hex="00B0"/>
  <outline>
    <contour>
      <point x="400.2" y="995.4" type="curve" smooth="yes"/>
      <point x="298.6" y="995.4"/>
      <point x="215.4" y="1070.2"/>
      <point x="215.4" y="1182.4" type="curve" smooth="yes"/>
      <point x="215.4" y="1293.4"/>
      <point x="299.8" y="1367.4"/>
      <point x="400.6" y="1367.4" type="curve" smooth="yes"/>
      <point x="502.0" y="1367.4"/>
      <point x="585.4" y="1293.4"/>
      <point x="585.4" y="1182.4" type="curve" smooth="yes"/>
      <point x="585.4" y="1071.4"/>
      <point x="502.4" y="995.4"/>
    </contour>
    <contour>
      <point x="399.6" y="894.0" type="curve" smooth="yes"/>
      <point x="567.6" y="894.0"/>
      <point x="701.2" y="1020.8"/>
      <point x="701.2" y="1182.8" type="curve" smooth="yes"/>
      <point x="701.2" y="1349.4"/>
      <point x="563.8" y="1468.0"/>
      <point x="399.6" y="1468.0" type="curve" smooth="yes"/>
      <point x="237.2" y="1468.0"/>
      <point x="100.0" y="1349.4"/>
      <point x="100.0" y="1182.8" type="curve" smooth="yes"/>
      <point x="100.0" y="1015.0"/>
      <point x="237.2" y="894.0"/>
    </contour>
  </outline>
</glyph>
<glyph name="plusminus" format="1">
  <advance width="1151.4"/>
  <unicode hex="00B1"/>
  <outline>
    <contour>
      <point x="112.6" y="0.0" type="line"/>
      <point x="112.6" y="125.4" type="line"/>
      <point x="1038.8" y="125.4" type="line"/>
      <point x="1038.8" y="0.0" type="line"/>
    </contour>
    <contour>
      <point x="500.0" y="213.4" type="line"/>
      <point x="636.8" y="213.4" type="line"/>
      <point x="636.8" y="596.2" type="line"/>
      <point x="999.8" y="596.2" type="line"/>
      <point x="999.8" y="725.8" type="line"/>
      <point x="636.4" y="725.8" type="line"/>
      <point x="636.4" y="1099.0" type="line"/>
      <point x="500.0" y="1099.0" type="line"/>
      <point x="500.0" y="725.8" type="line"/>
      <point x="131.2" y="725.8" type="line"/>
      <point x="131.2" y="596.2" type="line"/>
      <point x="500.0" y="596.2" type="line"/>
    </contour>
  </outline>
</glyph>
<glyph name="uni00B3" format="1">
  <advance width="786.8"/>
  <unicode hex="00B3"/>
  <outline>
    <contour>
      <point x="410.4" y="600.8" type="curve" smooth="yes"/>
      <point x="557.0" y="600.8"/>
      <point x="675.6" y="695.6"/>
      <point x="675.6" y="855.8" type="curve" smooth="yes"/>
      <point x="675.6" y="952.2"/>
      <point x="617.0" y="1029.4"/>
      <point x="517.4" y="1061.4" type="curve"/>
      <point x="614.2" y="1085.8"/>
      <point x="656.2" y="1158.4"/>
      <point x="657.0" y="1233.8" type="curve"/>
      <point x="657.0" y="1391.0"/>
      <point x="535.4" y="1465.8"/>
      <point x="407.6" y="1465.8" type="curve" smooth="yes"/>
      <point x="320.0" y="1465.8"/>
      <point x="212.2" y="1432.0"/>
      <point x="154.6" y="1373.2" type="curve"/>
      <point x="205.6" y="1281.0" type="line"/>
      <point x="245.4" y="1318.8"/>
      <point x="335.8" y="1349.2"/>
      <point x="402.4" y="1349.2" type="curve" smooth="yes"/>
      <point x="472.2" y="1349.2"/>
      <point x="520.4" y="1309.4"/>
      <point x="520.4" y="1233.0" type="curve" smooth="yes"/>
      <point x="520.4" y="1154.6"/>
      <point x="449.0" y="1114.4"/>
      <point x="349.0" y="1114.4" type="curve" smooth="yes"/>
      <point x="276.0" y="1114.4" type="line"/>
      <point x="276.0" y="996.2" type="line"/>
      <point x="350.6" y="996.6" type="line"/>
      <point x="460.4" y="996.6"/>
      <point x="541.8" y="950.6"/>
      <point x="541.8" y="859.2" type="curve" smooth="yes"/>
      <point x="541.8" y="763.6"/>
      <point x="480.8" y="718.2"/>
      <point x="402.2" y="718.2" type="curve" smooth="yes"/>
      <point x="340.8" y="718.2"/>
      <point x="250.0" y="745.0"/>
      <point x="201.8" y="788.8" type="curve"/>
      <point x="152.6" y="686.4" type="line"/>
      <point x="214.6" y="626.4"/>
      <point x="327.8" y="600.8"/>
    </contour>
  </outline>
</glyph>
<glyph name="acute" format="1">
  <advance width="608.2"/>
  <unicode hex="00B4"/>
  <outline>
    <contour>
      <point x="120.6" y="1178.4" type="line"/>
      <point x="227.4" y="1178.4" type="line"/>
      <point x="521.8" y="1553.2" type="line"/>
      <point x="301.2" y="1553.2" type="line"/>
    </contour>
  </outline>
</glyph>
<glyph name="paragraph" format="1">
  <advance width="1085.8"/>
  <unicode hex="00B6"/>
  <outline>
    <contour>
      <point x="472.2" y="-97.2" type="line"/>
      <point x="595.4" y="-97.2" type="line"/>
      <point x="595.4" y="1384.8" type="line"/>
      <point x="783.2" y="1384.8" type="line"/>
      <point x="783.2" y="-97.2" type="line"/>
      <point x="906.4" y="-97.2" type="line"/>
      <point x="906.4" y="1384.8" type="line"/>
      <point x="980.4" y="1384.8" type="line"/>
      <point x="980.4" y="1505.8" type="line"/>
      <point x="520.8" y="1505.8" type="line" smooth="yes"/>
      <point x="207.0" y="1505.8"/>
      <point x="98.2" y="1345.4"/>
      <point x="98.2" y="1176.2" type="curve" smooth="yes"/>
      <point x="98.2" y="1003.0"/>
      <point x="204.0" y="844.6"/>
      <point x="472.2" y="844.6" type="curve"/>
    </contour>
  </outline>
</glyph>
<glyph name="cedilla" format="1">
  <advance width="566.8"/>
  <unicode hex="00B8"/>
  <outline>
    <contour>
      <point x="114.0" y="-384.6" type="line"/>
      <point x="259.0" y="-384.6" type="line"/>
      <point x="300.0" y="2.4" type="line"/>
      <point x="206.6" y="2.4" type="line"/>
    </contour>
  </outline>
</glyph>
<glyph name="uni00B9" format="1">
  <advance width="781.6"/>
  <unicode hex="00B9"/>
  <outline>
    <contour>
      <point x="187.8" y="645.0" type="line"/>
      <point x="680.2" y="645.0" type="line"/>
      <point x="680.2" y="772.8" type="line"/>
      <point x="519.2" y="772.8" type="line"/>
      <point x="519.2" y="1462.6" type="line"/>
      <point x="386.6" y="1463.0" type="line"/>
      <point x="363.2" y="1439.6"/>
      <point x="210.4" y="1367.4"/>
      <point x="181.0" y="1360.8" type="curve"/>
      <point x="181.0" y="1222.6" type="line"/>
      <point x="214.0" y="1229.8"/>
      <point x="320.2" y="1273.0"/>
      <point x="356.8" y="1294.8" type="curve"/>
      <point x="356.8" y="772.8" type="line"/>
      <point x="187.8" y="772.8" type="line"/>
    </contour>
  </outline>
</glyph>
<glyph name="guillemotright" format="1">
  <advance width="994.4"/>
  <unicode hex="00BB"/>
  <outline>
    <contour>
      <point x="616.4" y="937.6" type="line"/>
      <point x="486.8" y="904.2" type="line"/>
      <point x="742.6" y="539.6" type="line"/>
      <point x="481.0" y="179.6" type="line"/>
      <point x="613.4" y="144.6" type="line"/>
      <point x="903.8" y="542.6" type="line"/>
    </contour>
    <contour>
      <point x="259.8" y="937.6" type="line"/>
      <point x="129.4" y="904.2" type="line"/>
      <point x="387.2" y="539.6" type="line"/>
      <point x="123.8" y="179.6" type="line"/>
      <point x="257.6" y="144.6" type="line"/>
      <point x="547.2" y="542.6" type="line"/>
    </contour>
  </outline>
</glyph>
<glyph name="onequarter" format="1">
  <advance width="1576.6"/>
  <unicode hex="00BC"/>
  <outline>
    <contour>
      <point x="83.0" y="608.2" type="line"/>
      <point x="518.6" y="608.2" type="line"/>
      <point x="518.6" y="724.4" type="line"/>
      <point x="381.0" y="724.4" type="line"/>
      <point x="381.0" y="1469.2" type="line"/>
      <point x="265.4" y="1469.6" type="line"/>
      <point x="242.0" y="1446.2"/>
      <point x="103.2" y="1377.6"/>
      <point x="72.6" y="1366.8" type="curve"/>
      <point x="72.6" y="1249.2" type="line"/>
      <point x="102.0" y="1259.4"/>
      <point x="198.4" y="1299.4"/>
      <point x="235.0" y="1321.2" type="curve"/>
      <point x="235.0" y="724.4" type="line"/>
      <point x="83.0" y="724.4" type="line"/>
    </contour>
    <contour>
      <point x="1309.6" y="4.2" type="line"/>
      <point x="1439.4" y="4.2" type="line"/>
      <point x="1439.8" y="185.2" type="line"/>
      <point x="1560.6" y="185.2" type="line"/>
      <point x="1553.4" y="295.0" type="line"/>
      <point x="1441.4" y="295.0" type="line"/>
      <point x="1441.4" y="838.0" type="line"/>
      <point x="1299.6" y="838.0" type="line"/>
      <point x="932.2" y="285.2" type="line"/>
      <point x="932.2" y="185.2" type="line"/>
      <point x="1309.6" y="185.2" type="line"/>
    </contour>
    <contour>
      <point x="318.8" y="0.0" type="line"/>
      <point x="462.6" y="0.0" type="line"/>
      <point x="1376.0" y="1469.8" type="line"/>
      <point x="1235.2" y="1469.8" type="line"/>
    </contour>
    <contour>
      <point x="1089.8" y="295.0" type="line"/>
      <point x="1308.8" y="643.8" type="line"/>
      <point x="1308.8" y="295.0" type="line"/>
    </contour>
  </outline>
</glyph>
<glyph name="onehalf" format="1">
  <advance width="1638.0"/>
  <unicode hex="00BD"/>
  <outline>
    <contour>
      <point x="121.6" y="612.2" type="line"/>
      <point x="514.8" y="612.2" type="line"/>
      <point x="514.8" y="726.6" type="line"/>
      <point x="390.2" y="726.6" type="line"/>
      <point x="390.2" y="1469.2" type="line"/>
      <point x="265.0" y="1469.6" type="line"/>
      <point x="241.6" y="1446.2"/>
      <point x="142.6" y="1385.2"/>
      <point x="106.6" y="1367.2" type="curve"/>
      <point x="106.6" y="1243.4" type="line"/>
      <point x="132.4" y="1256.6"/>
      <point x="207.6" y="1298.2"/>
      <point x="243.8" y="1321.2" type="curve"/>
      <point x="243.8" y="726.6" type="line"/>
      <point x="121.6" y="726.6" type="line"/>
    </contour>
    <contour>
      <point x="1024.2" y="-11.4" type="line"/>
      <point x="1547.8" y="-11.4" type="line"/>
      <point x="1555.0" y="105.0" type="line"/>
      <point x="1214.0" y="105.0" type="line"/>
      <point x="1408.8" y="278.2"/>
      <point x="1562.2" y="397.4"/>
      <point x="1562.2" y="583.6" type="curve" smooth="yes"/>
      <point x="1562.2" y="748.0"/>
      <point x="1427.4" y="836.8"/>
      <point x="1288.2" y="836.8" type="curve" smooth="yes"/>
      <point x="1172.0" y="836.8"/>
      <point x="1058.4" y="780.8"/>
      <point x="1004.2" y="688.8" type="curve"/>
      <point x="1077.0" y="604.6" type="line" smooth="yes"/>
      <point x="1132.6" y="679.8"/>
      <point x="1211.2" y="713.2"/>
      <point x="1287.4" y="713.2" type="curve" smooth="yes"/>
      <point x="1357.2" y="713.2"/>
      <point x="1423.0" y="668.6"/>
      <point x="1423.0" y="576.2" type="curve" smooth="yes"/>
      <point x="1423.0" y="451.8"/>
      <point x="1168.6" y="245.6"/>
      <point x="1024.6" y="101.0" type="curve"/>
    </contour>
    <contour>
      <point x="295.8" y="8.0" type="line"/>
      <point x="440.6" y="8.0" type="line"/>
      <point x="1355.6" y="1469.8" type="line"/>
      <point x="1212.2" y="1469.8" type="line"/>
    </contour>
  </outline>
</glyph>
<glyph name="threequarters" format="1">
  <advance width="1596.6"/>
  <unicode hex="00BE"/>
  <outline>
    <contour>
      <point x="342.6" y="611.6" type="curve" smooth="yes"/>
      <point x="488.4" y="611.6"/>
      <point x="609.4" y="704.8"/>
      <point x="609.4" y="864.2" type="curve" smooth="yes"/>
      <point x="609.4" y="959.4"/>
      <point x="552.0" y="1035.8"/>
      <point x="452.8" y="1067.4" type="curve"/>
      <point x="556.4" y="1095.4"/>
      <point x="590.4" y="1182.0"/>
      <point x="590.4" y="1238.2" type="curve" smooth="yes"/>
      <point x="590.4" y="1391.4"/>
      <point x="466.2" y="1465.8"/>
      <point x="340.4" y="1465.8" type="curve" smooth="yes"/>
      <point x="252.0" y="1465.8"/>
      <point x="138.4" y="1431.6"/>
      <point x="80.8" y="1372.0" type="curve"/>
      <point x="137.4" y="1281.0" type="line"/>
      <point x="177.2" y="1318.8"/>
      <point x="267.0" y="1348.0"/>
      <point x="333.6" y="1348.0" type="curve" smooth="yes"/>
      <point x="403.8" y="1348.0"/>
      <point x="451.8" y="1310.2"/>
      <point x="451.8" y="1235.4" type="curve" smooth="yes"/>
      <point x="451.8" y="1158.6"/>
      <point x="380.8" y="1118.4"/>
      <point x="280.8" y="1118.4" type="curve" smooth="yes"/>
      <point x="208.2" y="1118.4" type="line"/>
      <point x="208.2" y="999.8" type="line"/>
      <point x="283.4" y="1000.2" type="line"/>
      <point x="392.8" y="1000.2"/>
      <point x="470.8" y="956.6"/>
      <point x="470.8" y="868.0" type="curve" smooth="yes"/>
      <point x="470.8" y="774.4"/>
      <point x="410.2" y="730.2"/>
      <point x="331.6" y="730.2" type="curve" smooth="yes"/>
      <point x="270.2" y="730.2"/>
      <point x="182.8" y="755.0"/>
      <point x="135.0" y="797.6" type="curve"/>
      <point x="84.4" y="696.8" type="line"/>
      <point x="146.0" y="636.8"/>
      <point x="260.0" y="611.6"/>
    </contour>
    <contour>
      <point x="1290.0" y="8.6" type="line"/>
      <point x="1419.8" y="8.6" type="line"/>
      <point x="1420.2" y="192.8" type="line"/>
      <point x="1541.0" y="192.8" type="line"/>
      <point x="1534.2" y="302.2" type="line"/>
      <point x="1421.8" y="302.2" type="line"/>
      <point x="1421.8" y="847.2" type="line"/>
      <point x="1279.6" y="847.2" type="line"/>
      <point x="913.0" y="290.4" type="line"/>
      <point x="913.0" y="192.8" type="line"/>
      <point x="1290.0" y="192.8" type="line"/>
    </contour>
    <contour>
      <point x="333.8" y="8.0" type="line"/>
      <point x="478.8" y="8.0" type="line"/>
      <point x="1391.0" y="1469.8" type="line"/>
      <point x="1249.0" y="1469.8" type="line"/>
    </contour>
    <contour>
      <point x="1069.8" y="302.2" type="line"/>
      <point x="1289.2" y="650.2" type="line"/>
      <point x="1289.2" y="302.2" type="line"/>
    </contour>
  </outline>
</glyph>
<glyph name="AE" format="1">
  <advance width="1939.0"/>
  <unicode hex="00C6"/>
  <outline>
    <contour>
      <point x="1170.99750135" y="0" type="line"/>
      <point x="1849.0" y="0" type="line"/>
      <point x="1832.0" y="148" type="line"/>
      <point x="1236.99750135" y="148" type="line"/>
      <point x="1305.99750135" y="90" type="line"/>
      <point x="1177.99750135" y="724" type="line"/>
      <point x="1130.99750135" y="669" type="line"/>
      <point x="1747.0" y="669" type="line"/>
      <point x="1728.0" y="815" type="line"/>
      <point x="1102.99750135" y="815" type="line"/>
      <point x="1171.99750135" y="759" type="line"/>
      <point x="1054.99750135" y="1346" type="line"/>
      <point x="1008.99750135" y="1291" type="line"/>
      <point x="1760.0" y="1291" type="line"/>
      <point x="1748.0" y="1437" type="line"/>
      <point x="942.997501352" y="1437" type="line"/>
    </contour>
    <component base="A" xScale="1.00005099282" xyScale="4.1540938336e-06" yxScale="0.165188430783" yScale="0.999949695954" xOffset="2.99750135187"/>
  </outline>
</glyph>
<glyph name="Eth" format="1">
  <advance width="1512.6"/>
  <unicode hex="00D0"/>
  <outline>
    <contour>
      <point x="658.8" y="796.6" type="line"/>
      <point x="55.2" y="796.6" type="line"/>
      <point x="55.2" y="672.6" type="line"/>
      <point x="658.8" y="672.6" type="line"/>
    </contour>
    <component base="D"/>
  </outline>
</glyph>
<glyph name="multiply" format="1">
  <advance width="934.0"/>
  <unicode hex="00D7"/>
  <outline>
    <contour>
      <point x="739.0" y="193.0" type="line"/>
      <point x="828.2" y="287.8" type="line"/>
      <point x="828.2" y="287.8"/>
      <point x="588.6" y="544.4"/>
      <point x="561.4" y="571.6" type="curve"/>
      <point x="825.8" y="849.0" type="line"/>
      <point x="730.8" y="943.6" type="line"/>
      <point x="469.2" y="667.6" type="line"/>
      <point x="205.2" y="947.2" type="line"/>
      <point x="113.6" y="852.4" type="line"/>
      <point x="376.8" y="572.2" type="line"/>
      <point x="105.8" y="285.6" type="line"/>
      <point x="196.8" y="192.4" type="line"/>
      <point x="469.2" y="475.8" type="line"/>
    </contour>
  </outline>
</glyph>
<glyph name="Oslash" format="1">
  <advance width="1617.8"/>
  <unicode hex="00D8"/>
  <outline>
    <contour>
      <point x="519.2" y="-229.4" type="line"/>
      <point x="1242.0" y="1618.6" type="line"/>
      <point x="1135.2" y="1658.6" type="line"/>
      <point x="417.8" y="-194.4" type="line"/>
    </contour>
    <component base="O"/>
  </outline>
</glyph>
<glyph name="germandbls" format="1">
  <advance width="1172.8"/>
  <unicode hex="00DF"/>
  <outline>
    <contour>
      <point x="348.6" y="0.0" type="line"/>
      <point x="171.0" y="0.0" type="line"/>
      <point x="171.0" y="1006.6" type="line" smooth="yes"/>
      <point x="171.0" y="1292.4"/>
      <point x="298.0" y="1466.2"/>
      <point x="594.4" y="1466.2" type="curve" smooth="yes"/>
      <point x="818.6" y="1466.2"/>
      <point x="970.2" y="1346.6"/>
      <point x="970.2" y="1155.4" type="curve" smooth="yes"/>
      <point x="970.2" y="941.0"/>
      <point x="766.4" y="841.6"/>
      <point x="766.4" y="753.6" type="curve" smooth="yes"/>
      <point x="766.4" y="640.8"/>
      <point x="1139.4" y="581.6"/>
      <point x="1139.4" y="289.2" type="curve" smooth="yes"/>
      <point x="1139.4" y="99.4"/>
      <point x="1015.4" y="-20.2"/>
      <point x="812.4" y="-20.2" type="curve" smooth="yes"/>
      <point x="690.8" y="-20.2"/>
      <point x="568.0" y="14.8"/>
      <point x="484.2" y="54.8" type="curve"/>
      <point x="530.8" y="186.0" type="line"/>
      <point x="584.4" y="157.8"/>
      <point x="682.2" y="121.0"/>
      <point x="788.4" y="121.0" type="curve" smooth="yes"/>
      <point x="909.2" y="121.0"/>
      <point x="964.4" y="196.4"/>
      <point x="964.4" y="287.4" type="curve" smooth="yes"/>
      <point x="964.4" y="492.6"/>
      <point x="599.4" y="545.6"/>
      <point x="599.4" y="737.0" type="curve" smooth="yes"/>
      <point x="599.4" y="900.4"/>
      <point x="801.0" y="957.2"/>
      <point x="801.6" y="1152.8" type="curve" smooth="yes"/>
      <point x="802.2" y="1256.8"/>
      <point x="733.6" y="1331.6"/>
      <point x="600.4" y="1331.6" type="curve" smooth="yes"/>
      <point x="417.8" y="1331.6"/>
      <point x="348.6" y="1237.4"/>
      <point x="348.6" y="1010.0" type="curve" smooth="yes"/>
    </contour>
  </outline>
</glyph>
<glyph name="ae" format="1">
  <advance width="1713.2"/>
  <unicode hex="00E6"/>
  <outline>
    <contour>
      <point x="430.8" y="-16.4" type="curve" smooth="yes"/>
      <point x="603.8" y="-16.4"/>
      <point x="793.2" y="60.8"/>
      <point x="880.2" y="156.8" type="curve"/>
      <point x="957.4" y="44.8"/>
      <point x="1073.8" y="-19.0"/>
      <point x="1243.4" y="-19.0" type="curve" smooth="yes"/>
      <point x="1404.2" y="-19.0"/>
      <point x="1507.8" y="18.0"/>
      <point x="1602.4" y="79.6" type="curve"/>
      <point x="1550.2" y="195.4" type="line"/>
      <point x="1452.6" y="142.8"/>
      <point x="1369.4" y="115.4"/>
      <point x="1259.8" y="115.4" type="curve"/>
      <point x="1067.6" y="116.2"/>
      <point x="945.2" y="221.6"/>
      <point x="935.2" y="487.8" type="curve"/>
      <point x="1478.0" y="487.8"/>
      <point x="1621.6" y="584.2"/>
      <point x="1621.6" y="778.2" type="curve" smooth="yes"/>
      <point x="1621.6" y="930.2"/>
      <point x="1512.0" y="1084.8"/>
      <point x="1246.4" y="1084.8" type="curve" smooth="yes"/>
      <point x="1089.2" y="1084.8"/>
      <point x="927.4" y="999.6"/>
      <point x="878.8" y="854.8" type="curve"/>
      <point x="855.2" y="1018.0"/>
      <point x="724.4" y="1085.4"/>
      <point x="548.2" y="1085.4" type="curve" smooth="yes"/>
      <point x="410.0" y="1085.4"/>
      <point x="246.4" y="1043.6"/>
      <point x="156.4" y="992.8" type="curve"/>
      <point x="209.2" y="871.4" type="line"/>
      <point x="291.8" y="912.6"/>
      <point x="435.2" y="951.4"/>
      <point x="546.8" y="951.4" type="curve"/>
      <point x="709.0" y="949.0"/>
      <point x="766.6" y="868.4"/>
      <point x="766.6" y="722.2" type="curve" smooth="yes"/>
      <point x="766.6" y="608.8" type="line"/>
      <point x="612.2" y="608.8" type="line" smooth="yes"/>
      <point x="279.8" y="608.8"/>
      <point x="108.0" y="524.4"/>
      <point x="108.0" y="302.4" type="curve" smooth="yes"/>
      <point x="108.0" y="92.6"/>
      <point x="247.6" y="-16.4"/>
    </contour>
    <contour>
      <point x="454.8" y="115.4" type="curve" smooth="yes"/>
      <point x="346.2" y="115.4"/>
      <point x="275.0" y="173.0"/>
      <point x="275.0" y="302.8" type="curve" smooth="yes"/>
      <point x="275.0" y="427.2"/>
      <point x="350.2" y="489.6"/>
      <point x="617.8" y="489.6" type="curve" smooth="yes"/>
      <point x="768.6" y="489.6" type="line"/>
      <point x="770.2" y="414.0"/>
      <point x="787.8" y="322.2"/>
      <point x="811.8" y="264.8" type="curve"/>
      <point x="725.4" y="178.2"/>
      <point x="572.2" y="115.4"/>
    </contour>
    <contour>
      <point x="938.0" y="605.8" type="curve"/>
      <point x="960.4" y="838.6"/>
      <point x="1089.0" y="959.2"/>
      <point x="1258.2" y="959.2" type="curve" smooth="yes"/>
      <point x="1405.2" y="959.2"/>
      <point x="1480.8" y="880.4"/>
      <point x="1480.8" y="779.0" type="curve" smooth="yes"/>
      <point x="1480.8" y="649.2"/>
      <point x="1328.4" y="605.8"/>
    </contour>
  </outline>
</glyph>
<glyph name="eth" format="1">
  <advance width="1220.2"/>
  <unicode hex="00F0"/>
  <outline>
    <contour>
      <point x="611.8" y="-24.6" type="curve" smooth="yes"/>
      <point x="940.6" y="-24.6"/>
      <point x="1108.4" y="186.6"/>
      <point x="1108.4" y="470.2" type="curve"/>
      <point x="1108.0" y="605.4"/>
      <point x="1073.8" y="741.0"/>
      <point x="1022.0" y="839.2" type="curve"/>
      <point x="954.4" y="965.4"/>
      <point x="854.0" y="1090.8"/>
      <point x="674.6" y="1281.6" type="curve"/>
      <point x="919.4" y="1373.4" type="line"/>
      <point x="867.8" y="1490.6" type="line"/>
      <point x="584.4" y="1380.6" type="line"/>
      <point x="437.2" y="1524.4" type="line"/>
      <point x="234.6" y="1524.4" type="line"/>
      <point x="447.6" y="1325.4" type="line"/>
      <point x="232.4" y="1242.2" type="line"/>
      <point x="282.0" y="1125.2" type="line"/>
      <point x="534.0" y="1222.4" type="line"/>
      <point x="695.2" y="1066.6"/>
      <point x="795.0" y="938.2"/>
      <point x="846.4" y="846.8" type="curve"/>
      <point x="789.4" y="886.8"/>
      <point x="724.4" y="939.8"/>
      <point x="592.4" y="939.8" type="curve" smooth="yes"/>
      <point x="312.6" y="939.8"/>
      <point x="114.4" y="751.2"/>
      <point x="114.4" y="469.4" type="curve" smooth="yes"/>
      <point x="114.4" y="204.8"/>
      <point x="290.4" y="-24.6"/>
    </contour>
    <contour>
      <point x="618.2" y="110.6" type="curve" smooth="yes"/>
      <point x="395.4" y="110.6"/>
      <point x="285.6" y="283.8"/>
      <point x="285.6" y="468.6" type="curve" smooth="yes"/>
      <point x="285.6" y="665.8"/>
      <point x="405.0" y="811.4"/>
      <point x="611.6" y="811.4" type="curve" smooth="yes"/>
      <point x="828.4" y="811.4"/>
      <point x="948.2" y="651.6"/>
      <point x="948.2" y="476.0" type="curve" smooth="yes"/>
      <point x="948.2" y="256.0"/>
      <point x="835.6" y="110.6"/>
    </contour>
  </outline>
</glyph>
<glyph name="divide" format="1">
  <advance width="1152.2"/>
  <unicode hex="00F7"/>
  <outline>
    <contour>
      <point x="469.4" y="29.8" type="line"/>
      <point x="671.6" y="29.8" type="line"/>
      <point x="671.6" y="241.4" type="line"/>
      <point x="469.4" y="241.4" type="line"/>
    </contour>
    <contour>
      <point x="88.2" y="490.6" type="line"/>
      <point x="1050.8" y="490.6" type="line"/>
      <point x="1050.8" y="635.0" type="line"/>
      <point x="88.2" y="635.0" type="line"/>
    </contour>
    <contour>
      <point x="469.4" y="866.4" type="line"/>
      <point x="674.8" y="866.4" type="line"/>
      <point x="674.8" y="1072.6" type="line"/>
      <point x="469.4" y="1072.6" type="line"/>
    </contour>
  </outline>
</glyph>
<glyph name="oslash" format="1">
  <advance width="1198.0"/>
  <unicode hex="00F8"/>
  <outline>
    <contour>
      <point x="292.4" y="-149.8" type="line"/>
      <point x="1015.8" y="1176.8" type="line"/>
      <point x="944.0" y="1214.8" type="line"/>
      <point x="226.6" y="-111.2" type="line"/>
    </contour>
    <component base="o"/>
  </outline>
</glyph>
<glyph name="Hbar" format="1">
  <advance width="1531.2"/>
  <unicode hex="0126"/>
  <outline>
    <contour>
      <point x="213.8" y="0.0" type="line"/>
      <point x="213.8" y="1107.8" type="line"/>
      <point x="125.8" y="1107.8" type="line"/>
      <point x="125.8" y="1208.6" type="line"/>
      <point x="213.8" y="1208.6" type="line"/>
      <point x="213.8" y="1445.2" type="line"/>
      <point x="377.8" y="1445.2" type="line"/>
      <point x="377.8" y="1208.6" type="line"/>
      <point x="1176.8" y="1208.6" type="line"/>
      <point x="1176.8" y="1445.2" type="line"/>
      <point x="1341.6" y="1445.2" type="line"/>
      <point x="1341.6" y="1208.6" type="line"/>
      <point x="1429.6" y="1208.6" type="line"/>
      <point x="1429.6" y="1107.8" type="line"/>
      <point x="1341.6" y="1107.8" type="line"/>
      <point x="1341.6" y="0.0" type="line"/>
      <point x="1176.8" y="0.0" type="line"/>
      <point x="1176.8" y="672.4" type="line"/>
      <point x="377.8" y="672.4" type="line"/>
      <point x="377.8" y="0.0" type="line"/>
    </contour>
    <contour>
      <point x="377.8" y="819.2" type="line"/>
      <point x="1176.8" y="819.2" type="line"/>
      <point x="1176.8" y="1107.8" type="line"/>
      <point x="377.8" y="1107.8" type="line"/>
    </contour>
  </outline>
</glyph>
<glyph name="hbar" format="1">
  <advance width="1184.2"/>
  <unicode hex="0127"/>
  <outline>
    <contour>
      <point x="213.6" y="0.0" type="line"/>
      <point x="370.6" y="0.0" type="line"/>
      <point x="370.6" y="723.0" type="line"/>
      <point x="396.0" y="823.4"/>
      <point x="530.2" y="947.8"/>
      <point x="698.4" y="947.8" type="curve" smooth="yes"/>
      <point x="881.8" y="947.8"/>
      <point x="914.4" y="835.8"/>
      <point x="914.4" y="595.4" type="curve" smooth="yes"/>
      <point x="914.4" y="0.0" type="line"/>
      <point x="1071.0" y="0.0" type="line"/>
      <point x="1071.0" y="641.8" type="line" smooth="yes"/>
      <point x="1071.0" y="919.4"/>
      <point x="973.6" y="1086.6"/>
      <point x="751.6" y="1086.6" type="curve" smooth="yes"/>
      <point x="588.6" y="1086.6"/>
      <point x="461.0" y="1025.6"/>
      <point x="370.6" y="917.2" type="curve"/>
      <point x="370.6" y="1227.8" type="line"/>
      <point x="636.4" y="1227.8" type="line"/>
      <point x="636.4" y="1339.2" type="line"/>
      <point x="370.6" y="1339.2" type="line"/>
      <point x="370.6" y="1459.0" type="line"/>
      <point x="213.6" y="1439.4" type="line"/>
      <point x="213.6" y="1339.2" type="line"/>
      <point x="124.4" y="1339.2" type="line"/>
      <point x="124.4" y="1227.8" type="line"/>
      <point x="213.6" y="1227.8" type="line"/>
    </contour>
  </outline>
</glyph>
<glyph name="dotlessi" format="1">
  <advance width="441.2"/>
  <unicode hex="0131"/>
  <outline>
    <contour>
      <point x="151.2" y="0.0" type="line"/>
      <point x="312.8" y="0.0" type="line"/>
      <point x="312.8" y="1059.8" type="line"/>
      <point x="151.2" y="1059.8" type="line"/>
    </contour>
  </outline>
</glyph>
<glyph name="Eng" format="1">
  <advance width="1349.8"/>
  <unicode hex="014A"/>
  <outline>
    <contour>
      <point x="818.2" y="-316.4" type="curve" smooth="yes"/>
      <point x="790.6" y="-316.4"/>
      <point x="742.0" y="-315.2"/>
      <point x="618.6" y="-303.4" type="curve"/>
      <point x="597.0" y="-160.6" type="line"/>
      <point x="733.8" y="-168.4"/>
      <point x="751.2" y="-169.4"/>
      <point x="771.8" y="-169.4" type="curve" smooth="yes"/>
      <point x="1045.6" y="-169.4"/>
      <point x="1067.6" y="-97.6"/>
      <point x="1067.6" y="165.8" type="curve" smooth="yes"/>
      <point x="1067.6" y="969.4" type="line" smooth="yes"/>
      <point x="1067.6" y="1226.4"/>
      <point x="995.4" y="1312.6"/>
      <point x="783.2" y="1312.6" type="curve" smooth="yes"/>
      <point x="567.2" y="1312.6"/>
      <point x="402.6" y="1190.6"/>
      <point x="310.6" y="1052.4" type="curve"/>
      <point x="310.6" y="0.0" type="line"/>
      <point x="149.6" y="0.0" type="line"/>
      <point x="147.2" y="1445.6" type="line"/>
      <point x="295.0" y="1445.6" type="line"/>
      <point x="312.0" y="1240.0" type="line"/>
      <point x="491.6" y="1429.2"/>
      <point x="664.8" y="1468.8"/>
      <point x="833.6" y="1468.8" type="curve" smooth="yes"/>
      <point x="1093.4" y="1468.8"/>
      <point x="1228.4" y="1295.4"/>
      <point x="1228.4" y="975.0" type="curve" smooth="yes"/>
      <point x="1228.4" y="159.6" type="line" smooth="yes"/>
      <point x="1228.4" y="-138.0"/>
      <point x="1166.6" y="-316.4"/>
    </contour>
  </outline>
</glyph>
<glyph name="eng" format="1">
  <advance width="1146.0"/>
  <unicode hex="014B"/>
  <outline>
    <contour>
      <point x="626.4" y="-292.0" type="line"/>
      <point x="693.6" y="-292.0" type="line" smooth="yes"/>
      <point x="977.4" y="-292.0"/>
      <point x="1020.6" y="-141.8"/>
      <point x="1021.0" y="152.8" type="curve"/>
      <point x="1021.0" y="650.4" type="line" smooth="yes"/>
      <point x="1021.0" y="935.4"/>
      <point x="915.6" y="1082.2"/>
      <point x="671.6" y="1082.2" type="curve" smooth="yes"/>
      <point x="520.0" y="1082.2"/>
      <point x="410.2" y="1022.6"/>
      <point x="334.0" y="908.0" type="curve"/>
      <point x="314.4" y="1059.8" type="line"/>
      <point x="160.2" y="1059.8" type="line"/>
      <point x="160.2" y="0.0" type="line"/>
      <point x="341.0" y="0.0" type="line"/>
      <point x="341.0" y="580.4" type="line" smooth="yes"/>
      <point x="341.0" y="634.4"/>
      <point x="344.0" y="683.0"/>
      <point x="349.6" y="728.6" type="curve"/>
      <point x="381.6" y="851.2"/>
      <point x="461.6" y="944.2"/>
      <point x="637.8" y="944.2" type="curve" smooth="yes"/>
      <point x="802.2" y="944.2"/>
      <point x="839.8" y="836.8"/>
      <point x="840.2" y="661.6" type="curve"/>
      <point x="840.2" y="101.4" type="line" smooth="yes"/>
      <point x="840.2" y="-105.6"/>
      <point x="823.4" y="-135.4"/>
      <point x="655.2" y="-135.4" type="curve" smooth="yes"/>
      <point x="615.6" y="-135.4" type="line"/>
    </contour>
  </outline>
</glyph>
<glyph name="OE" format="1">
  <advance width="1939.4"/>
  <unicode hex="0152"/>
  <outline>
    <contour>
      <point x="820.0" y="-22.8" type="curve" smooth="yes"/>
      <point x="570.8" y="-22.8"/>
      <point x="496.2" y="182.0"/>
      <point x="528.2" y="489.4" type="curve"/>
      <point x="537.2" y="744.4"/>
      <point x="695.6" y="902.2"/>
      <point x="926.6" y="902.2" type="curve"/>
      <point x="1019.6" y="902.2"/>
      <point x="1459.0" y="870.4"/>
      <point x="1494.4" y="830.2" type="curve"/>
      <point x="1502.0" y="969.2" type="line"/>
      <point x="1570.8" y="969.2" type="line"/>
      <point x="1562.4" y="1070.0" type="line"/>
      <point x="1534.0" y="1070.0" type="line"/>
      <point x="1534.0" y="816.4" type="line"/>
      <point x="1537.8" y="816.4" type="line"/>
      <point x="1537.8" y="894.8" type="line"/>
      <point x="1544.8" y="894.8" type="line"/>
      <point x="1552.4" y="625.6" type="line"/>
      <point x="1479.2" y="625.6" type="line"/>
      <point x="1472.0" y="535.0" type="line"/>
      <point x="1436.4" y="557.8"/>
      <point x="1056.4" y="570.6"/>
      <point x="1005.2" y="570.6" type="curve" smooth="yes"/>
      <point x="848.4" y="570.6"/>
      <point x="730.4" y="502.4"/>
      <point x="729.2" y="335.6" type="curve"/>
      <point x="722.0" y="142.2"/>
      <point x="721.0" y="-22.8"/>
    </contour>
    <contour>
      <point x="821.6" y="124.0" type="curve" smooth="yes"/>
      <point x="771.2" y="124.4"/>
      <point x="815.8" y="262.0"/>
      <point x="835.6" y="375.4" type="curve"/>
      <point x="836.4" y="483.0"/>
      <point x="895.6" y="1264.8"/>
      <point x="1005.2" y="1264.8" type="curve" smooth="yes"/>
      <point x="1017.0" y="1299.0"/>
      <point x="990.4" y="1306.4"/>
      <point x="942.8" y="1280.0" type="curve"/>
      <point x="737.0" y="1280.0"/>
      <point x="608.0" y="815.4"/>
      <point x="600.8" y="585.6" type="curve"/>
      <point x="575.2" y="327.6"/>
      <point x="611.4" y="127.6"/>
    </contour>
  </outline>
</glyph>
<glyph name="uni0237" format="1">
  <advance width="470.8"/>
  <unicode hex="0237"/>
  <outline>
    <contour>
      <point x="-42.4" y="-446.6" type="line"/>
      <point x="15.2" y="-446.6" type="line" smooth="yes"/>
      <point x="280.8" y="-446.6"/>
      <point x="335.6" y="-355.2"/>
      <point x="335.6" y="-97.2" type="curve" smooth="yes"/>
      <point x="335.6" y="1072.2" type="line"/>
      <point x="143.4" y="1072.2" type="line"/>
      <point x="143.4" y="-82.6" type="line" smooth="yes"/>
      <point x="143.4" y="-244.2"/>
      <point x="162.4" y="-298.6"/>
      <point x="-15.0" y="-298.6" type="curve" smooth="yes"/>
      <point x="-75.2" y="-298.6" type="line"/>
    </contour>
  </outline>
</glyph>
<glyph name="uni02BC" format="1">
  <advance width="487.0"/>
  <unicode hex="02BC"/>
  <outline>
    <contour>
      <point x="130.8" y="1065.6" type="line"/>
      <point x="240.2" y="1065.6" type="line"/>
      <point x="374.8" y="1521.0" type="line"/>
      <point x="226.4" y="1521.0" type="line"/>
    </contour>
  </outline>
</glyph>
<glyph name="circumflex" format="1">
  <advance width="762.2"/>
  <unicode hex="02C6"/>
  <outline>
    <contour>
      <point x="90.8" y="1208.6" type="line"/>
      <point x="213.6" y="1208.6" type="line"/>
      <point x="370.4" y="1472.6" type="line"/>
      <point x="525.6" y="1208.6" type="line"/>
      <point x="649.8" y="1208.6" type="line"/>
      <point x="470.2" y="1583.6" type="line"/>
      <point x="280.4" y="1583.6" type="line"/>
    </contour>
  </outline>
</glyph>
<glyph name="caron" format="1">
  <advance width="761.4"/>
  <unicode hex="02C7"/>
  <outline>
    <contour>
      <point x="271.2" y="1221.8" type="line"/>
      <point x="458.2" y="1221.8" type="line"/>
      <point x="653.4" y="1583.6" type="line"/>
      <point x="520.6" y="1583.6" type="line"/>
      <point x="360.6" y="1329.2" type="line"/>
      <point x="217.0" y="1583.6" type="line"/>
      <point x="86.4" y="1583.6" type="line"/>
    </contour>
  </outline>
</glyph>
<glyph name="breve" format="1">
  <advance width="720.2"/>
  <unicode hex="02D8"/>
  <outline>
    <contour>
      <point x="357.2" y="1258.2" type="curve" smooth="yes"/>
      <point x="487.6" y="1258.2"/>
      <point x="598.8" y="1327.6"/>
      <point x="598.8" y="1494.4" type="curve"/>
      <point x="486.6" y="1494.4" type="line"/>
      <point x="486.6" y="1402.2"/>
      <point x="426.8" y="1366.0"/>
      <point x="357.2" y="1366.0" type="curve" smooth="yes"/>
      <point x="287.6" y="1366.0"/>
      <point x="232.0" y="1402.2"/>
      <point x="232.0" y="1494.4" type="curve"/>
      <point x="119.0" y="1494.4" type="line"/>
      <point x="119.0" y="1327.4"/>
      <point x="227.8" y="1258.2"/>
    </contour>
  </outline>
</glyph>
<glyph name="dotaccent" format="1">
  <advance width="381.0"/>
  <unicode hex="02D9"/>
  <outline>
    <contour>
      <point x="113.2" y="1258.8" type="line"/>
      <point x="272.6" y="1258.8" type="line"/>
      <point x="272.6" y="1437.4" type="line"/>
      <point x="113.2" y="1437.4" type="line"/>
    </contour>
  </outline>
</glyph>
<glyph name="ring" format="1">
  <advance width="600.0"/>
  <unicode hex="02DA"/>
  <outline>
    <contour>
      <point x="300.0" y="1288.2" type="curve" smooth="yes"/>
      <point x="243.0" y="1288.2"/>
      <point x="205.0" y="1333.2"/>
      <point x="205.0" y="1388.2" type="curve" smooth="yes"/>
      <point x="205.0" y="1441.2"/>
      <point x="244.6" y="1487.2"/>
      <point x="300.0" y="1487.2" type="curve" smooth="yes"/>
      <point x="356.2" y="1487.2"/>
      <point x="396.0" y="1441.6"/>
      <point x="396.0" y="1388.2" type="curve" smooth="yes"/>
      <point x="396.0" y="1333.6"/>
      <point x="356.2" y="1288.2"/>
    </contour>
    <contour>
      <point x="300.0" y="1208.0" type="curve" smooth="yes"/>
      <point x="410.4" y="1208.0"/>
      <point x="488.4" y="1289.2"/>
      <point x="488.4" y="1388.8" type="curve" smooth="yes"/>
      <point x="488.4" y="1488.0"/>
      <point x="411.6" y="1569.2"/>
      <point x="300.0" y="1569.2" type="curve" smooth="yes"/>
      <point x="189.2" y="1569.2"/>
      <point x="111.6" y="1488.4"/>
      <point x="111.6" y="1388.8" type="curve" smooth="yes"/>
      <point x="111.6" y="1289.2"/>
      <point x="189.6" y="1208.0"/>
    </contour>
  </outline>
</glyph>
<glyph name="ogonek" format="1">
  <advance width="561.0"/>
  <unicode hex="02DB"/>
  <outline>
    <contour>
      <point x="453.8" y="-385.8" type="curve"/>
      <point x="453.8" y="-385.8"/>
      <point x="450.4" y="-278.0"/>
      <point x="450.6" y="-278.0" type="curve" smooth="yes"/>
      <point x="432.2" y="-286.0"/>
      <point x="384.4" y="-302.8"/>
      <point x="340.2" y="-302.8" type="curve" smooth="yes"/>
      <point x="296.0" y="-302.8"/>
      <point x="259.4" y="-277.6"/>
      <point x="259.4" y="-224.8" type="curve" smooth="yes"/>
      <point x="259.4" y="-151.8"/>
      <point x="338.6" y="-45.0"/>
      <point x="400.4" y="0.0" type="curve"/>
      <point x="315.6" y="0.0" type="line"/>
      <point x="216.0" y="-41.2"/>
      <point x="113.2" y="-152.0"/>
      <point x="113.2" y="-266.0" type="curve" smooth="yes"/>
      <point x="113.2" y="-358.4"/>
      <point x="181.2" y="-416.2"/>
      <point x="304.0" y="-416.2" type="curve" smooth="yes"/>
      <point x="355.2" y="-416.2"/>
      <point x="418.0" y="-401.8"/>
    </contour>
  </outline>
</glyph>
<glyph name="tilde" format="1">
  <advance width="848.4"/>
  <unicode hex="02DC"/>
  <outline>
    <contour>
      <point x="206.8" y="1245.0" type="line"/>
      <point x="215.6" y="1314.0"/>
      <point x="240.6" y="1341.6"/>
      <point x="275.4" y="1341.6" type="curve" smooth="yes"/>
      <point x="346.6" y="1341.6"/>
      <point x="462.0" y="1245.0"/>
      <point x="566.6" y="1245.0" type="curve" smooth="yes"/>
      <point x="656.8" y="1245.0"/>
      <point x="714.0" y="1318.4"/>
      <point x="714.0" y="1451.6" type="curve"/>
      <point x="621.0" y="1451.6" type="line"/>
      <point x="612.4" y="1387.8"/>
      <point x="591.6" y="1367.4"/>
      <point x="561.4" y="1367.4" type="curve" smooth="yes"/>
      <point x="500.2" y="1367.4"/>
      <point x="399.4" y="1452.2"/>
      <point x="280.0" y="1452.2" type="curve" smooth="yes"/>
      <point x="177.2" y="1452.2"/>
      <point x="116.2" y="1379.6"/>
      <point x="116.2" y="1245.0" type="curve"/>
    </contour>
  </outline>
</glyph>
<glyph name="hungarumlaut" format="1">
  <advance width="763.8"/>
  <unicode hex="02DD"/>
  <outline>
    <contour>
      <point x="116.4" y="1217.4" type="line"/>
      <point x="210.0" y="1217.4" type="line"/>
      <point x="447.4" y="1541.4" type="line"/>
      <point x="279.4" y="1541.4" type="line"/>
    </contour>
    <contour>
      <point x="359.4" y="1217.4" type="line"/>
      <point x="454.0" y="1217.4" type="line"/>
      <point x="726.0" y="1541.4" type="line"/>
      <point x="550.2" y="1541.4" type="line"/>
    </contour>
  </outline>
</glyph>
<glyph name="uni0307" format="1">
  <advance width="355.0"/>
  <unicode hex="0307"/>
  <outline>
    <contour>
      <point x="100.6" y="1255.0" type="line"/>
      <point x="260.0" y="1255.0" type="line"/>
      <point x="260.0" y="1445.8" type="line"/>
      <point x="100.6" y="1445.8" type="line"/>
    </contour>
  </outline>
</glyph>
<glyph name="uni0311" format="1">
  <advance width="676.6"/>
  <unicode hex="0311"/>
  <outline>
    <contour>
      <point x="103.8" y="1256.0" type="curve"/>
      <point x="215.4" y="1256.0" type="line"/>
      <point x="215.4" y="1348.2"/>
      <point x="270.2" y="1391.2"/>
      <point x="341.6" y="1391.2" type="curve" smooth="yes"/>
      <point x="412.2" y="1391.2"/>
      <point x="470.2" y="1348.0"/>
      <point x="470.2" y="1256.0" type="curve"/>
      <point x="583.0" y="1256.0" type="line"/>
      <point x="583.0" y="1422.2"/>
      <point x="460.0" y="1492.0"/>
      <point x="341.4" y="1492.0" type="curve" smooth="yes"/>
      <point x="223.2" y="1492.0"/>
      <point x="103.8" y="1422.4"/>
    </contour>
  </outline>
</glyph>
<glyph name="uni031B" format="1">
  <advance width="486.6"/>
  <unicode hex="031B"/>
  <outline>
    <contour>
      <point x="217.2" y="496.0" type="line"/>
      <point x="226.8" y="471.4"/>
      <point x="234.0" y="437.6"/>
      <point x="234.0" y="403.6" type="curve" smooth="yes"/>
      <point x="234.0" y="334.4"/>
      <point x="207.4" y="249.6"/>
      <point x="102.8" y="249.6" type="curve" smooth="yes"/>
      <point x="97.4" y="249.6"/>
      <point x="88.8" y="250.2"/>
      <point x="82.8" y="250.8" type="curve"/>
      <point x="82.8" y="166.4" type="line"/>
      <point x="103.6" y="163.8"/>
      <point x="123.6" y="161.6"/>
      <point x="142.2" y="161.6" type="curve" smooth="yes"/>
      <point x="298.6" y="161.6"/>
      <point x="343.6" y="261.4"/>
      <point x="343.6" y="357.8" type="curve" smooth="yes"/>
      <point x="343.6" y="407.6"/>
      <point x="330.0" y="459.2"/>
      <point x="313.8" y="496.0" type="curve"/>
    </contour>
  </outline>
</glyph>
<glyph name="Delta" format="1">
  <advance width="1422.6"/>
  <unicode hex="0394"/>
  <outline>
    <contour>
      <point x="102.4" y="0.0" type="line"/>
      <point x="635.2" y="1445.8" type="line"/>
      <point x="810.4" y="1445.8" type="line"/>
      <point x="1344.0" y="0.0" type="line"/>
    </contour>
    <contour>
      <point x="330.8" y="149.8" type="line"/>
      <point x="1120.0" y="149.8" type="line"/>
      <point x="722.4" y="1262.4" type="line"/>
    </contour>
  </outline>
</glyph>
<glyph name="Lambda" format="1">
  <advance width="1422.6"/>
  <unicode hex="039B"/>
  <outline>
    <contour>
      <point x="102.6" y="0.0" type="line"/>
      <point x="633.8" y="1445.2" type="line"/>
      <point x="812.2" y="1445.2" type="line"/>
      <point x="1344.0" y="0.0" type="line"/>
      <point x="1169.8" y="0.0" type="line"/>
      <point x="722.6" y="1262.2" type="line"/>
      <point x="281.8" y="0.0" type="line"/>
    </contour>
  </outline>
</glyph>
<glyph name="Pi" format="1">
  <advance width="1397.2"/>
  <unicode hex="03A0"/>
  <outline>
    <contour>
      <point x="144.8" y="0.0" type="line"/>
      <point x="144.8" y="1445.2" type="line"/>
      <point x="1277.8" y="1445.2" type="line"/>
      <point x="1277.8" y="0.0" type="line"/>
      <point x="1108.0" y="0.0" type="line"/>
      <point x="1108.0" y="1298.8" type="line"/>
      <point x="316.4" y="1298.8" type="line"/>
      <point x="316.4" y="0.0" type="line"/>
    </contour>
  </outline>
</glyph>
<glyph name="Sigma" format="1">
  <advance width="1124.2"/>
  <unicode hex="03A3"/>
  <outline>
    <contour>
      <point x="144.8" y="0.0" type="line"/>
      <point x="144.8" y="1429.4" type="line"/>
      <point x="1010.2" y="1429.4" type="line"/>
      <point x="1003.0" y="1281.8" type="line"/>
      <point x="323.6" y="1281.8" type="line"/>
      <point x="323.6" y="813.2" type="line"/>
      <point x="947.4" y="813.2" type="line"/>
      <point x="947.4" y="668.2" type="line"/>
      <point x="323.6" y="668.2" type="line"/>
      <point x="323.6" y="147.6" type="line"/>
      <point x="1010.0" y="147.6" type="line"/>
      <point x="1002.4" y="0.0" type="line"/>
    </contour>
  </outline>
</glyph>
<glyph name="Phi" format="1">
  <advance width="1618.6"/>
  <unicode hex="03A6"/>
  <outline>
    <contour>
      <point x="735.0" y="0.0" type="line"/>
      <point x="735.0" y="165.0" type="line"/>
      <point x="328.4" y="194.8"/>
      <point x="116.2" y="435.2"/>
      <point x="116.2" y="746.4" type="curve" smooth="yes"/>
      <point x="116.2" y="1063.0"/>
      <point x="341.8" y="1284.2"/>
      <point x="735.0" y="1312.6" type="curve"/>
      <point x="735.0" y="1445.2" type="line"/>
      <point x="905.2" y="1445.2" type="line"/>
      <point x="905.2" y="1312.6" type="line"/>
      <point x="1302.8" y="1285.6"/>
      <point x="1528.2" y="1064.2"/>
      <point x="1528.2" y="746.4" type="curve" smooth="yes"/>
      <point x="1528.2" y="433.8"/>
      <point x="1315.2" y="192.6"/>
      <point x="905.2" y="165.0" type="curve"/>
      <point x="905.2" y="0.0" type="line"/>
    </contour>
    <contour>
      <point x="735.0" y="312.6" type="curve"/>
      <point x="735.0" y="1165.6" type="line"/>
      <point x="444.6" y="1138.8"/>
      <point x="298.2" y="977.8"/>
      <point x="298.2" y="746.4" type="curve" smooth="yes"/>
      <point x="298.2" y="523.4"/>
      <point x="432.2" y="341.6"/>
    </contour>
    <contour>
      <point x="905.2" y="312.6" type="line"/>
      <point x="1211.2" y="340.2"/>
      <point x="1346.4" y="522.2"/>
      <point x="1346.4" y="746.4" type="curve" smooth="yes"/>
      <point x="1346.4" y="977.2"/>
      <point x="1200.4" y="1139.8"/>
      <point x="905.2" y="1165.6" type="curve"/>
    </contour>
  </outline>
</glyph>
<glyph name="Omega" format="1">
  <advance width="1592.8"/>
  <unicode hex="03A9"/>
  <outline>
    <contour>
      <point x="811.8" y="163.6" type="curve" smooth="yes"/>
      <point x="1111.4" y="163.6"/>
      <point x="1271.0" y="392.0"/>
      <point x="1271.0" y="711.2" type="curve" smooth="yes"/>
      <point x="1271.0" y="1040.2"/>
      <point x="1107.4" y="1267.2"/>
      <point x="812.4" y="1267.2" type="curve" smooth="yes"/>
      <point x="517.4" y="1267.2"/>
      <point x="351.2" y="1040.8"/>
      <point x="351.2" y="711.2" type="curve" smooth="yes"/>
      <point x="351.2" y="392.0"/>
      <point x="512.2" y="163.6"/>
    </contour>
    <contour>
      <point x="811.8" y="-20.2" type="curve" smooth="yes"/>
      <point x="380.2" y="-20.2"/>
      <point x="118.4" y="263.4"/>
      <point x="118.4" y="712.6" type="curve" smooth="yes"/>
      <point x="118.4" y="1170.0"/>
      <point x="385.8" y="1452.4"/>
      <point x="812.4" y="1452.4" type="curve" smooth="yes"/>
      <point x="1234.2" y="1452.4"/>
      <point x="1504.6" y="1168.2"/>
      <point x="1504.6" y="712.0" type="curve" smooth="yes"/>
      <point x="1504.6" y="267.0"/>
      <point x="1240.4" y="-20.2"/>
    </contour>
  </outline>
</glyph>
<glyph name="rho" format="1">
  <advance width="1229.4"/>
  <unicode hex="03C1"/>
  <outline>
    <contour>
      <point x="137.8" y="-459.2" type="line"/>
      <point x="319.0" y="-449.2" type="line"/>
      <point x="319.0" y="-58.6" type="line" smooth="yes"/>
      <point x="319.0" y="7.0"/>
      <point x="317.6" y="74.4"/>
      <point x="314.0" y="144.2" type="curve"/>
      <point x="384.0" y="45.8"/>
      <point x="519.6" y="-22.6"/>
      <point x="661.0" y="-22.6" type="curve" smooth="yes"/>
      <point x="937.0" y="-22.6"/>
      <point x="1127.6" y="209.0"/>
      <point x="1127.6" y="524.6" type="curve" smooth="yes"/>
      <point x="1127.6" y="850.0"/>
      <point x="956.2" y="1082.2"/>
      <point x="658.4" y="1082.2" type="curve" smooth="yes"/>
      <point x="512.4" y="1082.2"/>
      <point x="378.2" y="1011.8"/>
      <point x="319.8" y="886.2" type="curve"/>
      <point x="301.8" y="1059.6" type="line"/>
      <point x="137.8" y="1059.6" type="line"/>
    </contour>
    <contour>
      <point x="632.2" y="113.6" type="curve" smooth="yes"/>
      <point x="399.0" y="113.6"/>
      <point x="318.8" y="272.6"/>
      <point x="318.8" y="547.6" type="curve"/>
      <point x="319.0" y="791.4"/>
      <point x="410.2" y="944.8"/>
      <point x="633.0" y="944.8" type="curve" smooth="yes"/>
      <point x="843.4" y="944.8"/>
      <point x="946.8" y="779.8"/>
      <point x="946.8" y="530.8" type="curve" smooth="yes"/>
      <point x="946.8" y="277.2"/>
      <point x="839.2" y="113.6"/>
    </contour>
  </outline>
</glyph>
<glyph name="uni040A" format="1">
  <advance width="2123.0"/>
  <unicode hex="040A"/>
  <outline>
    <contour>
      <point x="1067.6" y="0.0" type="line"/>
      <point x="1546.4" y="0.0" type="line" smooth="yes"/>
      <point x="1900.4" y="0.0"/>
      <point x="2045.0" y="155.4"/>
      <point x="2045.0" y="408.4" type="curve" smooth="yes"/>
      <point x="2045.0" y="657.4"/>
      <point x="1906.6" y="808.4"/>
      <point x="1545.0" y="808.4" type="curve" smooth="yes"/>
      <point x="1201.0" y="808.4" type="line"/>
      <point x="1260.4" y="753.0" type="line"/>
      <point x="1261.6" y="1430.6" type="line"/>
      <point x="1067.6" y="1430.6" type="line"/>
      <point x="1067.6" y="755.8" type="line"/>
      <point x="1133.2" y="808.4" type="line"/>
      <point x="328.0" y="808.4" type="line"/>
      <point x="394.6" y="755.8" type="line"/>
      <point x="394.6" y="1430.6" type="line"/>
      <point x="200.6" y="1430.6" type="line"/>
      <point x="200.6" y="0.0" type="line"/>
      <point x="394.6" y="0.0" type="line"/>
      <point x="394.6" y="721.4" type="line"/>
      <point x="328.0" y="667.0" type="line"/>
      <point x="1137.2" y="667.0" type="line"/>
      <point x="1067.6" y="721.4" type="line"/>
    </contour>
    <contour>
      <point x="1260.8" y="61.8" type="line"/>
      <point x="1260.8" y="727.6" type="line"/>
      <point x="1201.2" y="667.0" type="line"/>
      <point x="1537.2" y="667.0" type="line" smooth="yes"/>
      <point x="1768.4" y="667.0"/>
      <point x="1855.8" y="601.4"/>
      <point x="1855.8" y="408.4" type="curve" smooth="yes"/>
      <point x="1855.8" y="216.2"/>
      <point x="1754.6" y="142.4"/>
      <point x="1534.8" y="142.4" type="curve" smooth="yes"/>
      <point x="1192.0" y="142.4" type="line"/>
    </contour>
  </outline>
</glyph>
<glyph name="uni0411" format="1">
  <advance width="1260.6"/>
  <unicode hex="0411"/>
  <outline>
    <contour>
      <point x="192.8" y="0.0" type="line"/>
      <point x="703.6" y="0.0" type="line" smooth="yes"/>
      <point x="1057.6" y="0.0"/>
      <point x="1196.2" y="162.6"/>
      <point x="1196.2" y="415.6" type="curve" smooth="yes"/>
      <point x="1196.2" y="664.6"/>
      <point x="1063.4" y="824.4"/>
      <point x="701.8" y="824.4" type="curve" smooth="yes"/>
      <point x="317.8" y="824.4" type="line"/>
      <point x="386.8" y="764.6" type="line"/>
      <point x="386.8" y="1358.2" type="line"/>
      <point x="321.2" y="1291.2" type="line"/>
      <point x="1051.2" y="1291.2" type="line"/>
      <point x="1051.2" y="1436.8" type="line"/>
      <point x="192.8" y="1436.8" type="line"/>
    </contour>
    <contour>
      <point x="386.8" y="67.8" type="line"/>
      <point x="386.8" y="734.8" type="line"/>
      <point x="316.6" y="676.6" type="line"/>
      <point x="694.0" y="676.6" type="line" smooth="yes"/>
      <point x="920.4" y="676.6"/>
      <point x="1001.8" y="606.2"/>
      <point x="1001.8" y="413.2" type="curve" smooth="yes"/>
      <point x="1001.8" y="221.0"/>
      <point x="904.8" y="147.2"/>
      <point x="691.6" y="147.2" type="curve" smooth="yes"/>
      <point x="320.2" y="147.2" type="line"/>
    </contour>
  </outline>
</glyph>
<glyph name="uni041B" format="1">
  <advance width="1540.8"/>
  <unicode hex="041B"/>
  <outline>
    <contour>
      <point x="-22.6" y="-23.2" type="line"/>
      <point x="60.4" y="-23.2" type="line" smooth="yes"/>
      <point x="373.2" y="-23.2"/>
      <point x="474.4" y="129.4"/>
      <point x="474.4" y="434.0" type="curve" smooth="yes"/>
      <point x="474.4" y="1341.8" type="line"/>
      <point x="408.8" y="1288.0" type="line"/>
      <point x="1246.0" y="1287.4" type="line"/>
      <point x="1176.0" y="1341.2" type="line"/>
      <point x="1176.0" y="-0.6" type="line"/>
      <point x="1368.8" y="-1.2" type="line"/>
      <point x="1370.0" y="1430.0" type="line"/>
      <point x="280.4" y="1430.6" type="line"/>
      <point x="280.4" y="411.2" type="line" smooth="yes"/>
      <point x="280.4" y="230.6"/>
      <point x="242.4" y="132.8"/>
      <point x="44.0" y="132.8" type="curve" smooth="yes"/>
      <point x="-22.6" y="132.8" type="line"/>
    </contour>
  </outline>
</glyph>
<glyph name="uni041F" format="1">
  <advance width="1495.8"/>
  <unicode hex="041F"/>
  <outline>
    <contour>
      <point x="200.6" y="0.0" type="line"/>
      <point x="394.6" y="0.0" type="line"/>
      <point x="394.6" y="1341.8" type="line"/>
      <point x="328.4" y="1288.0" type="line"/>
      <point x="1201.0" y="1288.0" type="line"/>
      <point x="1131.0" y="1341.8" type="line"/>
      <point x="1131.0" y="0.0" type="line"/>
      <point x="1325.0" y="0.0" type="line"/>
      <point x="1325.0" y="1430.6" type="line"/>
      <point x="200.6" y="1430.6" type="line"/>
    </contour>
  </outline>
</glyph>
<glyph name="uni0424" format="1">
  <advance width="1629.4"/>
  <unicode hex="0424"/>
  <outline>
    <contour>
      <point x="746.6" y="0.0" type="line"/>
      <point x="897.6" y="0.0" type="line"/>
      <point x="897.6" y="122.0" type="line"/>
      <point x="1312.0" y="150.2"/>
      <point x="1563.6" y="357.8"/>
      <point x="1563.6" y="719.8" type="curve" smooth="yes"/>
      <point x="1563.6" y="1082.4"/>
      <point x="1312.2" y="1290.4"/>
      <point x="897.6" y="1317.8" type="curve"/>
      <point x="897.6" y="1445.2" type="line"/>
      <point x="746.6" y="1445.2" type="line"/>
      <point x="746.4" y="1316.0" type="line"/>
      <point x="327.0" y="1280.2"/>
      <point x="95.6" y="1061.6"/>
      <point x="95.6" y="719.8" type="curve" smooth="yes"/>
      <point x="95.6" y="377.6"/>
      <point x="326.8" y="159.0"/>
      <point x="746.4" y="123.2" type="curve"/>
    </contour>
    <contour>
      <point x="746.4" y="275.2" type="line"/>
      <point x="423.2" y="309.2"/>
      <point x="273.2" y="472.8"/>
      <point x="273.2" y="719.8" type="curve" smooth="yes"/>
      <point x="273.2" y="966.2"/>
      <point x="423.2" y="1131.2"/>
      <point x="746.4" y="1165.2" type="curve"/>
    </contour>
    <contour>
      <point x="897.6" y="273.4" type="curve"/>
      <point x="897.6" y="1166.4" type="line"/>
      <point x="1236.2" y="1135.2"/>
      <point x="1386.4" y="967.6"/>
      <point x="1386.4" y="719.8" type="curve" smooth="yes"/>
      <point x="1386.4" y="472.0"/>
      <point x="1236.4" y="304.6"/>
    </contour>
  </outline>
</glyph>
<glyph name="uni0427" format="1">
  <advance width="1148.0"/>
  <unicode hex="0427"/>
  <outline>
    <contour>
      <point x="889.2" y="-0.4" type="line"/>
      <point x="1070.2" y="-0.4" type="line"/>
      <point x="1070.2" y="1429.2" type="line"/>
      <point x="889.2" y="1429.2" type="line"/>
      <point x="889.2" y="649.6" type="line"/>
      <point x="891.2" y="650.0"/>
      <point x="555.6" y="649.4"/>
      <point x="557.4" y="649.4" type="curve" smooth="yes"/>
      <point x="381.2" y="649.4"/>
      <point x="295.0" y="689.0"/>
      <point x="295.0" y="919.4" type="curve" smooth="yes"/>
      <point x="295.0" y="1429.2" type="line"/>
      <point x="113.2" y="1429.2" type="line"/>
      <point x="113.2" y="885.2" type="line" smooth="yes"/>
      <point x="113.2" y="631.6"/>
      <point x="252.8" y="489.4"/>
      <point x="518.2" y="489.4" type="curve" smooth="yes"/>
      <point x="516.6" y="489.4"/>
      <point x="892.4" y="489.6"/>
      <point x="888.8" y="489.6" type="curve"/>
    </contour>
  </outline>
</glyph>
<glyph name="uni0428" format="1">
  <advance width="1627.0"/>
  <unicode hex="0428"/>
  <outline>
    <contour>
      <point x="165.8" y="0.0" type="line"/>
      <point x="1487.0" y="0.0" type="line"/>
      <point x="1487.0" y="1436.8" type="line"/>
      <point x="1316.8" y="1436.8" type="line"/>
      <point x="1316.8" y="149.4" type="line"/>
      <point x="909.4" y="149.4" type="line"/>
      <point x="909.4" y="1436.8" type="line"/>
      <point x="739.4" y="1436.8" type="line"/>
      <point x="739.4" y="149.4" type="line"/>
      <point x="335.2" y="149.4" type="line"/>
      <point x="335.2" y="1436.8" type="line"/>
      <point x="165.8" y="1436.8" type="line"/>
    </contour>
  </outline>
</glyph>
<glyph name="uni0429" format="1">
  <advance width="1690.6"/>
  <unicode hex="0429"/>
  <outline>
    <contour>
      <point x="1454.8" y="-292.2" type="line"/>
      <point x="1618.6" y="-292.2" type="line"/>
      <point x="1618.6" y="149.8" type="line"/>
      <point x="1514.0" y="149.8" type="line"/>
      <point x="1514.0" y="1436.8" type="line"/>
      <point x="1343.6" y="1436.8" type="line"/>
      <point x="1343.6" y="149.4" type="line"/>
      <point x="936.4" y="149.4" type="line"/>
      <point x="936.4" y="1436.8" type="line"/>
      <point x="766.4" y="1436.8" type="line"/>
      <point x="766.4" y="149.4" type="line"/>
      <point x="362.2" y="149.4" type="line"/>
      <point x="362.2" y="1436.8" type="line"/>
      <point x="192.8" y="1436.8" type="line"/>
      <point x="192.8" y="0.0" type="line"/>
      <point x="1455.0" y="0.0" type="line"/>
    </contour>
  </outline>
</glyph>
<glyph name="uni042A" format="1">
  <advance width="1313.4"/>
  <unicode hex="042A"/>
  <outline>
    <contour>
      <point x="233.0" y="0.0" type="line"/>
      <point x="713.8" y="0.0" type="line" smooth="yes"/>
      <point x="1067.8" y="0.0"/>
      <point x="1206.4" y="162.6"/>
      <point x="1206.4" y="415.6" type="curve" smooth="yes"/>
      <point x="1206.4" y="664.6"/>
      <point x="1074.2" y="824.4"/>
      <point x="712.6" y="824.4" type="curve" smooth="yes"/>
      <point x="358.0" y="824.4" type="line"/>
      <point x="427.0" y="764.6" type="line"/>
      <point x="427.4" y="1430.2" type="line"/>
      <point x="-18.4" y="1430.2" type="line"/>
      <point x="-18.8" y="1284.4" type="line"/>
      <point x="305.0" y="1285.6" type="line"/>
      <point x="233.0" y="1353.0" type="line"/>
    </contour>
    <contour>
      <point x="427.0" y="67.8" type="line"/>
      <point x="427.0" y="736.4" type="line"/>
      <point x="356.8" y="677.8" type="line"/>
      <point x="704.8" y="677.8" type="line" smooth="yes"/>
      <point x="931.2" y="677.8"/>
      <point x="1012.0" y="607.4"/>
      <point x="1012.0" y="414.4" type="curve" smooth="yes"/>
      <point x="1012.0" y="222.2"/>
      <point x="915.0" y="147.2"/>
      <point x="701.8" y="147.2" type="curve" smooth="yes"/>
      <point x="360.0" y="147.2" type="line"/>
    </contour>
  </outline>
</glyph>
<glyph name="uni042C" format="1">
  <advance width="1275.8"/>
  <unicode hex="042C"/>
  <outline>
    <contour>
      <point x="192.8" y="0.0" type="line"/>
      <point x="696.0" y="0.0" type="line" smooth="yes"/>
      <point x="1050.0" y="0.0"/>
      <point x="1188.6" y="162.6"/>
      <point x="1188.6" y="415.6" type="curve" smooth="yes"/>
      <point x="1188.6" y="664.6"/>
      <point x="1055.8" y="824.4"/>
      <point x="694.2" y="824.4" type="curve" smooth="yes"/>
      <point x="317.8" y="824.4" type="line"/>
      <point x="386.8" y="764.6" type="line"/>
      <point x="387.2" y="1429.6" type="line"/>
      <point x="192.8" y="1429.2" type="line"/>
    </contour>
    <contour>
      <point x="386.8" y="67.8" type="line"/>
      <point x="386.8" y="736.4" type="line"/>
      <point x="316.6" y="677.8" type="line"/>
      <point x="686.4" y="677.8" type="line" smooth="yes"/>
      <point x="912.8" y="677.8"/>
      <point x="994.2" y="607.4"/>
      <point x="994.2" y="414.4" type="curve" smooth="yes"/>
      <point x="994.2" y="222.2"/>
      <point x="897.2" y="147.2"/>
      <point x="684.0" y="147.2" type="curve" smooth="yes"/>
      <point x="320.2" y="147.2" type="line"/>
    </contour>
  </outline>
</glyph>
<glyph name="uni0447" format="1">
  <advance width="1054.4"/>
  <unicode hex="0447"/>
  <outline>
    <contour>
      <point x="730.6" y="0.0" type="line"/>
      <point x="911.0" y="0.0" type="line"/>
      <point x="911.0" y="1059.8" type="line"/>
      <point x="730.6" y="1059.8" type="line"/>
      <point x="730.6" y="577.6" type="line"/>
      <point x="728.2" y="555.6"/>
      <point x="590.6" y="520.0"/>
      <point x="529.4" y="520.0" type="curve" smooth="yes"/>
      <point x="370.4" y="520.0"/>
      <point x="305.2" y="581.4"/>
      <point x="305.2" y="813.2" type="curve" smooth="yes"/>
      <point x="305.2" y="1059.8" type="line"/>
      <point x="124.0" y="1059.8" type="line"/>
      <point x="124.0" y="796.6" type="line" smooth="yes"/>
      <point x="124.0" y="465.6"/>
      <point x="269.6" y="382.4"/>
      <point x="513.0" y="381.2" type="curve"/>
      <point x="565.0" y="381.2"/>
      <point x="708.6" y="396.0"/>
      <point x="730.6" y="417.6" type="curve"/>
    </contour>
  </outline>
</glyph>
<glyph name="uni045A" format="1">
  <advance width="1564.6"/>
  <unicode hex="045A"/>
  <outline>
    <contour>
      <point x="153.0" y="0.0" type="line"/>
      <point x="330.2" y="0.0" type="line"/>
      <point x="330.2" y="493.2" type="line"/>
      <point x="801.8" y="493.2" type="line"/>
      <point x="801.8" y="0.0" type="line"/>
      <point x="1203.2" y="0.0" type="line" smooth="yes"/>
      <point x="1430.2" y="0.0"/>
      <point x="1541.4" y="147.0"/>
      <point x="1541.4" y="317.0" type="curve" smooth="yes"/>
      <point x="1541.4" y="498.4"/>
      <point x="1436.8" y="630.6"/>
      <point x="1203.6" y="630.6" type="curve" smooth="yes"/>
      <point x="976.8" y="630.6" type="line"/>
      <point x="976.8" y="1061.0" type="line"/>
      <point x="801.8" y="1061.0" type="line"/>
      <point x="801.8" y="630.2" type="line"/>
      <point x="330.2" y="630.2" type="line"/>
      <point x="330.2" y="1061.0" type="line"/>
      <point x="153.0" y="1061.0" type="line"/>
    </contour>
    <contour>
      <point x="976.8" y="132.0" type="line"/>
      <point x="976.8" y="504.0" type="line"/>
      <point x="1197.8" y="504.0" type="line" smooth="yes"/>
      <point x="1340.6" y="504.0"/>
      <point x="1391.4" y="418.6"/>
      <point x="1391.4" y="320.0" type="curve" smooth="yes"/>
      <point x="1391.4" y="220.6"/>
      <point x="1339.6" y="132.0"/>
      <point x="1198.2" y="132.0" type="curve" smooth="yes"/>
    </contour>
  </outline>
</glyph>
<glyph name="uni045F" format="1">
  <advance width="1068.6"/>
  <unicode hex="045F"/>
  <outline>
    <contour>
      <point x="507.4" y="-268.0" type="line"/>
      <point x="633.8" y="-268.0" type="line"/>
      <point x="638.6" y="0.0" type="line"/>
      <point x="948.6" y="0.0" type="line"/>
      <point x="948.6" y="1059.8" type="line"/>
      <point x="791.6" y="1059.8" type="line"/>
      <point x="791.6" y="127.4" type="line"/>
      <point x="297.2" y="127.4" type="line"/>
      <point x="297.2" y="1059.8" type="line"/>
      <point x="140.4" y="1059.8" type="line"/>
      <point x="140.4" y="0.0" type="line"/>
      <point x="502.6" y="0.0" type="line"/>
    </contour>
  </outline>
</glyph>
<glyph name="endash" format="1">
  <advance width="1219.2"/>
  <unicode hex="2013"/>
  <outline>
    <contour>
      <point x="112.6" y="509.6" type="line"/>
      <point x="1122.0" y="509.6" type="line"/>
      <point x="1122.0" y="651.6" type="line"/>
      <point x="112.6" y="651.6" type="line"/>
    </contour>
  </outline>
</glyph>
<glyph name="emdash" format="1">
  <advance width="2290.6"/>
  <unicode hex="2014"/>
  <outline>
    <contour>
      <point x="116.0" y="509.6" type="line"/>
      <point x="2206.2" y="509.6" type="line"/>
      <point x="2206.2" y="651.6" type="line"/>
      <point x="116.0" y="651.6" type="line"/>
    </contour>
  </outline>
</glyph>
<glyph name="quoteleft" format="1">
  <advance width="452.4"/>
  <unicode hex="2018"/>
  <outline>
    <contour>
      <point x="203.6" y="1017.2" type="line"/>
      <point x="336.2" y="1017.2" type="line"/>
      <point x="307.2" y="1437.4" type="line"/>
      <point x="179.8" y="1437.4" type="line"/>
    </contour>
  </outline>
</glyph>
<glyph name="quoteright" format="1">
  <advance width="446.0"/>
  <unicode hex="2019"/>
  <outline>
    <contour>
      <point x="117.6" y="1017.2" type="line"/>
      <point x="226.2" y="1017.2" type="line"/>
      <point x="354.2" y="1437.4" type="line"/>
      <point x="206.6" y="1437.4" type="line"/>
    </contour>
  </outline>
</glyph>
<glyph name="quotesinglbase" format="1">
  <advance width="444.2"/>
  <unicode hex="201A"/>
  <outline>
    <contour>
      <point x="97.4" y="-247.4" type="line"/>
      <point x="207.6" y="-247.4" type="line"/>
      <point x="336.6" y="208.6" type="line"/>
      <point x="185.6" y="208.6" type="line"/>
    </contour>
  </outline>
</glyph>
<glyph name="quotedblleft" format="1">
  <advance width="746.2"/>
  <unicode hex="201C"/>
  <outline>
    <contour>
      <point x="268.4" y="1065.6" type="line"/>
      <point x="356.0" y="1522.2" type="line"/>
      <point x="239.8" y="1521.0" type="line"/>
      <point x="115.6" y="1064.4" type="line"/>
    </contour>
    <contour>
      <point x="570.6" y="1065.6" type="line"/>
      <point x="652.8" y="1522.2" type="line"/>
      <point x="540.0" y="1521.4" type="line"/>
      <point x="414.6" y="1064.4" type="line"/>
    </contour>
  </outline>
</glyph>
<glyph name="quotedblright" format="1">
  <advance width="705.4"/>
  <unicode hex="201D"/>
  <outline>
    <contour>
      <point x="85.6" y="1095.8" type="line"/>
      <point x="195.0" y="1095.8" type="line"/>
      <point x="325.0" y="1510.6" type="line"/>
      <point x="175.2" y="1510.6" type="line"/>
    </contour>
    <contour>
      <point x="384.2" y="1098.8" type="line"/>
      <point x="493.4" y="1098.8" type="line"/>
      <point x="624.8" y="1510.6" type="line"/>
      <point x="471.0" y="1510.6" type="line"/>
    </contour>
  </outline>
</glyph>
<glyph name="quotedblbase" format="1">
  <advance width="733.0"/>
  <unicode hex="201E"/>
  <outline>
    <contour>
      <point x="127.6" y="-247.4" type="line"/>
      <point x="236.8" y="-247.4" type="line"/>
      <point x="362.8" y="208.6" type="line"/>
      <point x="213.0" y="208.6" type="line"/>
    </contour>
    <contour>
      <point x="398.2" y="-247.4" type="line"/>
      <point x="507.4" y="-247.4" type="line"/>
      <point x="636.8" y="208.6" type="line"/>
      <point x="484.2" y="208.6" type="line"/>
    </contour>
  </outline>
</glyph>
<glyph name="dagger" format="1">
  <advance width="903.4"/>
  <unicode hex="2020"/>
  <outline>
    <contour>
      <point x="393.4" y="116.6" type="line"/>
      <point x="514.0" y="116.6" type="line"/>
      <point x="514.0" y="963.4" type="line"/>
      <point x="809.0" y="963.4" type="line"/>
      <point x="809.0" y="1075.0" type="line"/>
      <point x="513.6" y="1075.0" type="line"/>
      <point x="513.6" y="1440.6" type="line"/>
      <point x="393.4" y="1440.6" type="line"/>
      <point x="393.4" y="1075.0" type="line"/>
      <point x="105.0" y="1075.0" type="line"/>
      <point x="105.0" y="963.4" type="line"/>
      <point x="393.4" y="963.4" type="line"/>
    </contour>
  </outline>
</glyph>
<glyph name="daggerdbl" format="1">
  <advance width="963.6"/>
  <unicode hex="2021"/>
  <outline>
    <contour>
      <point x="793.4" y="430.0" type="line"/>
      <point x="793.4" y="533.8" type="line"/>
      <point x="524.8" y="533.8" type="line"/>
      <point x="524.4" y="959.4" type="line"/>
      <point x="794.6" y="959.4" type="line"/>
      <point x="794.6" y="1068.6" type="line"/>
      <point x="520.8" y="1068.6" type="line"/>
      <point x="520.8" y="1438.2" type="line"/>
      <point x="400.6" y="1438.2" type="line"/>
      <point x="400.6" y="1068.6" type="line"/>
      <point x="127.8" y="1068.6" type="line"/>
      <point x="127.8" y="959.4" type="line"/>
      <point x="400.6" y="959.4" type="line"/>
      <point x="400.6" y="533.8" type="line"/>
      <point x="127.0" y="533.8" type="line"/>
      <point x="127.0" y="430.0" type="line"/>
      <point x="400.6" y="430.0" type="line"/>
      <point x="400.6" y="64.2" type="line"/>
      <point x="524.8" y="64.2" type="line"/>
      <point x="524.8" y="430.0" type="line"/>
    </contour>
  </outline>
</glyph>
<glyph name="bullet" format="1">
  <advance width="836.8"/>
  <unicode hex="2022"/>
  <outline>
    <contour>
      <point x="427.8" y="402.4" type="curve" smooth="yes"/>
      <point x="259.6" y="402.4"/>
      <point x="112.6" y="520.8"/>
      <point x="112.6" y="722.8" type="curve" smooth="yes"/>
      <point x="112.6" y="926.6"/>
      <point x="264.4" y="1049.0"/>
      <point x="433.4" y="1049.0" type="curve" smooth="yes"/>
      <point x="601.4" y="1049.0"/>
      <point x="750.0" y="930.2"/>
      <point x="750.0" y="727.6" type="curve" smooth="yes"/>
      <point x="750.0" y="524.6"/>
      <point x="597.2" y="402.4"/>
    </contour>
  </outline>
</glyph>
<glyph name="guilsinglleft" format="1">
  <advance width="587.2"/>
  <unicode hex="2039"/>
  <outline>
    <contour>
      <point x="524.0" y="974.8" type="line"/>
      <point x="380.4" y="974.8" type="line"/>
      <point x="87.4" y="558.4" type="line"/>
      <point x="375.2" y="150.4" type="line"/>
      <point x="518.2" y="150.4" type="line"/>
      <point x="239.4" y="557.8" type="line"/>
    </contour>
  </outline>
</glyph>
<glyph name="guilsinglright" format="1">
  <advance width="593.8"/>
  <unicode hex="203A"/>
  <outline>
    <contour>
      <point x="101.2" y="150.4" type="line"/>
      <point x="244.8" y="150.4" type="line"/>
      <point x="539.0" y="565.4" type="line"/>
      <point x="249.6" y="974.8" type="line"/>
      <point x="106.6" y="974.8" type="line"/>
      <point x="384.8" y="566.0" type="line"/>
    </contour>
  </outline>
</glyph>
<glyph name="fraction" format="1">
  <advance width="1124.2"/>
  <unicode hex="2044"/>
  <outline>
    <contour>
      <point x="112.4" y="0.0" type="line"/>
      <point x="259.8" y="0.0" type="line"/>
      <point x="1041.0" y="1495.0" type="line"/>
      <point x="901.2" y="1495.0" type="line"/>
    </contour>
  </outline>
</glyph>
<glyph name="uni2074" format="1">
  <advance width="738.4"/>
  <unicode hex="2074"/>
  <outline>
    <contour>
      <point x="432.8" y="639.6" type="line"/>
      <point x="531.8" y="639.6" type="line"/>
      <point x="531.6" y="836.4" type="line"/>
      <point x="633.8" y="836.4" type="line"/>
      <point x="625.2" y="944.6" type="line"/>
      <point x="533.8" y="944.6" type="line"/>
      <point x="533.8" y="1468.2" type="line"/>
      <point x="421.8" y="1468.2" type="line"/>
      <point x="113.4" y="931.6" type="line"/>
      <point x="113.4" y="836.4" type="line"/>
      <point x="432.8" y="836.4" type="line"/>
    </contour>
    <contour>
      <point x="225.0" y="944.6" type="line"/>
      <point x="433.2" y="1293.8" type="line"/>
      <point x="432.0" y="944.6" type="line"/>
    </contour>
  </outline>
</glyph>
<glyph name="Euro" format="1">
  <advance width="1281.6"/>
  <unicode hex="20AC"/>
  <outline>
    <contour>
      <point x="1198.4" y="66.2" type="line"/>
      <point x="1112.8" y="21.6"/>
      <point x="990.0" y="-19.0"/>
      <point x="824.8" y="-19.0" type="curve" smooth="yes"/>
      <point x="484.4" y="-19.0"/>
      <point x="211.4" y="181.2"/>
      <point x="144.6" y="560.2" type="curve"/>
      <point x="206.4" y="519.4" type="line"/>
      <point x="15.6" y="519.4" type="line"/>
      <point x="22.2" y="632.6" type="line"/>
      <point x="196.0" y="632.6" type="line"/>
      <point x="141.6" y="590.6" type="line"/>
      <point x="139.0" y="619.6"/>
      <point x="135.2" y="693.0"/>
      <point x="135.2" y="723.4" type="curve" smooth="yes"/>
      <point x="135.2" y="749.6"/>
      <point x="137.6" y="817.8"/>
      <point x="139.8" y="843.0" type="curve"/>
      <point x="195.0" y="800.0" type="line"/>
      <point x="21.0" y="800.0" type="line"/>
      <point x="27.0" y="911.4" type="line"/>
      <point x="200.4" y="911.4" type="line"/>
      <point x="140.6" y="865.0" type="line"/>
      <point x="201.8" y="1251.2"/>
      <point x="469.8" y="1456.0"/>
      <point x="815.6" y="1456.0" type="curve" smooth="yes"/>
      <point x="982.8" y="1456.0"/>
      <point x="1124.4" y="1410.8"/>
      <point x="1219.8" y="1343.6" type="curve"/>
      <point x="1156.4" y="1214.2" type="line"/>
      <point x="1068.6" y="1268.0"/>
      <point x="948.8" y="1301.2"/>
      <point x="831.6" y="1301.2" type="curve" smooth="yes"/>
      <point x="581.2" y="1301.2"/>
      <point x="394.2" y="1155.2"/>
      <point x="339.4" y="865.0" type="curve"/>
      <point x="279.2" y="911.4" type="line"/>
      <point x="908.8" y="911.4" type="line"/>
      <point x="902.2" y="800.0" type="line"/>
      <point x="268.6" y="800.0" type="line"/>
      <point x="334.8" y="843.0" type="line"/>
      <point x="332.0" y="816.8"/>
      <point x="329.6" y="745.8"/>
      <point x="329.6" y="718.0" type="curve" smooth="yes"/>
      <point x="329.6" y="688.8"/>
      <point x="333.0" y="618.0"/>
      <point x="335.6" y="590.6" type="curve"/>
      <point x="271.4" y="632.6" type="line"/>
      <point x="902.2" y="632.6" type="line"/>
      <point x="895.6" y="519.4" type="line"/>
      <point x="284.6" y="519.4" type="line"/>
      <point x="342.8" y="560.2" type="line"/>
      <point x="402.0" y="276.6"/>
      <point x="586.6" y="136.2"/>
      <point x="850.2" y="136.2" type="curve" smooth="yes"/>
      <point x="969.8" y="136.2"/>
      <point x="1071.8" y="168.0"/>
      <point x="1156.0" y="208.8" type="curve"/>
    </contour>
  </outline>
</glyph>
<glyph name="trademark" format="1">
  <advance width="1747.2"/>
  <unicode hex="2122"/>
  <outline>
    <contour>
      <point x="817.2" y="588.4" type="line"/>
      <point x="920.6" y="588.4" type="line"/>
      <point x="920.6" y="1305.0" type="line"/>
      <point x="1180.2" y="657.4" type="line"/>
      <point x="1261.8" y="657.4" type="line"/>
      <point x="1538.0" y="1304.4" type="line"/>
      <point x="1538.0" y="588.4" type="line"/>
      <point x="1643.2" y="588.4" type="line"/>
      <point x="1643.2" y="1445.4" type="line"/>
      <point x="1504.0" y="1445.4" type="line"/>
      <point x="1228.4" y="795.8" type="line"/>
      <point x="964.8" y="1445.4" type="line"/>
      <point x="817.2" y="1445.4" type="line"/>
    </contour>
    <contour>
      <point x="332.2" y="588.4" type="line"/>
      <point x="438.4" y="588.4" type="line"/>
      <point x="438.4" y="1348.2" type="line"/>
      <point x="694.4" y="1348.2" type="line"/>
      <point x="694.4" y="1445.4" type="line"/>
      <point x="81.8" y="1445.4" type="line"/>
      <point x="81.6" y="1348.2" type="line"/>
      <point x="332.2" y="1348.2" type="line"/>
    </contour>
  </outline>
</glyph>
<glyph name="summation" format="1">
  <advance width="1238.4"/>
  <unicode hex="2211"/>
  <outline>
    <contour>
      <point x="90.4" y="-344.2" type="line"/>
      <point x="1172.2" y="-344.2" type="line"/>
      <point x="1172.2" y="-188.0" type="line"/>
      <point x="287.2" y="-188.0" type="line"/>
      <point x="891.2" y="583.6" type="line"/>
      <point x="311.0" y="1333.0" type="line"/>
      <point x="1133.6" y="1333.0" type="line"/>
      <point x="1133.6" y="1480.6" type="line"/>
      <point x="111.8" y="1480.6" type="line"/>
      <point x="111.8" y="1381.6" type="line"/>
      <point x="691.4" y="576.0" type="line"/>
      <point x="90.4" y="-248.8" type="line"/>
    </contour>
  </outline>
</glyph>
<glyph name="minus" format="1">
  <advance width="1161.8"/>
  <unicode hex="2212"/>
  <outline>
    <contour>
      <point x="91.8" y="516.2" type="line"/>
      <point x="1055.6" y="516.2" type="line"/>
      <point x="1055.6" y="659.4" type="line"/>
      <point x="91.8" y="659.4" type="line"/>
    </contour>
  </outline>
</glyph>
<glyph name="approxequal" format="1">
  <advance width="1228.4"/>
  <unicode hex="2248"/>
  <outline>
    <contour>
      <point x="123.6" y="456.6" type="line"/>
      <point x="153.6" y="623.4"/>
      <point x="247.8" y="724.2"/>
      <point x="401.6" y="724.2" type="curve" smooth="yes"/>
      <point x="491.6" y="724.2"/>
      <point x="575.4" y="681.8"/>
      <point x="653.6" y="637.2" type="curve"/>
      <point x="731.0" y="593.6"/>
      <point x="796.8" y="551.8"/>
      <point x="857.4" y="551.8" type="curve" smooth="yes"/>
      <point x="942.8" y="551.8"/>
      <point x="996.6" y="614.4"/>
      <point x="1031.2" y="724.2" type="curve"/>
      <point x="1126.0" y="695.0" type="line"/>
      <point x="1096.6" y="534.8"/>
      <point x="1022.0" y="428.2"/>
      <point x="854.0" y="428.2" type="curve" smooth="yes"/>
      <point x="774.2" y="428.2"/>
      <point x="694.0" y="461.0"/>
      <point x="584.4" y="526.8" type="curve"/>
      <point x="518.0" y="568.4"/>
      <point x="460.0" y="599.0"/>
      <point x="402.4" y="599.0" type="curve" smooth="yes"/>
      <point x="304.6" y="599.0"/>
      <point x="249.8" y="530.6"/>
      <point x="219.4" y="425.8" type="curve"/>
    </contour>
    <contour>
      <point x="121.2" y="534.0" type="line"/>
      <point x="151.0" y="698.4"/>
      <point x="249.4" y="800.2"/>
      <point x="402.6" y="800.2" type="curve" smooth="yes"/>
      <point x="488.2" y="800.2"/>
      <point x="563.6" y="764.0"/>
      <point x="654.0" y="709.8" type="curve"/>
      <point x="743.2" y="656.8"/>
      <point x="800.0" y="628.4"/>
      <point x="855.0" y="628.4" type="curve" smooth="yes"/>
      <point x="940.4" y="628.4"/>
      <point x="993.2" y="689.6"/>
      <point x="1028.6" y="800.2" type="curve"/>
      <point x="1124.2" y="773.0" type="line"/>
      <point x="1094.2" y="612.6"/>
      <point x="1017.0" y="506.6"/>
      <point x="853.2" y="506.6" type="curve" smooth="yes"/>
      <point x="769.8" y="506.6"/>
      <point x="691.2" y="539.6"/>
      <point x="582.6" y="606.6" type="curve"/>
      <point x="516.2" y="648.2"/>
      <point x="457.4" y="677.4"/>
      <point x="399.8" y="677.4" type="curve" smooth="yes"/>
      <point x="301.0" y="677.4"/>
      <point x="247.8" y="610.4"/>
      <point x="219.4" y="506.2" type="curve"/>
    </contour>
  </outline>
</glyph>
<glyph name="notequal" format="1">
  <advance width="1159.4"/>
  <unicode hex="2260"/>
  <outline>
    <contour>
      <point x="372.6" y="46.6" type="line"/>
      <point x="513.6" y="339.8" type="line"/>
      <point x="1056.6" y="339.8" type="line"/>
      <point x="1050.2" y="463.0" type="line"/>
      <point x="569.4" y="463.0" type="line"/>
      <point x="723.2" y="757.8" type="line"/>
      <point x="1056.6" y="757.8" type="line"/>
      <point x="1047.4" y="884.4" type="line"/>
      <point x="778.6" y="884.4" type="line"/>
      <point x="892.2" y="1151.4" type="line"/>
      <point x="784.8" y="1166.0" type="line"/>
      <point x="648.0" y="884.4" type="line"/>
      <point x="121.8" y="884.4" type="line"/>
      <point x="130.0" y="757.6" type="line"/>
      <point x="592.4" y="757.6" type="line"/>
      <point x="443.0" y="463.4" type="line"/>
      <point x="122.6" y="463.4" type="line"/>
      <point x="130.0" y="339.8" type="line"/>
      <point x="382.0" y="339.8" type="line"/>
      <point x="267.2" y="65.4" type="line"/>
    </contour>
  </outline>
</glyph>
<glyph name="lessequal" format="1">
  <advance width="1164.0"/>
  <unicode hex="2264"/>
  <outline>
    <contour>
      <point x="1032.4" y="256.4" type="line"/>
      <point x="1032.4" y="402.2" type="line"/>
      <point x="343.2" y="752.6" type="line"/>
      <point x="1032.4" y="1122.2" type="line"/>
      <point x="1032.4" y="1268.0" type="line"/>
      <point x="154.2" y="794.6" type="line"/>
      <point x="154.2" y="708.4" type="line"/>
    </contour>
    <contour>
      <point x="123.0" y="0.8" type="line"/>
      <point x="1058.2" y="0.8" type="line"/>
      <point x="1058.2" y="125.0" type="line"/>
      <point x="123.0" y="125.0" type="line"/>
    </contour>
  </outline>
</glyph>
<glyph name="greaterequal" format="1">
  <advance width="1161.6"/>
  <unicode hex="2265"/>
  <outline>
    <contour>
      <point x="154.8" y="226.6" type="line"/>
      <point x="1040.2" y="694.6" type="line"/>
      <point x="1040.2" y="778.6" type="line"/>
      <point x="158.2" y="1270.8" type="line"/>
      <point x="158.2" y="1125.0" type="line"/>
      <point x="896.4" y="736.2" type="line"/>
      <point x="154.8" y="371.4" type="line"/>
    </contour>
    <contour>
      <point x="127.8" y="7.4" type="line"/>
      <point x="1057.4" y="7.4" type="line"/>
      <point x="1057.4" y="136.4" type="line"/>
      <point x="127.8" y="135.6" type="line"/>
    </contour>
  </outline>
</glyph>
<glyph name="lozenge" format="1">
  <advance width="1134.0"/>
  <unicode hex="25CA"/>
  <outline>
    <contour>
      <point x="518.4" y="-46.6" type="line"/>
      <point x="622.2" y="-46.6" type="line"/>
      <point x="1040.6" y="742.0" type="line"/>
      <point x="631.0" y="1530.6" type="line"/>
      <point x="524.8" y="1530.6" type="line"/>
      <point x="108.4" y="739.8" type="line"/>
    </contour>
    <contour>
      <point x="568.6" y="101.6" type="curve"/>
      <point x="452.8" y="310.2"/>
      <point x="344.4" y="529.2"/>
      <point x="230.6" y="741.8" type="curve"/>
      <point x="346.8" y="953.8"/>
      <point x="463.6" y="1166.8"/>
      <point x="580.4" y="1376.6" type="curve"/>
      <point x="691.2" y="1163.2"/>
      <point x="806.0" y="951.0"/>
      <point x="918.6" y="740.2" type="curve"/>
      <point x="802.4" y="527.6"/>
      <point x="684.4" y="313.4"/>
    </contour>
  </outline>
</glyph>
<glyph name=".notdef" format="1">
  <advance width="962.2"/>
  <outline>
    <contour>
      <point x="196.0" y="99.8" type="line"/>
      <point x="787.2" y="99.8" type="line"/>
      <point x="787.2" y="955.4" type="line"/>
      <point x="196.0" y="955.4" type="line"/>
    </contour>
    <contour>
      <point x="98.0" y="1.2" type="line"/>
      <point x="98.0" y="1054.0" type="line"/>
      <point x="885.2" y="1054.0" type="line"/>
      <point x="885.2" y="1.2" type="line"/>
    </contour>
  </outline>
</glyph>
